<?xml version="1.0" encoding="utf-8"?>
<!-- Generator: Adobe Illustrator 17.0.0, SVG Export Plug-In . SVG Version: 6.00 Build 0)  -->
<!DOCTYPE svg PUBLIC "-//W3C//DTD SVG 1.1//EN" "http://www.w3.org/Graphics/SVG/1.1/DTD/svg11.dtd">
<svg version="1.1" id="Layer_1" xmlns="http://www.w3.org/2000/svg" xmlns:xlink="http://www.w3.org/1999/xlink" x="0px" y="0px"
	 width="2480px" height="465px" viewBox="0 0 2480 465" enable-background="new 0 0 2480 465" xml:space="preserve">
<rect y="0.154" opacity="0.8" fill="#3E2D4E" width="2480" height="465"/>
<g>
	<g>
		<path fill="#FFFFFF" d="M848.256,88.881h7.473v89.195h-7.473V88.881z"/>
		<path fill="#FFFFFF" d="M875.015,108.528h9.643l20.611,47.008l4.339,11.21h0.723l4.339-11.21l20.732-47.008h9.522v69.548h-6.75
			v-58.941l-0.603-0.121l-5.786,14.103l-18.201,41.946h-7.232l-18.201-41.946l-5.786-14.103l-0.482,0.121v58.941h-6.87V108.528z"/>
		<path fill="#FFFFFF" d="M963.607,109.01c3.053-0.561,5.966-0.964,8.739-1.205c2.772-0.241,5.484-0.362,8.136-0.362
			c10.366,0,17.939,1.929,22.721,5.786c4.78,3.857,7.171,9.925,7.171,18.201c0,8.277-2.411,14.325-7.232,18.141
			c-4.821,3.817-12.536,5.725-23.143,5.725c-1.286,0-2.712-0.04-4.279-0.12c-1.567-0.079-3.194-0.2-4.882-0.362v23.263h-7.232
			V109.01z M981.325,149.269c7.714,0,13.298-1.386,16.754-4.159c3.454-2.772,5.183-7.332,5.183-13.681
			c0-6.268-1.708-10.807-5.123-13.62c-3.417-2.812-8.901-4.219-16.453-4.219c-1.688,0-3.477,0.081-5.364,0.241
			c-1.889,0.162-3.718,0.361-5.484,0.603v34.111c1.365,0.162,3.013,0.322,4.942,0.482
			C977.709,149.189,979.557,149.269,981.325,149.269z"/>
		<path fill="#FFFFFF" d="M1024.114,108.528h7.232v63.281h29.651v6.268h-36.883V108.528z"/>
		<path fill="#FFFFFF" d="M1064.371,177.474l24.83-68.946h10.366l24.709,68.946v0.603h-6.991l-7.714-21.094h-30.375l-7.834,21.094
			h-6.991V177.474z M1107.763,151.197l-9.402-25.915l-3.736-10.728h-0.603l-3.616,10.728l-9.643,25.915H1107.763z"/>
		<path fill="#FFFFFF" d="M1135.245,108.528h6.629l36.04,49.901l5.424,8.076l0.482-0.121v-57.856h6.75v69.548h-6.629l-36.04-49.781
			l-5.424-8.196h-0.603v57.977h-6.629V108.528z"/>
		<path fill="#FFFFFF" d="M1223.836,114.916h-21.696v-6.388h50.504v6.388h-21.576v63.16h-7.232V114.916z"/>
		<path fill="#FFFFFF" d="M1287.717,88.881h10.004l24.349,62.678l5.062,14.103h0.723l5.062-14.103l24.469-62.678h10.004v89.195
			h-7.231v-76.78l-0.603-0.121l-6.147,16.634l-22.179,56.531h-7.594l-22.058-56.531l-6.268-16.634l-0.603,0.121v76.78h-6.991V88.881
			z"/>
		<path fill="#FFFFFF" d="M1378.841,177.474l24.83-68.946h10.365l24.71,68.946v0.603h-6.991l-7.714-21.094h-30.375l-7.835,21.094
			h-6.99V177.474z M1422.232,151.197l-9.401-25.915l-3.736-10.728h-0.603l-3.616,10.728l-9.643,25.915H1422.232z"/>
		<path fill="#FFFFFF" d="M1477.801,179.041c-11.33-0.162-19.629-3.093-24.891-8.799c-5.264-5.705-7.895-14.664-7.895-26.879
			c0-12.294,2.69-21.314,8.075-27.06c5.383-5.744,13.94-8.618,25.674-8.618c2.17,0,4.72,0.141,7.654,0.422
			c2.933,0.283,5.805,0.744,8.618,1.386v6.268c-3.215-0.642-6.048-1.104-8.498-1.386c-2.452-0.28-4.842-0.422-7.172-0.422
			c-4.821,0-8.919,0.563-12.294,1.688c-3.375,1.126-6.147,2.874-8.317,5.244c-2.169,2.371-3.757,5.405-4.761,9.1
			c-1.006,3.697-1.507,8.157-1.507,13.379c0,10.206,2.028,17.64,6.087,22.299c4.057,4.661,10.547,6.991,19.467,6.991
			c1.124,0,2.712-0.079,4.761-0.241c2.049-0.16,3.917-0.401,5.604-0.723V142.76h6.75v34.231c-3.296,0.644-6.369,1.145-9.221,1.507
			C1483.083,178.86,1480.371,179.041,1477.801,179.041z"/>
		<path fill="#FFFFFF" d="M1511.549,108.528h7.232v69.548h-7.232V108.528z"/>
		<path fill="#FFFFFF" d="M1566.271,179.041c-11.089-0.081-19.267-2.993-24.528-8.739c-5.264-5.744-7.895-14.724-7.895-26.939
			c0-12.374,2.591-21.414,7.774-27.12c5.183-5.705,13.358-8.558,24.528-8.558c2.008,0,4.178,0.102,6.509,0.301
			c2.33,0.202,4.659,0.503,6.991,0.904v6.147c-1.929-0.32-3.998-0.582-6.208-0.783c-2.211-0.2-4.32-0.302-6.328-0.302
			c-4.58,0-8.497,0.542-11.752,1.627c-3.254,1.085-5.927,2.793-8.016,5.123c-2.09,2.332-3.615,5.364-4.58,9.101
			c-0.964,3.736-1.446,8.256-1.446,13.56c0,10.287,2.008,17.739,6.026,22.359c4.018,4.622,10.406,6.931,19.165,6.931
			c0.803,0,1.748-0.04,2.833-0.121c1.085-0.079,2.229-0.181,3.436-0.301c1.205-0.121,2.41-0.241,3.615-0.362
			c1.206-0.121,2.29-0.26,3.255-0.422v6.027c-1.85,0.403-3.918,0.763-6.208,1.084
			C1571.152,178.878,1568.761,179.041,1566.271,179.041z"/>
	</g>
	<g opacity="0.9">
		<path fill="#FFFFFF" d="M89.574,276.678c6.669-1.284,13.018-1.929,19.044-1.929c11.731,0,20.31,2.432,25.734,7.292
			c5.424,4.863,8.136,12.557,8.136,23.083c0,10.606-2.772,18.342-8.317,23.203c-5.544,4.862-14.304,7.292-26.276,7.292
			c-1.688,0-3.417-0.04-5.183-0.121c-1.769-0.079-3.657-0.199-5.665-0.361v30.134h-7.473V276.678z M109.221,329.11
			c8.999,0,15.528-1.888,19.587-5.665c4.057-3.776,6.087-9.884,6.087-18.321c0-8.275-1.989-14.303-5.966-18.08
			c-3.978-3.776-10.387-5.665-19.225-5.665c-1.929,0-3.999,0.081-6.208,0.24c-2.211,0.162-4.36,0.443-6.449,0.844v45.804
			c1.688,0.162,3.635,0.343,5.846,0.542C105.103,329.011,107.212,329.11,109.221,329.11z"/>
		<path fill="#FFFFFF" d="M180.938,338.994c-1.205,0.241-2.531,0.403-3.978,0.482c-1.446,0.08-2.893,0.12-4.339,0.12
			c-1.527,0-3.073-0.04-4.64-0.12c-1.567-0.079-3.236-0.2-5.002-0.362v26.156h-7.232v-69.066c2.972-0.562,5.865-0.964,8.678-1.205
			c2.812-0.241,5.545-0.361,8.196-0.361c10.445,0,18.039,1.808,22.781,5.424c4.74,3.616,7.111,9.322,7.111,17.116
			c0,5.544-1.205,9.985-3.616,13.318c-2.411,3.336-6.147,5.726-11.21,7.172l16.393,27.603h-7.834L180.938,338.994z M173.344,333.57
			c7.874,0,13.519-1.266,16.935-3.797c3.415-2.531,5.123-6.729,5.123-12.596c0-5.786-1.708-9.964-5.123-12.536
			c-3.417-2.57-8.901-3.857-16.453-3.857c-1.608,0-3.356,0.081-5.243,0.241c-1.889,0.162-3.757,0.362-5.605,0.603v31.339
			c1.365,0.162,3.032,0.302,5.002,0.422C169.948,333.51,171.736,333.57,173.344,333.57z"/>
		<path fill="#FFFFFF" d="M243.133,366.234c-19.448,0-29.169-11.891-29.169-35.678c0-23.866,9.722-35.799,29.169-35.799
			c9.562,0,16.794,2.974,21.696,8.92c4.9,5.947,7.353,14.906,7.353,26.879c0,11.894-2.452,20.812-7.353,26.759
			C259.927,363.263,252.694,366.234,243.133,366.234z M243.133,359.847c7.473,0,12.976-2.351,16.513-7.052
			c3.535-4.7,5.303-12.113,5.303-22.238s-1.789-17.577-5.364-22.359c-3.576-4.779-9.061-7.172-16.453-7.172
			c-7.473,0-12.999,2.371-16.574,7.111c-3.576,4.743-5.364,12.216-5.364,22.42c0,10.206,1.767,17.64,5.304,22.299
			C230.034,357.517,235.579,359.847,243.133,359.847z"/>
		<path fill="#FFFFFF" d="M287.368,295.722h41.343v6.269H294.6v25.433h31.459v6.147H294.6v31.7h-7.232V295.722z"/>
		<path fill="#FFFFFF" d="M342.09,295.722h42.669v6.147h-35.437v25.192h32.303v5.905h-32.303v26.036h36.281v6.268H342.09V295.722z"
			/>
		<path fill="#FFFFFF" d="M416.82,366.476c-3.215,0-6.81-0.301-10.788-0.903c-3.978-0.604-7.533-1.345-10.667-2.23l0.482-6.268
			c2.812,0.885,6.126,1.627,9.944,2.229c3.816,0.603,7.251,0.904,10.306,0.904c5.545,0,9.782-1.085,12.716-3.254
			c2.933-2.17,4.4-5.263,4.4-9.281c0-1.929-0.382-3.616-1.145-5.062c-0.765-1.446-1.869-2.731-3.315-3.857
			c-1.446-1.124-3.235-2.148-5.364-3.073c-2.13-0.923-4.52-1.827-7.172-2.713c-3.537-1.043-6.55-2.188-9.04-3.435
			c-2.492-1.245-4.52-2.61-6.087-4.099c-1.567-1.485-2.693-3.194-3.375-5.122c-0.684-1.929-1.024-4.099-1.024-6.509
			c0-5.946,2.109-10.647,6.328-14.103c4.218-3.454,9.902-5.184,17.056-5.184c2.651,0,5.382,0.162,8.196,0.482
			c2.812,0.322,5.906,0.844,9.281,1.566l-0.482,6.269c-3.215-0.724-6.228-1.266-9.04-1.628c-2.814-0.361-5.304-0.542-7.473-0.542
			c-5.062,0-9.101,1.166-12.114,3.495c-3.013,2.332-4.52,5.466-4.52,9.402c0,3.375,1.266,6.047,3.797,8.016
			c2.531,1.97,6.729,3.878,12.596,5.725c3.294,1.046,6.208,2.17,8.739,3.375c2.531,1.206,4.641,2.592,6.328,4.159
			c1.688,1.566,2.972,3.375,3.857,5.424c0.883,2.049,1.326,4.44,1.326,7.172c0,6.026-2.091,10.709-6.268,14.042
			C430.118,364.81,424.293,366.476,416.82,366.476z"/>
		<path fill="#FFFFFF" d="M446.11,380.217c1.688-3.215,3.073-6.129,4.158-8.738c1.085-2.612,1.947-5.144,2.591-7.594
			c0.643-2.45,1.085-4.942,1.326-7.474s0.361-5.363,0.361-8.498v-52.191h7.232v52.674c0,3.055-0.202,5.948-0.603,8.679
			c-0.403,2.732-1.024,5.466-1.868,8.196s-1.97,5.523-3.375,8.377c-1.407,2.852-3.074,5.886-5.002,9.101L446.11,380.217z"/>
		<path fill="#FFFFFF" d="M505.773,366.234c-19.448,0-29.169-11.891-29.169-35.678c0-23.866,9.722-35.799,29.169-35.799
			c9.562,0,16.794,2.974,21.696,8.92c4.9,5.947,7.353,14.906,7.353,26.879c0,11.894-2.452,20.812-7.353,26.759
			C522.567,363.263,515.335,366.234,505.773,366.234z M505.773,359.847c7.473,0,12.976-2.351,16.513-7.052
			c3.535-4.7,5.303-12.113,5.303-22.238s-1.789-17.577-5.364-22.359c-3.576-4.779-9.061-7.172-16.453-7.172
			c-7.473,0-12.999,2.371-16.574,7.111c-3.576,4.743-5.364,12.216-5.364,22.42c0,10.206,1.767,17.64,5.304,22.299
			C492.675,357.517,498.219,359.847,505.773,359.847z"/>
		<path fill="#FFFFFF" d="M550.009,295.722h6.629l36.04,49.901l5.424,8.076l0.482-0.12v-57.857h6.75v69.549h-6.629l-36.04-49.78
			l-5.424-8.197h-0.603v57.978h-6.629V295.722z"/>
		<path fill="#FFFFFF" d="M616.302,364.668l24.83-68.946h10.366l24.709,68.946v0.603h-6.991l-7.714-21.094h-30.375l-7.834,21.094
			h-6.991V364.668z M659.694,338.392l-9.402-25.915l-3.736-10.728h-0.603l-3.616,10.728l-9.643,25.915H659.694z"/>
		<path fill="#FFFFFF" d="M687.175,295.722h7.232v63.281h29.651v6.268h-36.883V295.722z"/>
		<path fill="#FFFFFF" d="M735.267,295.722h6.629l36.04,49.901l5.424,8.076l0.482-0.12v-57.857h6.75v69.549h-6.629l-36.04-49.78
			l-5.424-8.197h-0.603v57.978h-6.629V295.722z"/>
		<path fill="#FFFFFF" d="M809.395,295.722h42.669v6.147h-35.437v25.192h32.303v5.905h-32.303v26.036h36.281v6.268h-43.513V295.722z
			"/>
		<path fill="#FFFFFF" d="M882.316,364.668l24.83-68.946h10.366l24.709,68.946v0.603h-6.991l-7.714-21.094h-30.375l-7.834,21.094
			h-6.991V364.668z M925.708,338.392l-9.402-25.915l-3.736-10.728h-0.603l-3.616,10.728l-9.643,25.915H925.708z"/>
		<path fill="#FFFFFF" d="M969.943,366.476c-3.215,0-6.81-0.301-10.788-0.903c-3.978-0.604-7.533-1.345-10.667-2.23l0.482-6.268
			c2.812,0.885,6.126,1.627,9.944,2.229c3.816,0.603,7.251,0.904,10.306,0.904c5.545,0,9.782-1.085,12.716-3.254
			c2.933-2.17,4.4-5.263,4.4-9.281c0-1.929-0.382-3.616-1.145-5.062c-0.765-1.446-1.869-2.731-3.315-3.857
			c-1.446-1.124-3.235-2.148-5.364-3.073c-2.13-0.923-4.52-1.827-7.172-2.713c-3.537-1.043-6.55-2.188-9.04-3.435
			c-2.492-1.245-4.52-2.61-6.087-4.099c-1.567-1.485-2.693-3.194-3.375-5.122c-0.684-1.929-1.024-4.099-1.024-6.509
			c0-5.946,2.109-10.647,6.328-14.103c4.218-3.454,9.902-5.184,17.056-5.184c2.651,0,5.382,0.162,8.196,0.482
			c2.812,0.322,5.906,0.844,9.281,1.566l-0.482,6.269c-3.215-0.724-6.228-1.266-9.04-1.628c-2.814-0.361-5.304-0.542-7.473-0.542
			c-5.062,0-9.101,1.166-12.114,3.495c-3.013,2.332-4.52,5.466-4.52,9.402c0,3.375,1.266,6.047,3.797,8.016
			c2.531,1.97,6.729,3.878,12.596,5.725c3.294,1.046,6.208,2.17,8.739,3.375c2.531,1.206,4.641,2.592,6.328,4.159
			c1.688,1.566,2.972,3.375,3.857,5.424c0.883,2.049,1.326,4.44,1.326,7.172c0,6.026-2.091,10.709-6.268,14.042
			C983.242,364.81,977.417,366.476,969.943,366.476z"/>
		<path fill="#FFFFFF" d="M1023.824,341.887l-25.433-46.165h7.955l18.201,33.147l2.531,5.906h0.603l2.531-5.906l18.201-33.147h7.956
			l-25.312,45.924v23.625h-7.232V341.887z"/>
		<path fill="#FFFFFF" d="M1082.283,366.476c-3.215,0-6.81-0.301-10.788-0.903c-3.978-0.604-7.533-1.345-10.667-2.23l0.482-6.268
			c2.812,0.885,6.126,1.627,9.944,2.229c3.816,0.603,7.251,0.904,10.306,0.904c5.545,0,9.782-1.085,12.716-3.254
			c2.933-2.17,4.4-5.263,4.4-9.281c0-1.929-0.382-3.616-1.145-5.062c-0.765-1.446-1.869-2.731-3.315-3.857
			c-1.446-1.124-3.235-2.148-5.364-3.073c-2.13-0.923-4.52-1.827-7.172-2.713c-3.537-1.043-6.55-2.188-9.04-3.435
			c-2.492-1.245-4.52-2.61-6.087-4.099c-1.567-1.485-2.693-3.194-3.375-5.122c-0.684-1.929-1.024-4.099-1.024-6.509
			c0-5.946,2.109-10.647,6.328-14.103c4.218-3.454,9.902-5.184,17.056-5.184c2.651,0,5.382,0.162,8.196,0.482
			c2.812,0.322,5.906,0.844,9.281,1.566l-0.482,6.269c-3.215-0.724-6.228-1.266-9.04-1.628c-2.814-0.361-5.304-0.542-7.473-0.542
			c-5.062,0-9.101,1.166-12.114,3.495c-3.013,2.332-4.52,5.466-4.52,9.402c0,3.375,1.266,6.047,3.797,8.016
			c2.531,1.97,6.729,3.878,12.596,5.725c3.294,1.046,6.208,2.17,8.739,3.375c2.531,1.206,4.641,2.592,6.328,4.159
			c1.688,1.566,2.972,3.375,3.857,5.424c0.883,2.049,1.326,4.44,1.326,7.172c0,6.026-2.091,10.709-6.268,14.042
			C1095.581,364.81,1089.756,366.476,1082.283,366.476z"/>
		<path fill="#FFFFFF" d="M1134.232,302.11h-21.696v-6.389h50.504v6.389h-21.576v63.16h-7.232V302.11z"/>
		<path fill="#FFFFFF" d="M1196.91,366.234c-19.448,0-29.169-11.891-29.169-35.678c0-23.866,9.722-35.799,29.169-35.799
			c9.562,0,16.794,2.974,21.696,8.92c4.9,5.947,7.353,14.906,7.353,26.879c0,11.894-2.452,20.812-7.353,26.759
			C1213.704,363.263,1206.472,366.234,1196.91,366.234z M1196.91,359.847c7.473,0,12.976-2.351,16.513-7.052
			c3.535-4.7,5.303-12.113,5.303-22.238s-1.789-17.577-5.364-22.359c-3.576-4.779-9.061-7.172-16.453-7.172
			c-7.473,0-12.999,2.371-16.574,7.111c-3.576,4.743-5.364,12.216-5.364,22.42c0,10.206,1.767,17.64,5.304,22.299
			C1183.812,357.517,1189.356,359.847,1196.91,359.847z"/>
		<path fill="#FFFFFF" d="M1233.553,295.722h7.955l12.777,48.576l3.254,12.535h0.603l3.375-12.535l14.344-48.576h7.594l13.5,48.576
			l3.255,12.535h0.723l3.375-12.535l13.62-48.576h7.715l-20.25,69.549h-9.281l-13.62-48.093l-2.652-11.21h-0.603l-2.771,11.21
			l-14.344,48.093h-9.161L1233.553,295.722z"/>
		<path fill="#FFFFFF" d="M1326.244,364.668l24.83-68.946h10.365l24.71,68.946v0.603h-6.991l-7.714-21.094h-30.375l-7.835,21.094
			h-6.99V364.668z M1369.636,338.392l-9.401-25.915l-3.736-10.728h-0.603l-3.616,10.728l-9.643,25.915H1369.636z"/>
		<path fill="#FFFFFF" d="M1397.117,295.722h6.63l36.04,49.901l5.424,8.076l0.482-0.12v-57.857h6.749v69.549h-6.629l-36.04-49.78
			l-5.424-8.197h-0.603v57.978h-6.63V295.722z"/>
		<path fill="#FFFFFF" d="M1471.245,295.722h7.232v69.549h-7.232V295.722z"/>
		<path fill="#FFFFFF" d="M1497.159,295.722h42.67v6.147h-35.438v25.192h32.303v5.905h-32.303v26.036h36.281v6.268h-43.514V295.722z
			"/>
		<path fill="#FFFFFF" d="M1571.406,295.722h7.956l12.776,48.576l3.254,12.535h0.604l3.375-12.535l14.343-48.576h7.594l13.5,48.576
			l3.255,12.535h0.723l3.375-12.535l13.62-48.576h7.715l-20.25,69.549h-9.281l-13.62-48.093l-2.652-11.21h-0.603l-2.771,11.21
			l-14.344,48.093h-9.161L1571.406,295.722z"/>
		<path fill="#FFFFFF" d="M1698.448,276.075h7.474v89.195h-7.474V276.075z"/>
		<path fill="#FFFFFF" d="M1725.207,295.722h9.644l20.611,47.009l4.339,11.21h0.724l4.339-11.21l20.731-47.009h9.522v69.549h-6.75
			v-58.941l-0.603-0.12l-5.785,14.103l-18.201,41.945h-7.232l-18.2-41.945l-5.786-14.103l-0.481,0.12v58.941h-6.871V295.722z"/>
		<path fill="#FFFFFF" d="M1813.799,296.204c3.053-0.562,5.967-0.964,8.738-1.205c2.772-0.241,5.484-0.361,8.137-0.361
			c10.365,0,17.938,1.928,22.721,5.785c4.779,3.857,7.172,9.926,7.172,18.201c0,8.277-2.411,14.324-7.232,18.14
			c-4.821,3.818-12.535,5.726-23.143,5.726c-1.286,0-2.712-0.039-4.279-0.12c-1.566-0.079-3.193-0.2-4.881-0.361v23.263h-7.232
			V296.204z M1831.518,336.463c7.714,0,13.298-1.387,16.754-4.158c3.454-2.772,5.183-7.332,5.183-13.681
			c0-6.269-1.708-10.807-5.122-13.621c-3.417-2.812-8.901-4.219-16.453-4.219c-1.688,0-3.477,0.081-5.364,0.241
			c-1.889,0.162-3.717,0.362-5.483,0.603v34.111c1.365,0.162,3.013,0.322,4.941,0.482
			C1827.901,336.384,1829.749,336.463,1831.518,336.463z"/>
		<path fill="#FFFFFF" d="M1874.306,295.722h7.232v63.281h29.651v6.268h-36.884V295.722z"/>
		<path fill="#FFFFFF" d="M1914.563,364.668l24.83-68.946h10.365l24.71,68.946v0.603h-6.991l-7.714-21.094h-30.375l-7.835,21.094
			h-6.99V364.668z M1957.955,338.392l-9.401-25.915l-3.736-10.728h-0.603l-3.616,10.728l-9.643,25.915H1957.955z"/>
		<path fill="#FFFFFF" d="M1985.437,295.722h6.63l36.04,49.901l5.424,8.076l0.482-0.12v-57.857h6.749v69.549h-6.629l-36.04-49.78
			l-5.424-8.197h-0.603v57.978h-6.63V295.722z"/>
		<path fill="#FFFFFF" d="M2074.029,302.11h-21.696v-6.389h50.504v6.389h-21.576v63.16h-7.231V302.11z"/>
		<path fill="#FFFFFF" d="M2136.706,366.234c-19.447,0-29.169-11.891-29.169-35.678c0-23.866,9.722-35.799,29.169-35.799
			c9.562,0,16.794,2.974,21.696,8.92c4.9,5.947,7.353,14.906,7.353,26.879c0,11.894-2.452,20.812-7.353,26.759
			C2153.5,363.263,2146.268,366.234,2136.706,366.234z M2136.706,359.847c7.473,0,12.977-2.351,16.513-7.052
			c3.535-4.7,5.304-12.113,5.304-22.238s-1.789-17.577-5.363-22.359c-3.577-4.779-9.062-7.172-16.453-7.172
			c-7.474,0-12.999,2.371-16.573,7.111c-3.577,4.743-5.364,12.216-5.364,22.42c0,10.206,1.767,17.64,5.304,22.299
			C2123.607,357.517,2129.151,359.847,2136.706,359.847z"/>
		<path fill="#FFFFFF" d="M2180.94,295.722h7.232v63.281h29.651v6.268h-36.884V295.722z"/>
		<path fill="#FFFFFF" d="M2250.729,366.234c-19.447,0-29.169-11.891-29.169-35.678c0-23.866,9.722-35.799,29.169-35.799
			c9.562,0,16.794,2.974,21.696,8.92c4.9,5.947,7.353,14.906,7.353,26.879c0,11.894-2.452,20.812-7.353,26.759
			C2267.523,363.263,2260.291,366.234,2250.729,366.234z M2250.729,359.847c7.473,0,12.977-2.351,16.513-7.052
			c3.535-4.7,5.304-12.113,5.304-22.238s-1.789-17.577-5.363-22.359c-3.577-4.779-9.062-7.172-16.453-7.172
			c-7.474,0-12.999,2.371-16.573,7.111c-3.577,4.743-5.364,12.216-5.364,22.42c0,10.206,1.767,17.64,5.304,22.299
			C2237.631,357.517,2243.175,359.847,2250.729,359.847z"/>
		<path fill="#FFFFFF" d="M2324.135,366.234c-11.33-0.161-19.629-3.092-24.891-8.799c-5.264-5.704-7.895-14.663-7.895-26.879
			c0-12.295,2.69-21.313,8.075-27.06c5.383-5.745,13.94-8.619,25.674-8.619c2.17,0,4.72,0.142,7.654,0.422
			c2.933,0.283,5.805,0.744,8.618,1.387v6.268c-3.215-0.643-6.048-1.104-8.498-1.386c-2.452-0.281-4.842-0.422-7.172-0.422
			c-4.821,0-8.919,0.562-12.294,1.688c-3.375,1.126-6.147,2.874-8.317,5.243c-2.169,2.371-3.757,5.405-4.761,9.101
			c-1.006,3.696-1.507,8.156-1.507,13.379c0,10.206,2.028,17.64,6.087,22.299c4.057,4.661,10.547,6.991,19.467,6.991
			c1.124,0,2.712-0.079,4.761-0.241c2.049-0.16,3.917-0.401,5.604-0.724v-28.928h6.75v34.231c-3.296,0.645-6.369,1.146-9.221,1.507
			C2329.417,366.054,2326.705,366.234,2324.135,366.234z"/>
		<path fill="#FFFFFF" d="M2357.882,295.722h7.232v69.549h-7.232V295.722z"/>
		<path fill="#FFFFFF" d="M2383.797,295.722h7.232v69.549h-7.232V295.722z"/>
	</g>
</g>
</svg>
