<?xml version="1.0" encoding="utf-8"?>
<!-- Generator: Adobe Illustrator 17.0.0, SVG Export Plug-In . SVG Version: 6.00 Build 0)  -->
<!DOCTYPE svg PUBLIC "-//W3C//DTD SVG 1.1//EN" "http://www.w3.org/Graphics/SVG/1.1/DTD/svg11.dtd">
<svg version="1.1" id="Layer_1" xmlns="http://www.w3.org/2000/svg" xmlns:xlink="http://www.w3.org/1999/xlink" x="0px" y="0px"
	 width="2480px" height="465px" viewBox="0 0 2480 465" enable-background="new 0 0 2480 465" xml:space="preserve">
<rect y="0.154" opacity="0.8" fill="#3E2D4E" width="2480" height="465"/>
<g>
	<g>
		<path fill="#FFFFFF" d="M984.063,104h43.086v5.912h-36.423v30.299h33.199v5.908h-33.199v31.481h37.389v5.908h-44.052V104z"/>
		<path fill="#FFFFFF" d="M1041.007,121.514h5.91l32.125,44.48l4.835,7.199l0.43-0.109v-51.57h6.017v61.994h-5.908l-32.127-44.375
			l-4.835-7.304h-0.537v51.679h-5.91V121.514z"/>
		<path fill="#FFFFFF" d="M1120.623,184.691c-2.508,0-4.944-0.073-7.306-0.214c-2.365-0.145-4.477-0.395-6.34-0.755v-61.885
			c2.936-0.359,5.801-0.646,8.596-0.86c2.793-0.214,5.228-0.323,7.306-0.323c10.672,0,18.497,2.563,23.475,7.684
			c4.978,5.121,7.468,13.196,7.468,24.225c0,11.174-2.67,19.322-8.005,24.443C1140.48,182.129,1132.082,184.691,1120.623,184.691z
			 M1122.019,179.102c8.666,0,15.022-2.111,19.07-6.336c4.046-4.225,6.072-10.961,6.072-20.202c0-9.31-1.899-16.025-5.694-20.146
			c-3.797-4.116-9.851-6.178-18.158-6.178c-1.505,0-3.136,0.073-4.889,0.218c-1.755,0.141-3.457,0.323-5.103,0.537v51.571
			c1.79,0.218,3.329,0.359,4.619,0.432C1119.225,179.07,1120.585,179.102,1122.019,179.102z"/>
		<path fill="#FFFFFF" d="M1190.031,184.368c-17.335,0-26.001-10.601-26.001-31.804c0-21.271,8.666-31.909,26.001-31.909
			c8.523,0,14.97,2.651,19.34,7.95c4.366,5.303,6.554,13.289,6.554,23.959c0,10.601-2.187,18.556-6.554,23.854
			C1205,181.721,1198.554,184.368,1190.031,184.368z M1190.031,178.674c6.661,0,11.566-2.094,14.72-6.287
			c3.152-4.189,4.728-10.795,4.728-19.823c0-9.024-1.596-15.666-4.782-19.928c-3.188-4.262-8.075-6.396-14.665-6.396
			c-6.661,0-11.588,2.115-14.774,6.34c-3.188,4.229-4.78,10.888-4.78,19.984c0,9.1,1.574,15.727,4.728,19.879
			C1178.354,176.596,1183.297,178.674,1190.031,178.674z"/>
		<path fill="#FFFFFF" d="M1229.892,104h6.663v35.888h40.182V104h6.554v79.509h-6.554v-37.603h-40.182v37.603h-6.663V104z"/>
		<path fill="#FFFFFF" d="M1300.482,121.514h38.035v5.48h-31.59v22.454h28.798v5.266h-28.798v23.209h32.341v5.585h-38.786V121.514z"
			/>
		<path fill="#FFFFFF" d="M1374.506,160.086c-1.073,0.214-2.252,0.359-3.543,0.428c-1.291,0.073-2.579,0.109-3.866,0.109
			c-1.364,0-2.74-0.036-4.136-0.109c-1.396-0.069-2.885-0.178-4.459-0.319v23.313h-6.449v-61.567c2.651-0.5,5.23-0.86,7.736-1.073
			c2.506-0.214,4.944-0.323,7.308-0.323c9.31,0,16.078,1.614,20.303,4.835c4.225,3.224,6.34,8.313,6.34,15.258
			c0,4.944-1.073,8.902-3.224,11.873c-2.147,2.974-5.476,5.105-9.992,6.392l14.613,24.605h-6.982L1374.506,160.086z
			 M1367.739,155.252c7.018,0,12.05-1.13,15.097-3.386c3.043-2.256,4.564-5.997,4.564-11.227c0-5.157-1.521-8.882-4.564-11.174
			c-3.047-2.292-7.934-3.438-14.665-3.438c-1.433,0-2.99,0.073-4.673,0.214c-1.683,0.145-3.35,0.323-4.996,0.541v27.934
			c1.215,0.145,2.7,0.266,4.459,0.375C1364.712,155.199,1366.306,155.252,1367.739,155.252z"/>
		<path fill="#FFFFFF" d="M1429.947,184.368c-17.337,0-26.001-10.601-26.001-31.804c0-21.271,8.664-31.909,26.001-31.909
			c8.523,0,14.968,2.651,19.338,7.95c4.371,5.303,6.554,13.289,6.554,23.959c0,10.601-2.183,18.556-6.554,23.854
			C1444.915,181.721,1438.47,184.368,1429.947,184.368z M1429.947,178.674c6.663,0,11.566-2.094,14.718-6.287
			c3.152-4.189,4.73-10.795,4.73-19.823c0-9.024-1.594-15.666-4.782-19.928c-3.188-4.262-8.075-6.396-14.665-6.396
			c-6.663,0-11.586,2.115-14.774,6.34c-3.188,4.229-4.782,10.888-4.782,19.984c0,9.1,1.578,15.727,4.73,19.879
			C1418.272,176.596,1423.212,178.674,1429.947,178.674z"/>
	</g>
	<g>
		<path fill="#FFFFFF" d="M632.473,319.326l9.883-30.085l3.761-12.357h0.646l3.759,12.357l9.885,30.085H632.473 M651.167,270.866
			h-9.455l-25.571,78.863v0.645h6.447l8.166-25.141h31.373l8.273,25.141h6.34v-0.645L651.167,270.866"/>
		<path fill="#FFFFFF" d="M703.922,287.307c-6.376,0-11.443,1.542-15.204,4.621c-3.761,3.079-5.642,7.268-5.642,12.571
			c0,2.147,0.305,4.08,0.914,5.799c0.607,1.719,1.613,3.245,3.009,4.568c1.397,1.324,3.204,2.543,5.426,3.653
			c2.22,1.11,4.905,2.13,8.059,3.063c2.363,0.787,4.493,1.594,6.392,2.417c1.897,0.823,3.491,1.735,4.78,2.74
			c1.289,1.001,2.274,2.147,2.956,3.438c0.68,1.287,1.021,2.793,1.021,4.512c0,3.583-1.31,6.34-3.923,8.273
			c-2.615,1.933-6.392,2.902-11.336,2.902c-2.722,0-5.785-0.271-9.185-0.807c-3.404-0.537-6.358-1.199-8.864-1.985l-0.43,5.585
			c2.793,0.791,5.962,1.449,9.508,1.99c3.545,0.537,6.751,0.803,9.617,0.803c6.661,0,11.854-1.485,15.579-4.459
			c3.723-2.97,5.588-7.143,5.588-12.514c0-2.438-0.396-4.568-1.183-6.392c-0.789-1.828-1.935-3.438-3.438-4.839
			c-1.503-1.397-3.384-2.631-5.642-3.705c-2.256-1.074-4.853-2.078-7.788-3.01c-5.23-1.647-8.971-3.345-11.227-5.101
			c-2.258-1.756-3.386-4.137-3.386-7.147c0-3.507,1.344-6.3,4.03-8.378s6.286-3.115,10.799-3.115c1.933,0,4.152,0.158,6.661,0.48
			c2.506,0.323,5.191,0.807,8.057,1.453l0.43-5.589c-3.006-0.642-5.765-1.11-8.273-1.396
			C708.719,287.449,706.285,287.307,703.922,287.307"/>
		<polyline fill="#FFFFFF" points="778.058,288.381 770.965,288.381 754.742,317.929 752.487,323.192 751.95,323.192 
			749.692,317.929 733.469,288.381 726.376,288.381 749.048,329.532 749.048,350.375 755.495,350.375 755.495,329.318 
			778.058,288.381 		"/>
		<path fill="#FFFFFF" d="M804.059,287.307c-6.376,0-11.443,1.542-15.204,4.621c-3.761,3.079-5.642,7.268-5.642,12.571
			c0,2.147,0.305,4.08,0.914,5.799c0.608,1.719,1.613,3.245,3.009,4.568c1.396,1.324,3.204,2.543,5.426,3.653
			c2.22,1.11,4.905,2.13,8.059,3.063c2.362,0.787,4.493,1.594,6.392,2.417c1.897,0.823,3.491,1.735,4.78,2.74
			c1.289,1.001,2.274,2.147,2.956,3.438c0.68,1.287,1.021,2.793,1.021,4.512c0,3.583-1.31,6.34-3.923,8.273
			c-2.615,1.933-6.392,2.902-11.336,2.902c-2.722,0-5.785-0.271-9.185-0.807c-3.404-0.537-6.358-1.199-8.864-1.985l-0.43,5.585
			c2.793,0.791,5.962,1.449,9.508,1.99c3.545,0.537,6.751,0.803,9.617,0.803c6.661,0,11.854-1.485,15.579-4.459
			c3.723-2.97,5.587-7.143,5.587-12.514c0-2.438-0.395-4.568-1.182-6.392c-0.789-1.828-1.935-3.438-3.438-4.839
			c-1.503-1.397-3.384-2.631-5.642-3.705c-2.255-1.074-4.853-2.078-7.788-3.01c-5.23-1.647-8.971-3.345-11.227-5.101
			c-2.258-1.756-3.386-4.137-3.386-7.147c0-3.507,1.344-6.3,4.03-8.378s6.286-3.115,10.799-3.115c1.933,0,4.152,0.158,6.661,0.48
			c2.506,0.323,5.191,0.807,8.057,1.453l0.43-5.589c-3.006-0.642-5.765-1.11-8.273-1.396
			C808.855,287.449,806.422,287.307,804.059,287.307"/>
		<polyline fill="#FFFFFF" points="873.142,288.381 828.123,288.381 828.123,294.075 847.464,294.075 847.464,350.375 
			853.91,350.375 853.91,294.075 873.142,294.075 873.142,288.381 		"/>
		<path fill="#FFFFFF" d="M903.334,345.541c-6.733,0-11.677-2.078-14.827-6.231c-3.154-4.153-4.728-10.779-4.728-19.879
			c0-9.096,1.592-15.755,4.78-19.984c3.186-4.225,8.114-6.34,14.774-6.34c6.59,0,11.477,2.135,14.665,6.396
			c3.186,4.261,4.782,10.904,4.782,19.927c0,9.028-1.576,15.634-4.728,19.823C914.9,343.446,909.995,345.541,903.334,345.541
			 M903.334,287.521c-17.335,0-26.001,10.638-26.001,31.909c0,21.203,8.666,31.805,26.001,31.805c8.523,0,14.97-2.647,19.341-7.95
			c4.366-5.299,6.554-13.253,6.554-23.854c0-10.67-2.187-18.656-6.554-23.959C918.304,290.173,911.857,287.521,903.334,287.521"/>
		<polyline fill="#FFFFFF" points="1018.083,288.381 1011.207,288.381 999.066,331.679 996.057,342.853 995.413,342.853 
			992.512,331.679 980.478,288.381 973.71,288.381 960.923,331.679 957.915,342.853 957.378,342.853 954.477,331.679 
			943.088,288.381 935.996,288.381 953.294,350.375 961.46,350.375 974.247,307.506 976.717,297.513 977.256,297.513 
			979.618,307.506 991.759,350.375 1000.032,350.375 1018.083,288.381 		"/>
		<path fill="#FFFFFF" d="M1033.233,326.416l8.596-23.1l3.222-9.564h0.537l3.331,9.564l8.382,23.1H1033.233 M1049.995,288.381
			h-9.241l-22.133,61.457v0.537h6.233l6.984-18.802h27.075l6.876,18.802h6.231v-0.537L1049.995,288.381"/>
		<polyline fill="#FFFFFF" points="1131.111,288.381 1125.094,288.381 1125.094,339.951 1124.665,340.061 1119.83,332.861 
			1087.705,288.381 1081.795,288.381 1081.795,350.375 1087.705,350.375 1087.705,298.696 1088.241,298.696 1093.076,306 
			1125.203,350.375 1131.111,350.375 1131.111,288.381 		"/>
		<polyline fill="#FFFFFF" points="1154.318,288.381 1147.871,288.381 1147.871,350.375 1154.318,350.375 1154.318,288.381 		"/>
		<polyline fill="#FFFFFF" points="1209.006,288.381 1170.971,288.381 1170.971,350.375 1209.758,350.375 1209.758,344.79 
			1177.418,344.79 1177.418,321.581 1206.213,321.581 1206.213,316.315 1177.418,316.315 1177.418,293.861 1209.006,293.861 
			1209.006,288.381 		"/>
		<polyline fill="#FFFFFF" points="1319.24,288.381 1312.363,288.381 1300.224,331.679 1297.213,342.853 1296.571,342.853 
			1293.67,331.679 1281.636,288.381 1274.868,288.381 1262.079,331.679 1259.073,342.853 1258.537,342.853 1255.635,331.679 
			1244.247,288.381 1237.152,288.381 1254.453,350.375 1262.617,350.375 1275.405,307.506 1277.875,297.513 1278.411,297.513 
			1280.776,307.506 1292.916,350.375 1301.188,350.375 1319.24,288.381 		"/>
		<polyline fill="#FFFFFF" points="1393.482,270.866 1350.398,270.866 1350.398,350.375 1394.45,350.375 1394.45,344.467 
			1357.061,344.467 1357.061,312.986 1390.257,312.986 1390.257,307.078 1357.061,307.078 1357.061,276.779 1393.482,276.779 
			1393.482,270.866 		"/>
		<polyline fill="#FFFFFF" points="1456.659,288.381 1450.641,288.381 1450.641,339.951 1450.21,340.061 1445.375,332.861 
			1413.252,288.381 1407.34,288.381 1407.34,350.375 1413.252,350.375 1413.252,298.696 1413.789,298.696 1418.623,306 
			1450.751,350.375 1456.659,350.375 1456.659,288.381 		"/>
		<path fill="#FFFFFF" d="M1488.354,345.969c-1.437,0-2.796-0.032-4.084-0.105c-1.291-0.073-2.828-0.214-4.621-0.432v-51.57
			c1.647-0.214,3.35-0.396,5.105-0.537c1.752-0.146,3.382-0.218,4.887-0.218c8.309,0,14.363,2.062,18.16,6.178
			c3.793,4.121,5.694,10.835,5.694,20.145c0,9.241-2.026,15.977-6.074,20.202C1503.374,343.858,1497.018,345.969,1488.354,345.969
			 M1489.214,287.521c-2.079,0-4.516,0.109-7.309,0.323c-2.793,0.214-5.658,0.501-8.596,0.859v61.886
			c1.865,0.359,3.975,0.609,6.34,0.754c2.365,0.141,4.798,0.214,7.309,0.214c11.457,0,19.855-2.563,25.194-7.683
			c5.335-5.121,8.002-13.269,8.002-24.444c0-11.029-2.49-19.104-7.466-24.225C1507.708,290.084,1499.883,287.521,1489.214,287.521"
			/>
		<path fill="#FFFFFF" d="M1556.365,345.541c-6.735,0-11.678-2.078-14.827-6.231c-3.156-4.153-4.729-10.779-4.729-19.879
			c0-9.096,1.594-15.755,4.782-19.984c3.184-4.225,8.111-6.34,14.774-6.34c6.59,0,11.477,2.135,14.666,6.396
			c3.184,4.261,4.782,10.904,4.782,19.927c0,9.028-1.578,15.634-4.729,19.823C1567.931,343.446,1563.024,345.541,1556.365,345.541
			 M1556.365,287.521c-17.336,0-26.001,10.638-26.001,31.909c0,21.203,8.665,31.805,26.001,31.805c8.523,0,14.968-2.647,19.339-7.95
			c4.366-5.299,6.554-13.253,6.554-23.854c0-10.67-2.187-18.656-6.554-23.959C1571.333,290.173,1564.888,287.521,1556.365,287.521"
			/>
		<path fill="#FFFFFF" d="M1610.728,345.969c-1.432,0-2.793-0.032-4.084-0.105c-1.287-0.073-2.829-0.214-4.617-0.432v-51.57
			c1.647-0.214,3.345-0.396,5.101-0.537c1.756-0.146,3.386-0.218,4.891-0.218c8.305,0,14.359,2.062,18.156,6.178
			c3.798,4.121,5.694,10.835,5.694,20.145c0,9.241-2.026,15.977-6.069,20.202C1625.753,343.858,1619.397,345.969,1610.728,345.969
			 M1611.588,287.521c-2.078,0-4.512,0.109-7.304,0.323c-2.797,0.214-5.662,0.501-8.596,0.859v61.886
			c1.86,0.359,3.975,0.609,6.34,0.754c2.361,0.141,4.798,0.214,7.304,0.214c11.461,0,19.859-2.563,25.194-7.683
			c5.335-5.121,8.006-13.269,8.006-24.444c0-11.029-2.49-19.104-7.47-24.225C1630.087,290.084,1622.262,287.521,1611.588,287.521"/>
		<path fill="#FFFFFF" d="M1678.74,345.541c-6.731,0-11.675-2.078-14.827-6.231c-3.152-4.153-4.726-10.779-4.726-19.879
			c0-9.096,1.59-15.755,4.778-19.984c3.188-4.225,8.116-6.34,14.774-6.34c6.59,0,11.477,2.135,14.665,6.396
			c3.188,4.261,4.782,10.904,4.782,19.927c0,9.028-1.574,15.634-4.725,19.823C1690.306,343.446,1685.403,345.541,1678.74,345.541
			 M1678.74,287.521c-17.333,0-26.001,10.638-26.001,31.909c0,21.203,8.668,31.805,26.001,31.805c8.523,0,14.972-2.647,19.343-7.95
			c4.366-5.299,6.553-13.253,6.553-23.854c0-10.67-2.187-18.656-6.553-23.959C1693.712,290.173,1687.263,287.521,1678.74,287.521"/>
		<polyline fill="#FFFFFF" points="1767.486,288.381 1761.469,288.381 1761.469,339.951 1761.041,340.061 1756.206,332.861 
			1724.079,288.381 1718.171,288.381 1718.171,350.375 1724.079,350.375 1724.079,298.696 1724.616,298.696 1729.451,306 
			1761.578,350.375 1767.486,350.375 1767.486,288.381 		"/>
		<path fill="#FFFFFF" d="M1809.819,287.63c-9.956,0-17.244,2.542-21.865,7.627c-4.621,5.085-6.929,13.144-6.929,24.173
			c0,10.888,2.345,18.895,7.038,24.016c4.69,5.121,11.978,7.716,21.865,7.789c2.22,0,4.351-0.146,6.392-0.432
			c2.042-0.286,3.883-0.605,5.533-0.964v-5.371c-0.859,0.141-1.828,0.266-2.902,0.376c-1.073,0.104-2.151,0.214-3.224,0.323
			c-1.074,0.105-2.094,0.197-3.063,0.266c-0.964,0.073-1.808,0.109-2.522,0.109c-7.809,0-13.503-2.058-17.083-6.179
			c-3.583-4.116-5.375-10.763-5.375-19.932c0-4.725,0.432-8.757,1.291-12.086s2.22-6.033,4.084-8.111
			c1.86-2.079,4.241-3.6,7.143-4.568c2.901-0.964,6.392-1.449,10.476-1.449c1.788,0,3.668,0.089,5.642,0.271
			c1.969,0.177,3.814,0.412,5.533,0.698v-5.481c-2.078-0.359-4.156-0.625-6.231-0.807
			C1813.544,287.719,1811.606,287.63,1809.819,287.63"/>
		<path fill="#FFFFFF" d="M1840.977,288.381h-6.449v46.522c0,2.793-0.105,5.319-0.323,7.575c-0.214,2.256-0.609,4.48-1.182,6.663
			c-0.573,2.183-1.34,4.439-2.308,6.768c-0.969,2.328-2.203,4.924-3.709,7.788l4.298,2.256c1.719-2.865,3.208-5.569,4.459-8.111
			c1.255-2.543,2.256-5.032,3.01-7.466c0.751-2.433,1.303-4.871,1.662-7.304c0.359-2.438,0.541-5.016,0.541-7.736V288.381"/>
		<polyline fill="#FFFFFF" points="1863.859,288.381 1857.414,288.381 1857.414,350.375 1863.859,350.375 1863.859,288.381 		"/>
	</g>
</g>
</svg>
