<?xml version="1.0" encoding="utf-8"?>
<!-- Generator: Adobe Illustrator 17.0.0, SVG Export Plug-In . SVG Version: 6.00 Build 0)  -->
<!DOCTYPE svg PUBLIC "-//W3C//DTD SVG 1.1//EN" "http://www.w3.org/Graphics/SVG/1.1/DTD/svg11.dtd">
<svg version="1.1" id="Layer_1" xmlns="http://www.w3.org/2000/svg" xmlns:xlink="http://www.w3.org/1999/xlink" x="0px" y="0px"
	 width="2480px" height="465px" viewBox="0 0 2480 465" enable-background="new 0 0 2480 465" xml:space="preserve">
<rect y="0.154" opacity="0.8" fill="#3E2D4E" width="2480" height="465"/>
<g>
	<g>
		<path fill="#FFFFFF" d="M760.588,186.401h6.914v37.225h41.702v-37.225h6.802v82.475h-6.802v-39.008h-41.702v39.008h-6.914V186.401
			z"/>
		<path fill="#FFFFFF" d="M832.885,199.089h5.85v69.786h-5.85V199.089z"/>
		<path fill="#FFFFFF" d="M880.719,269.818c-10.253-0.063-17.77-2.985-22.549-8.77c-4.781-5.783-7.17-14.773-7.17-26.971
			c0-6.225,0.597-11.6,1.792-16.126c1.194-4.527,3.019-8.252,5.472-11.175s5.598-5.076,9.435-6.46
			c3.836-1.382,8.397-2.074,13.681-2.074c1.887,0,4.135,0.157,6.746,0.471c2.609,0.315,5.142,0.755,7.595,1.32v5.187
			c-2.769-0.628-5.269-1.068-7.5-1.32c-2.233-0.251-4.356-0.378-6.369-0.378c-4.403,0-8.177,0.566-11.322,1.697
			c-3.146,1.131-5.708,2.923-7.689,5.375c-1.981,2.452-3.444,5.612-4.387,9.478c-0.944,3.866-1.416,8.534-1.416,14.004
			c0,10.562,1.902,18.281,5.708,23.151c3.805,4.873,9.827,7.309,18.067,7.309c1.132,0,2.548-0.062,4.246-0.188
			s3.458-0.314,5.283-0.566v-30.367h5.567v34.61c-2.958,0.566-5.661,1.005-8.114,1.321
			C885.342,269.661,882.984,269.818,880.719,269.818z"/>
		<path fill="#FFFFFF" d="M909.212,199.089h5.85v69.786h-5.85V199.089z"/>
		<path fill="#FFFFFF" d="M930.535,199.089h37.833v5.187h-31.984v26.594h29.154v5.187h-29.154v27.631h32.833v5.187h-38.683V199.089z
			"/>
		<path fill="#FFFFFF" d="M980.917,199.089h5.566l33.305,51.868l4.717,8.11h0.472v-59.978h5.472v69.786h-5.661l-33.211-51.679
			l-4.717-8.204h-0.566v59.883h-5.377V199.089z"/>
		<path fill="#FFFFFF" d="M1045.922,199.089h5.85v69.786h-5.85V199.089z"/>
		<path fill="#FFFFFF" d="M1062.433,264.349l33.399-59.507v-0.471h-32.645v-5.282h39.815v4.433l-33.494,59.695v0.471h34.154v5.187
			h-41.23V264.349z"/>
		<path fill="#FFFFFF" d="M1107.343,268.309l22.455-69.22h8.303l22.455,69.22v0.566h-5.567l-7.265-22.067h-27.55l-7.171,22.067
			h-5.661V268.309z M1146.214,241.621l-8.68-26.406l-3.302-10.845h-0.566l-3.302,10.845l-8.68,26.406H1146.214z"/>
		<path fill="#FFFFFF" d="M1194.333,269.818c-10.128-0.127-17.565-3.048-22.314-8.77c-4.75-5.72-7.123-14.712-7.123-26.971
			c0-6.286,0.566-11.678,1.698-16.173c1.132-4.495,2.909-8.205,5.331-11.129c2.421-2.923,5.473-5.076,9.152-6.46
			c3.68-1.382,8.066-2.074,13.161-2.074c1.698,0,3.569,0.11,5.614,0.33c2.043,0.221,4.104,0.488,6.18,0.801v5.187
			c-1.698-0.314-3.523-0.566-5.473-0.755c-1.95-0.188-3.807-0.283-5.566-0.283c-4.278,0-7.925,0.566-10.944,1.697
			c-3.02,1.131-5.505,2.923-7.454,5.375c-1.95,2.452-3.381,5.612-4.292,9.478c-0.913,3.866-1.368,8.534-1.368,14.004
			c0,10.625,1.902,18.359,5.708,23.199c3.805,4.841,9.732,7.261,17.784,7.261c0.628,0,1.431-0.031,2.406-0.095
			c0.975-0.061,1.996-0.142,3.066-0.235c1.068-0.095,2.138-0.204,3.208-0.33c1.068-0.126,2.043-0.283,2.925-0.472v4.999
			c-1.637,0.44-3.444,0.786-5.425,1.038C1198.626,269.691,1196.534,269.818,1194.333,269.818z"/>
		<path fill="#FFFFFF" d="M1209.523,283.87c1.51-3.27,2.768-6.21,3.774-8.818c1.005-2.609,1.808-5.125,2.405-7.544
			c0.598-2.42,1.006-4.887,1.227-7.403c0.22-2.513,0.331-5.343,0.331-8.487v-52.528h5.85v52.811c0,3.017-0.175,5.91-0.52,8.676
			c-0.347,2.767-0.912,5.517-1.698,8.252c-0.787,2.734-1.793,5.517-3.02,8.346c-1.226,2.829-2.688,5.783-4.387,8.865
			L1209.523,283.87z"/>
		<path fill="#FFFFFF" d="M1231.317,268.309l22.456-69.22h8.303l22.455,69.22v0.566h-5.566l-7.266-22.067h-27.55l-7.17,22.067
			h-5.661V268.309z M1270.189,241.621l-8.681-26.406l-3.302-10.845h-0.566l-3.302,10.845l-8.681,26.406H1270.189z"/>
		<path fill="#FFFFFF" d="M1333.59,269.818c-8.618,0-15.096-2.97-19.436-8.912c-4.34-5.941-6.511-14.884-6.511-26.829
			c0-12.072,2.171-21.077,6.511-27.019c4.34-5.942,10.817-8.912,19.436-8.912c8.617,0,15.096,2.987,19.436,8.959
			c4.341,5.974,6.511,14.964,6.511,26.972c0,11.882-2.187,20.811-6.558,26.783C1348.607,266.833,1342.144,269.818,1333.59,269.818z
			 M1333.59,264.631c6.855,0,11.902-2.467,15.143-7.403c3.239-4.934,4.859-12.651,4.859-23.151c0-10.499-1.637-18.248-4.906-23.246
			c-3.271-4.999-8.303-7.498-15.096-7.498c-6.856,0-11.904,2.468-15.143,7.403c-3.24,4.936-4.859,12.717-4.859,23.341
			c0,10.562,1.619,18.295,4.859,23.199C1321.686,262.179,1326.734,264.631,1333.59,264.631z"/>
		<path fill="#FFFFFF" d="M1384.727,270.29c-2.391,0-4.687-0.079-6.887-0.235c-2.203-0.158-4.215-0.393-6.039-0.708v-69.786
			c2.956-0.439,5.803-0.785,8.539-1.037c2.736-0.251,5.142-0.378,7.218-0.378c10.566,0,18.334,2.909,23.304,8.723
			c4.968,5.816,7.454,14.886,7.454,27.207c0,6.287-0.661,11.709-1.981,16.268c-1.321,4.558-3.35,8.315-6.086,11.269
			c-2.736,2.956-6.212,5.139-10.426,6.554C1395.609,269.583,1390.577,270.29,1384.727,270.29z M1386.048,265.102
			c8.931,0,15.535-2.513,19.813-7.544c4.276-5.029,6.415-12.856,6.415-23.481c0-10.751-1.95-18.562-5.85-23.435
			c-3.9-4.871-10.095-7.308-18.586-7.308c-1.637,0-3.35,0.063-5.143,0.188c-1.793,0.127-3.507,0.347-5.142,0.66v60.261
			c1.698,0.252,3.208,0.425,4.528,0.519C1383.407,265.056,1384.727,265.102,1386.048,265.102z"/>
		<path fill="#FFFFFF" d="M1444.698,268.207l26.538-81.806h9.812l26.538,81.806v0.669h-6.579l-8.586-26.08h-32.559l-8.475,26.08
			h-6.69V268.207z M1490.637,236.665l-10.258-31.206l-3.902-12.817h-0.67l-3.902,12.817l-10.258,31.206H1490.637z"/>
		<path fill="#FFFFFF" d="M1550.214,270.29c-2.391,0-4.687-0.079-6.887-0.235c-2.203-0.158-4.215-0.393-6.039-0.708v-69.786
			c2.956-0.439,5.803-0.785,8.539-1.037c2.736-0.251,5.142-0.378,7.218-0.378c10.566,0,18.334,2.909,23.304,8.723
			c4.968,5.816,7.454,14.886,7.454,27.207c0,6.287-0.661,11.709-1.981,16.268c-1.321,4.558-3.35,8.315-6.086,11.269
			c-2.736,2.956-6.212,5.139-10.426,6.554C1561.095,269.583,1556.063,270.29,1550.214,270.29z M1551.535,265.102
			c8.931,0,15.535-2.513,19.813-7.544c4.276-5.029,6.415-12.856,6.415-23.481c0-10.751-1.95-18.562-5.85-23.435
			c-3.9-4.871-10.095-7.308-18.586-7.308c-1.637,0-3.35,0.063-5.143,0.188c-1.793,0.127-3.507,0.347-5.142,0.66v60.261
			c1.698,0.252,3.208,0.425,4.528,0.519C1548.893,265.056,1550.214,265.102,1551.535,265.102z"/>
		<path fill="#FFFFFF" d="M1618.804,269.818c-8.618,0-15.096-2.97-19.436-8.912c-4.34-5.941-6.511-14.884-6.511-26.829
			c0-12.072,2.171-21.077,6.511-27.019c4.34-5.942,10.817-8.912,19.436-8.912c8.617,0,15.096,2.987,19.436,8.959
			c4.341,5.974,6.511,14.964,6.511,26.972c0,11.882-2.187,20.811-6.558,26.783C1633.821,266.833,1627.358,269.818,1618.804,269.818z
			 M1618.804,264.631c6.855,0,11.902-2.467,15.143-7.403c3.239-4.934,4.859-12.651,4.859-23.151c0-10.499-1.637-18.248-4.906-23.246
			c-3.271-4.999-8.303-7.498-15.096-7.498c-6.856,0-11.904,2.468-15.143,7.403c-3.24,4.936-4.859,12.717-4.859,23.341
			c0,10.562,1.619,18.295,4.859,23.199C1606.9,262.179,1611.948,264.631,1618.804,264.631z"/>
		<path fill="#FFFFFF" d="M1676.374,263.525l39.472-70.326v-0.557h-38.58v-6.241h47.055v5.239l-39.584,70.548v0.557h40.364v6.13
			h-48.727V263.525z"/>
	</g>
</g>
</svg>
