<?xml version="1.0" encoding="utf-8"?>
<!-- Generator: Adobe Illustrator 17.0.0, SVG Export Plug-In . SVG Version: 6.00 Build 0)  -->
<!DOCTYPE svg PUBLIC "-//W3C//DTD SVG 1.1//EN" "http://www.w3.org/Graphics/SVG/1.1/DTD/svg11.dtd">
<svg version="1.1" id="Layer_1" xmlns="http://www.w3.org/2000/svg" xmlns:xlink="http://www.w3.org/1999/xlink" x="0px" y="0px"
	 width="2480px" height="3508px" viewBox="0 0 2480 3508" enable-background="new 0 0 2480 3508" xml:space="preserve">
<pattern  x="0" y="0" width="160" height="160" patternUnits="userSpaceOnUse" id="DP-Pattern" viewBox="0 0 160 160" overflow="visible">
	<g>
		<polygon fill="none" points="159.532,-180.472 319.532,-180.472 319.532,-20.472 159.532,-20.472 		"/>
		<g>
			<polygon fill="#3E2D4E" points="320,-20 160,-20 160,-180 320,-180 			"/>
			<g>
				<defs>
					<rect id="SVGID_1_" x="160" y="-180" width="160" height="160"/>
				</defs>
				<clipPath id="SVGID_2_">
					<use xlink:href="#SVGID_1_"  overflow="visible"/>
				</clipPath>
				<g clip-path="url(#SVGID_2_)">
					<polygon opacity="0.4" fill="#FFFFFF" points="160,-180 160,-140 186.667,-160 					"/>
					<polygon opacity="0.6" fill="#FFFFFF" points="160,-140 160,-100 186.667,-120 					"/>
					<polygon opacity="0.1" fill="#FFFFFF" points="160,-100 160,-60 186.667,-80 					"/>
					<polygon opacity="0.2" fill="#FFFFFF" points="160,-60 160,-20 186.667,-40 					"/>
					<polygon opacity="0.5" fill="#FFFFFF" points="213.333,-180 213.333,-140 186.667,-160 					"/>
					<polygon opacity="0.4" fill="#FFFFFF" points="213.333,-140 213.333,-100 186.667,-120 					"/>
					<polygon opacity="0.1" fill="#FFFFFF" points="186.667,-200 186.667,-160 160,-180 					"/>
					<polygon opacity="0.2" fill="#FFFFFF" points="186.667,-160 186.667,-120 160,-140 					"/>
					<polygon opacity="0.5" fill="#FFFFFF" points="186.667,-120 186.667,-80 160,-100 					"/>
					<polygon opacity="0.4" fill="#FFFFFF" points="186.667,-80 186.667,-40 160,-60 					"/>
					<polygon opacity="0.1" fill="#FFFFFF" points="186.667,-40 186.667,0 160,-20 					"/>
					<polygon opacity="0.4" fill="#FFFFFF" points="186.667,-200 186.667,-160 213.333,-180 					"/>
					<polygon opacity="0.4" fill="#FFFFFF" points="186.667,-160 186.667,-120 213.333,-140 					"/>
					<polygon opacity="0.4" fill="#FFFFFF" points="186.667,-120 186.667,-80 213.333,-100 					"/>
					<polygon opacity="0.2" fill="#FFFFFF" points="186.667,-80 186.667,-40 213.333,-60 					"/>
					<polygon opacity="0.4" fill="#FFFFFF" points="186.667,-40 186.667,0 213.333,-20 					"/>
					<polygon opacity="0.6" fill="#FFFFFF" points="213.333,-100 213.333,-60 186.667,-80 					"/>
					<polygon opacity="0.4" fill="#FFFFFF" points="213.333,-60 213.333,-20 186.667,-40 					"/>
					<polygon opacity="0.4" fill="#FFFFFF" points="213.333,-180 213.333,-140 240,-160 					"/>
					<polygon opacity="0.6" fill="#FFFFFF" points="213.333,-140 213.333,-100 240,-120 					"/>
					<polygon opacity="0.1" fill="#FFFFFF" points="213.333,-100 213.333,-60 240,-80 					"/>
					<polygon opacity="0.2" fill="#FFFFFF" points="213.333,-60 213.333,-20 240,-40 					"/>
					<polygon opacity="0.5" fill="#FFFFFF" points="266.667,-180 266.667,-140 240,-160 					"/>
					<polygon opacity="0.4" fill="#FFFFFF" points="266.667,-140 266.667,-100 240,-120 					"/>
					<polygon opacity="0.1" fill="#FFFFFF" points="240,-200 240,-160 213.333,-180 					"/>
					<polygon opacity="0.2" fill="#FFFFFF" points="240,-160 240,-120 213.333,-140 					"/>
					<polygon opacity="0.5" fill="#FFFFFF" points="240,-120 240,-80 213.333,-100 					"/>
					<polygon opacity="0.2" fill="#FFFFFF" points="240,-80 240,-40 213.333,-60 					"/>
					<polygon opacity="0.1" fill="#FFFFFF" points="240,-40 240,0 213.333,-20 					"/>
					<polygon opacity="0.4" fill="#FFFFFF" points="240,-200 240,-160 266.667,-180 					"/>
					<polygon opacity="0.4" fill="#FFFFFF" points="240,-160 240,-120 266.667,-140 					"/>
					<polygon opacity="0.4" fill="#FFFFFF" points="240,-120 240,-80 266.667,-100 					"/>
					<polygon opacity="0.2" fill="#FFFFFF" points="240,-80 240,-40 266.667,-60 					"/>
					<polygon opacity="0.4" fill="#FFFFFF" points="240,-40 240,0 266.667,-20 					"/>
					<polygon opacity="0.6" fill="#FFFFFF" points="266.667,-100 266.667,-60 240,-80 					"/>
					<polygon opacity="0.4" fill="#FFFFFF" points="266.667,-60 266.667,-20 240,-40 					"/>
					<polygon opacity="0.4" fill="#FFFFFF" points="266.667,-180 266.667,-140 293.333,-160 					"/>
					<polygon opacity="0.6" fill="#FFFFFF" points="266.667,-140 266.667,-100 293.333,-120 					"/>
					<polygon opacity="0.1" fill="#FFFFFF" points="266.667,-100 266.667,-60 293.333,-80 					"/>
					<polygon opacity="0.2" fill="#FFFFFF" points="266.667,-60 266.667,-20 293.333,-40 					"/>
					<polygon opacity="0.5" fill="#FFFFFF" points="320,-180 320,-140 293.333,-160 					"/>
					<polygon opacity="0.4" fill="#FFFFFF" points="320,-140 320,-100 293.333,-120 					"/>
					<polygon opacity="0.1" fill="#FFFFFF" points="293.333,-200 293.333,-160 266.667,-180 					"/>
					<polygon opacity="0.2" fill="#FFFFFF" points="293.333,-160 293.333,-120 266.667,-140 					"/>
					<polygon opacity="0.5" fill="#FFFFFF" points="293.333,-120 293.333,-80 266.667,-100 					"/>
					<polygon opacity="0.4" fill="#FFFFFF" points="293.333,-80 293.333,-40 266.667,-60 					"/>
					<polygon opacity="0.1" fill="#FFFFFF" points="293.333,-40 293.333,0 266.667,-20 					"/>
					<polygon opacity="0.4" fill="#FFFFFF" points="293.333,-200 293.333,-160 320,-180 					"/>
					<polygon opacity="0.4" fill="#FFFFFF" points="293.333,-160 293.333,-120 320,-140 					"/>
					<polygon opacity="0.4" fill="#FFFFFF" points="293.333,-120 293.333,-80 320,-100 					"/>
					<polygon opacity="0.2" fill="#FFFFFF" points="293.333,-80 293.333,-40 320,-60 					"/>
					<polygon opacity="0.4" fill="#FFFFFF" points="293.333,-40 293.333,0 320,-20 					"/>
					<polygon opacity="0.6" fill="#FFFFFF" points="320,-100 320,-60 293.333,-80 					"/>
					<polygon opacity="0.4" fill="#FFFFFF" points="320,-60 320,-20 293.333,-40 					"/>
				</g>
			</g>
		</g>
		<g>
			<polygon fill="#3E2D4E" points="160,-20 0,-20 0,-180 160,-180 			"/>
			<g>
				<defs>
					<rect id="SVGID_3_" y="-180" width="160" height="160"/>
				</defs>
				<clipPath id="SVGID_4_">
					<use xlink:href="#SVGID_3_"  overflow="visible"/>
				</clipPath>
				<g clip-path="url(#SVGID_4_)">
					<polygon opacity="0.5" fill="#FFFFFF" points="160,-180 160,-140 133.333,-160 					"/>
					<polygon opacity="0.4" fill="#FFFFFF" points="160,-140 160,-100 133.333,-120 					"/>
					<polygon opacity="0.4" fill="#FFFFFF" points="133.333,-200 133.333,-160 160,-180 					"/>
					<polygon opacity="0.4" fill="#FFFFFF" points="133.333,-160 133.333,-120 160,-140 					"/>
					<polygon opacity="0.4" fill="#FFFFFF" points="133.333,-120 133.333,-80 160,-100 					"/>
					<polygon opacity="0.2" fill="#FFFFFF" points="133.333,-80 133.333,-40 160,-60 					"/>
					<polygon opacity="0.4" fill="#FFFFFF" points="133.333,-40 133.333,0 160,-20 					"/>
					<polygon opacity="0.6" fill="#FFFFFF" points="160,-100 160,-60 133.333,-80 					"/>
					<polygon opacity="0.4" fill="#FFFFFF" points="160,-60 160,-20 133.333,-40 					"/>
				</g>
			</g>
		</g>
		<g>
			<polygon fill="#3E2D4E" points="320,-180 160,-180 160,-340 320,-340 			"/>
			<g>
				<defs>
					<rect id="SVGID_5_" x="160" y="-340" width="160" height="160"/>
				</defs>
				<clipPath id="SVGID_6_">
					<use xlink:href="#SVGID_5_"  overflow="visible"/>
				</clipPath>
				<g clip-path="url(#SVGID_6_)">
					<polygon opacity="0.2" fill="#FFFFFF" points="160,-220 160,-180 186.667,-200 					"/>
					<polygon opacity="0.1" fill="#FFFFFF" points="186.667,-200 186.667,-160 160,-180 					"/>
					<polygon opacity="0.4" fill="#FFFFFF" points="186.667,-200 186.667,-160 213.333,-180 					"/>
					<polygon opacity="0.4" fill="#FFFFFF" points="213.333,-220 213.333,-180 186.667,-200 					"/>
					<polygon opacity="0.2" fill="#FFFFFF" points="213.333,-220 213.333,-180 240,-200 					"/>
					<polygon opacity="0.1" fill="#FFFFFF" points="240,-200 240,-160 213.333,-180 					"/>
					<polygon opacity="0.4" fill="#FFFFFF" points="240,-200 240,-160 266.667,-180 					"/>
					<polygon opacity="0.4" fill="#FFFFFF" points="266.667,-220 266.667,-180 240,-200 					"/>
					<polygon opacity="0.2" fill="#FFFFFF" points="266.667,-220 266.667,-180 293.333,-200 					"/>
					<polygon opacity="0.1" fill="#FFFFFF" points="293.333,-200 293.333,-160 266.667,-180 					"/>
					<polygon opacity="0.4" fill="#FFFFFF" points="293.333,-200 293.333,-160 320,-180 					"/>
					<polygon opacity="0.4" fill="#FFFFFF" points="320,-220 320,-180 293.333,-200 					"/>
				</g>
			</g>
		</g>
		<g>
			<polygon fill="#3E2D4E" points="160,-180 0,-180 0,-340 160,-340 			"/>
			<g>
				<defs>
					<rect id="SVGID_7_" y="-340" width="160" height="160"/>
				</defs>
				<clipPath id="SVGID_8_">
					<use xlink:href="#SVGID_7_"  overflow="visible"/>
				</clipPath>
				<g clip-path="url(#SVGID_8_)">
					<polygon opacity="0.4" fill="#FFFFFF" points="133.333,-200 133.333,-160 160,-180 					"/>
					<polygon opacity="0.4" fill="#FFFFFF" points="160,-220 160,-180 133.333,-200 					"/>
				</g>
			</g>
		</g>
	</g>
</pattern>
	 
<pattern  x="820.5" y="2254.5" width="61" height="61" patternUnits="userSpaceOnUse" id="DPPB" viewBox="60.794 -61.33 61 61" overflow="visible">
	<g>
		<polygon fill="none" points="60.794,-0.33 121.794,-0.33 121.794,-61.33 60.794,-61.33 		"/>
		<g>
			<polygon fill="none" points="60.794,-0.33 121.794,-0.33 121.794,-61.33 60.794,-61.33 			"/>
			<g>
				<path fill="#3E2D4E" d="M104.63-73.634v-1.502h3.225v-3.222h1.502c6.007,0,11.075-4.05,12.642-9.556v26.913H95.068
					C100.578-62.566,104.63-67.632,104.63-73.634z"/>
				<path fill="#3E2D4E" d="M73.6-78.358h1.504v3.222h3.224v1.502c0,6.002,4.052,11.068,9.563,12.634H61v-26.753
					C62.619-82.328,67.651-78.358,73.6-78.358z"/>
				<path fill="#FFFFFF" d="M95.063-122.001h-7.167c-5.514,1.564-9.568,6.629-9.568,12.632v1.504h-3.224v3.223H73.6
					c-5.949,0-10.981,3.97-12.6,9.395v7.493c1.619,5.426,6.652,9.395,12.6,9.395h1.504v3.222h3.224v1.502
					c0,6.002,4.052,11.068,9.563,12.634h7.177c5.51-1.566,9.562-6.631,9.562-12.634v-1.502h3.225v-3.222h1.502
					c6.007,0,11.075-4.05,12.642-9.556v-7.17c-1.567-5.509-6.635-9.557-12.642-9.557h-1.502v-3.223h-3.225v-1.504
					C104.63-115.372,100.576-120.436,95.063-122.001z M101.622-109.368v4.511h3.224v3.223h4.512c5.592,0,10.144,4.545,10.144,10.135
					c0,5.588-4.551,10.134-10.144,10.134h-4.512v3.222h-3.224v4.509c0,5.589-4.55,10.136-10.142,10.136
					c-5.592,0-10.142-4.548-10.142-10.136v-4.509h-3.224v-3.222H73.6c-5.594,0-10.142-4.546-10.142-10.134
					c0-5.59,4.549-10.135,10.142-10.135h4.513v-3.223h3.224v-4.511c0-5.588,4.55-10.134,10.142-10.134
					C97.072-119.502,101.622-114.956,101.622-109.368z"/>
			</g>
			<g>
				<path fill="#3E2D4E" d="M43.63-73.634v-1.502h3.225v-3.222h1.502c6.007,0,11.075-4.05,12.642-9.556v26.913H34.068
					C39.578-62.566,43.63-67.632,43.63-73.634z"/>
				<path fill="#FFFFFF" d="M34.063-122.001h-7.168c-5.514,1.564-9.568,6.629-9.568,12.632v1.504h-3.224v3.223H12.6
					c-5.949,0-10.981,3.97-12.6,9.395v7.493c1.619,5.426,6.652,9.395,12.6,9.395h1.504v3.222h3.224v1.502
					c0,6.002,4.052,11.068,9.563,12.634h7.177c5.51-1.566,9.562-6.631,9.562-12.634v-1.502h3.225v-3.222h1.502
					c6.007,0,11.075-4.05,12.642-9.556v-7.17c-1.567-5.509-6.635-9.557-12.642-9.557h-1.502v-3.223H43.63v-1.504
					C43.63-115.372,39.576-120.436,34.063-122.001z M40.622-109.368v4.511h3.224v3.223h4.512c5.592,0,10.144,4.545,10.144,10.135
					c0,5.588-4.551,10.134-10.144,10.134h-4.512v3.222h-3.224v4.509c0,5.589-4.55,10.136-10.142,10.136s-10.142-4.548-10.142-10.136
					v-4.509h-3.224v-3.222H12.6c-5.594,0-10.142-4.546-10.142-10.134c0-5.59,4.549-10.135,10.142-10.135h4.513v-3.223h3.224v-4.511
					c0-5.588,4.55-10.134,10.142-10.134S40.622-114.956,40.622-109.368z"/>
			</g>
			<g>
				<path fill="#3E2D4E" d="M109.358-43.642h-1.502v-3.223h-3.225v-1.504c0-6.004-4.054-11.068-9.567-12.632H122v26.916
					C120.433-39.594,115.365-43.642,109.358-43.642z"/>
				<path fill="#3E2D4E" d="M104.63-12.634v-1.502h3.225v-3.222h1.502c6.007,0,11.075-4.05,12.642-9.556v26.913H95.068
					C100.578-1.566,104.63-6.632,104.63-12.634z"/>
				<path fill="#3E2D4E" d="M101.622-43.858h3.224v3.223h4.512c5.592,0,10.144,4.545,10.144,10.135
					c0,5.588-4.551,10.134-10.144,10.134h-4.512v3.222h-3.224v4.509c0,5.589-4.55,10.136-10.142,10.136
					c-5.592,0-10.142-4.548-10.142-10.136v-4.509h-3.224v-3.222H73.6c-5.594,0-10.142-4.546-10.142-10.134
					c0-5.59,4.549-10.135,10.142-10.135h4.513v-3.223h3.224v-4.511c0-5.588,4.55-10.134,10.142-10.134
					c5.592,0,10.142,4.546,10.142,10.134v4.511H101.622z"/>
				<path fill="#3E2D4E" d="M78.328-48.368v1.504h-3.224v3.223H73.6c-5.949,0-10.981,3.97-12.6,9.395v-26.755h26.896
					C82.382-59.436,78.328-54.372,78.328-48.368z"/>
				<path fill="#3E2D4E" d="M73.6-17.358h1.504v3.222h3.224v1.502c0,6.002,4.052,11.068,9.563,12.634H61v-26.753
					C62.619-21.328,67.651-17.358,73.6-17.358z"/>
				<path fill="#FFFFFF" d="M95.063-61.001h-7.167c-5.514,1.564-9.568,6.629-9.568,12.632v1.504h-3.224v3.223H73.6
					c-5.949,0-10.981,3.97-12.6,9.395v7.493c1.619,5.426,6.652,9.395,12.6,9.395h1.504v3.222h3.224v1.502
					c0,6.002,4.052,11.068,9.563,12.634h7.177c5.51-1.566,9.562-6.631,9.562-12.634v-1.502h3.225v-3.222h1.502
					c6.007,0,11.075-4.05,12.642-9.556v-7.17c-1.567-5.509-6.635-9.557-12.642-9.557h-1.502v-3.223h-3.225v-1.504
					C104.63-54.372,100.576-59.436,95.063-61.001z M101.622-48.368v4.511h3.224v3.223h4.512c5.592,0,10.144,4.545,10.144,10.135
					c0,5.588-4.551,10.134-10.144,10.134h-4.512v3.222h-3.224v4.509c0,5.589-4.55,10.136-10.142,10.136
					c-5.592,0-10.142-4.548-10.142-10.136v-4.509h-3.224v-3.222H73.6c-5.594,0-10.142-4.546-10.142-10.134
					c0-5.59,4.549-10.135,10.142-10.135h4.513v-3.223h3.224v-4.511c0-5.588,4.55-10.134,10.142-10.134
					C97.072-58.502,101.622-53.956,101.622-48.368z"/>
			</g>
			<g>
				<path fill="#3E2D4E" d="M48.358-43.642h-1.502v-3.223H43.63v-1.504c0-6.004-4.054-11.068-9.567-12.632H61v26.916
					C59.433-39.594,54.365-43.642,48.358-43.642z"/>
				<path fill="#3E2D4E" d="M43.63-12.634v-1.502h3.225v-3.222h1.502c6.007,0,11.075-4.05,12.642-9.556v26.913H34.068
					C39.578-1.566,43.63-6.632,43.63-12.634z"/>
				<path fill="#FFFFFF" d="M34.063-61.001h-7.168c-5.514,1.564-9.568,6.629-9.568,12.632v1.504h-3.224v3.223H12.6
					c-5.949,0-10.981,3.97-12.6,9.395v7.493c1.619,5.426,6.652,9.395,12.6,9.395h1.504v3.222h3.224v1.502
					c0,6.002,4.052,11.068,9.563,12.634h7.177c5.51-1.566,9.562-6.631,9.562-12.634v-1.502h3.225v-3.222h1.502
					c6.007,0,11.075-4.05,12.642-9.556v-7.17c-1.567-5.509-6.635-9.557-12.642-9.557h-1.502v-3.223H43.63v-1.504
					C43.63-54.372,39.576-59.436,34.063-61.001z M40.622-48.368v4.511h3.224v3.223h4.512c5.592,0,10.144,4.545,10.144,10.135
					c0,5.588-4.551,10.134-10.144,10.134h-4.512v3.222h-3.224v4.509c0,5.589-4.55,10.136-10.142,10.136S20.338-7.046,20.338-12.634
					v-4.509h-3.224v-3.222H12.6c-5.594,0-10.142-4.546-10.142-10.134c0-5.59,4.549-10.135,10.142-10.135h4.513v-3.223h3.224v-4.511
					c0-5.588,4.55-10.134,10.142-10.134S40.622-53.956,40.622-48.368z"/>
			</g>
		</g>
	</g>
</pattern>
<g id="seed-group">
	<pattern  id="SVGID_1_" xlink:href="#DPPB" patternTransform="matrix(1 0 0 -1 976.0659 -15585.9961)">
	</pattern>
	<rect x="0" y="1270.663" opacity="0.06" fill="url(#SVGID_1_)" enable-background="new    " width="2480" height="862.384"/>
	<rect x="0" y="0" fill="#3E2D4E" width="2480" height="1270.663"/>
	<g>
		<g>
			<path fill="#D8D5DC" enable-background="new    " d="M1383.996,343.149c30.248-1.075,51.283-9.059,51.283-9.059l-35.929,2.303
				c0,0-1.536-7.984,0.307-11.669c7.26-13.922,10.901-19.653,10.901-19.653s-8.979,9.851-13.972,18.886
				c-2.724,4.929-1.701,7.354-3.685,12.437c-5.681,0.768-3.992,1.228-11.362,0c-1.075-3.992-4.52-17.08-13.358-25.795
				c-6.109-6.023-10.901-9.673-19.346-11.362c-12.897-0.153-13.512-3.224-5.681-20.728c8.138-10.901,18.742-22.482,27.177-30.401
				c4.097-3.846,17.964-13.512,17.964-13.512s-7.396,0.008-23.185,11.823c-4.167,3.118-10.441,13.972-20.728,14.279
				c-6.756-22.878-31.169-33.779-31.169-33.779s12.066,6.954,18.118,16.122c3.136,4.75,1.849,6.465,2.457,15.354
				c0.633,14.398,0.614,11.362-1.996,21.342c-3.948,11.604-9.059,17.657-30.226,29.84c-8.138,3.224-19.829,4.4-25.817-0.667
				c-13.291-9.643-34.667-32.094-48.058-40.228c-8.681-5.273-16.582-6.909-40.381-4.453c0.154-5.681-0.414-12.629-2.15-16.122
				c-2.805-5.644-11.918-13.543-15.815-19.346c-1.24-3.348-1.221-10.876-0.921-14.433c1.996-13.051,0.506-3.565,1.228-11.669
				c0.288-0.842,2.075-5.676,2.61-6.909c2.809-6.473,9.059-16.89,9.059-16.89s-10.341,11.461-12.13,16.736
				c-2.627,7.749-0.407,28.247-12.897,30.862c-15.047,5.067-40.996-15.815-40.996-15.815s16.736,19.039,34.7,22.264
				c3.585,1.137,9.827,1.996,13.358,8.291c6.295,10.287,7.063,19.5,2.303,25.488c-7.063,13.051-19.815,18.364-33.011,31.323
				c-2.386,3.119-6.954,9.274-9.213,12.744c-1.64,2.52-3.176,8.447-4.094,11.31c-3.148,9.824-5.121,18.294,0.541,41.261
				c4.449,15.627,3.049,5.163,4.891,18.613c-9.92,1.266-11.79-0.35-11.79-0.35s-9.105-2.605-13.115-8.726
				c-1.249-11.207,1.055-11.609-4.854-24.061c-5.39-5.301-24.695-18.574-24.695-18.574s22.226,23.068,16.885,37.992
				c-22.302,1.594-44.324,3.377-44.324,3.377s28.283-1.055,43.867,4.813c7.272,2.738,15.457,10.497,23.674,16.082
				c8.461,5.752,14.141,14.564,31.026,19.629c28.494,31.66,42.557,37.633,53.516,74.988c2.975,10.142,7.509,19.516,8.658,29.491
				c2.559,22.225-1.082,42.073-1.082,42.073s0.135,19.075-17.181,38.285c-6.365,7.062-9.635,9.476-9.635,9.476l0.021-0.012
				c-23.902,13.955-44.197,26.371-41.252,26.657c37.608,3.653,42.527-15.068,57.359-12.852c11.77,1.759,14.746-2.57,32.332,19.751
				c7.172,9.102,13.934-16.91,47.619-16.234c9.577,0.192,36.431,14.927,36.431,14.927s-11.133-17.226-33.86-31.566
				c-15.975-10.08-10.917-6.817-21.51-17.587c-5.503-5.595-8.726-22.065-8.726-22.065s-5.004-16.025-5.614-40.029
				c-0.406-15.963-1.591-26.76-4.058-35.714c-1.941-7.042-13.245-29.762-13.245-29.762s-13.676-22.998-9.212-31.656
				c4.548-8.819,30.421-28.178,30.421-28.178s-20.514,12.545-25.825,12.151c-10.346-3.482-17.424-17.538-18.761-20.368
				c1.507,3.251,10.036,21.78,9.295,23.137c-1.895,3.474-12.24,2.82-15.016,0c-8.658-8.793-44.377-52.998-42.884-75.081
				c0.676-10.011,1.066-13.232,10.279-14.921c16.122-0.461,32.397-1.689,32.397-1.689l-38.026-2.977c0,0,3.698-11.912,9.733-16.53
				c3.205-3.978,11.385-9.545,15.703-12.276c6.31-2.521,14.325-7.014,22.264-6.602c5.678,0.295,13.512-0.154,21.342,4.453
				c4.93,2.029,11.724,7.37,20.205,17.935c9.565,8.115,21.325,15.203,26.414,18.073c2.25,1.168,7.725,3.328,15.015,2.919
				c3.697-0.208,5.306,0.093,10.009-0.556c1.9-0.262,3.888-1.388,7.368-1.668c19.463-2.085,27.339-13.147,32.114-13.346
				c4.436-0.374,11.925-0.013,15.987,1.807c6.396,2.865,15.292,12.373,19.214,25.811c2.891,19.231,0.921,19.346,0,32.551
				c-1.485,4.578-26.286,4.171-35.868,3.84c6.171,0.328,19.012,1.329,30.955,4.298c3.685,3.378,1.79,10.679,0.614,13.972
				c-3.378,6.909-11.946,17.494-16.122,21.496c-41.917,35.315-33.888,26.946-43.452,41.917c-5.681,9.059-6.602,5.22-9.366,19.653
				c-1.996,23.492,4.299,37.771,4.299,37.771s-1.075-37.464,4.146-41.149c1.211-3.486,3.957-7.795,7.276-11.421
				c4.086-4.548,6.85-7.004,9-2.551c0.307,11.976,5.95,13.661,9.98,18.425c12.13,8.905,42.992,21.342,42.992,21.342
				s-17.057-10.263-29.787-21.035c-9.98-8.445-11.208-11.976-11.208-11.976l26.87-1.996c0,0-15.661-2.764-29.173-1.842
				c-6.295-0.768-6.504-7.804-4.299-13.205c4.146-8.445,2.764-3.839,17.964-15.354c9.418-11.709,27.177-20.575,35.622-45.295
				c1.377-2.218,3.083-7.255,3.531-9.827C1384.895,372.426,1383.228,352.976,1383.996,343.149z M1220.038,550.817
				c11.446-42.772,3.012-79.52,3.012-79.52s12.931,26.979,1.606,82.532c-11.473,45.182-31.527,59.64-31.527,59.64
				S1213.183,582.143,1220.038,550.817z M1175.057,265.268c-9.237,24.9-31.481,25.823-38.469,51.895
				c-3.93,57.533,4.16,56.724,31.396,93.222c13.131,27.075,21.732,31.394,28.76,66.937c0,0-19.073-42.347-34.153-68.378
				c-19.686-25.079-36.135-35.057-30.203-88.181c4.619-21.687,18.414-31.727,27.608-40.033c6.836-6.176,13.454-11.044,12.852-34.539
				C1172.335,234.917,1176.864,253.822,1175.057,265.268z M1367.832,321.896c-17.113-15.909-33.736-14.057-51.607-4.418
				c-17.758,11.245-34.959,7.297-41.166,3.815c-24.699-13.856-21.916-17.928-33.334-26.908
				c-10.194-8.018-19.951-12.099-24.699-13.856c-16.776-6.207-32.129-5.422-32.129-5.422c15.562-1.757,24.09-1.383,34.338,2.41
				c16.901,5.857,26.105,14.057,43.575,31.728c16.466,11.245,26.552,14.797,41.166,9.639c31.728-11.044,13.253-8.434,35.543-13.052
				C1359.231,306.139,1368.777,322.774,1367.832,321.896z"/>
			<g>
				<path fill="#FFFFFF" d="M1198.953,487.763"/>
				<path fill="#FFFFFF" d="M1096.165,418.902"/>
				<g>
					<path fill="#FFFFFF" d="M1099.091,420.498c-6.652,11.441-7.016,17.886-3.413,25.277c11.928,11.707,15.387,3.459,27.36,17.295
						c0.798-27.938,8.706-16.827,6.12-37.516c-1.33-10.643-21.02-17.827-22.882-11.707c3.991,10.111,2.927,3.193,8.248,21.818
						C1103.083,418.902,1102.55,415.975,1099.091,420.498z"/>
					<path fill="#FFFFFF" d="M1060.952,447.106l8.871-28.204c0,0,12.771,16.23,10.111,29.534
						c-8.412,13.419-26.873,14.634-29.223,24.179c2.349-9.545-9.57-19.124-9.092-35.282c2.683-7.289,21.976-15.964,22.35-18.432
						L1060.952,447.106z"/>
					<path fill="#FFFFFF" d="M1080.299,424.223c-2.274-7.716-0.991-23.545,4.691-23.68c1.33-0.032,2.049,6.683,3.281,7.184
						c1.996,0.811,5.136-3.725,7.894-2.927c2.11,1.956,1.862,5.584-2.758,11.175C1091.148,419.12,1083.925,424.223,1080.299,424.223
						z"/>
					<path fill="#FFFFFF" d="M1011.616,391.879c-2.452,1.481-22.701-7.747-30.966-4.64c-14.783,11.278-15.654,27.76-25.724,32.764
						c10.07-5.003,23.098,8.941,40.56,6.009c13.638-7.466,19.917-29.433,19.917-29.433L984.4,409.813L1011.616,391.879z"/>
					<path fill="#FFFFFF" d="M1018.205,408.259c20.488-13.682,15.166-15.432,26.075-21.663c9.046-3.614,15.417-3.436,22.084,0
						c-5.412,8.892-12.047,6.977-14.368,11.286c5.055,2.661,21.02-4.257,21.02-4.257s-9.111,14.077-13.836,16.759
						C1050.52,415.3,1028.582,407.082,1018.205,408.259z"/>
					<path fill="#FFFFFF" d="M993.195,365.421c15.787-4.024,13.974-8.993,26.527-9.495c9.694,0.963,13.109,1.387,17.441,7.51
						c-14.434,2.251-11.75,3.309-15.796,6.063c3.26,4.691,8.546,1.51,13.01,9.905c-4.464,4.548-6.968,4.299-12.397,4.501
						C1012.029,384.276,1002.945,369.16,993.195,365.421z"/>
					<path fill="#FFFFFF" d="M1040.425,353.29c-2.274-7.716-0.991-23.545,4.691-23.68c1.33-0.032,2.049,6.683,3.281,7.184
						c1.996,0.811,5.136-3.725,7.894-2.927c2.11,1.956,1.862,5.584-2.758,11.175C1051.274,348.186,1044.051,353.29,1040.425,353.29z
						"/>
					<path fill="#FFFFFF" d="M1106.807,298.105c-3.801,8.85,0.579,12.193-3.991,18.359c-4.304,4.326-9.696,6.484-15.192,4.712
						c-0.806-6.054,2.649-6.688,2.634-9.512c-3.953,0.046-4.173,3.601-10.718,3.028c-0.882-3.603,3.868-9.6,5.853-12.262
						C1089.032,297.55,1100.889,301.563,1106.807,298.105z"/>
					<path fill="#FFFFFF" d="M1063.97,314.601c8.248-4.277,10.377-7.716,13.364-26.02c-4.318-21.873-19.77-24.574-25.87-34.644
						c-3.002,15.964-14.302,14.634-17.295,38.847c1.666,15.459,21.213,24.312,21.213,24.312l-2.056-25.11
						C1053.327,291.985,1061.841,301.099,1063.97,314.601z"/>
					<path fill="#FFFFFF" d="M1035.258,325.441c0.568-9.274-6.676-16.959-15.989-21.483c-20.984-7.533-29.202,5.933-40.975,5.993
						c14.9,7.144,5.055,23.009,24.213,31.498c14.118,6.513,29.268-9.819,29.268-9.819l-21.388-8.677
						C1010.387,322.953,1022.581,320.331,1035.258,325.441z"/>
					<path fill="#FFFFFF" d="M1099.864,242.73c-2.274-7.716-0.991-23.545,4.691-23.68c1.33-0.032,2.049,6.683,3.281,7.184
						c1.996,0.811,5.136-3.725,7.894-2.927c2.11,1.956,1.863,5.584-2.758,11.175C1110.714,237.627,1103.491,242.73,1099.864,242.73z
						"/>
					<path fill="#FFFFFF" d="M1136.608,241.165c-12.659-0.08-20.652,5.199-25.067,11.707c-4.029,15.475,2.134,17.531-3.639,34.057
						c23.555-12.63,19.96-0.841,35.89-12.832c8.195-6.169,7.294-28.71,1.33-27.345c-6.486,8.125-1.813,2.729-14.728,16.01
						C1138.849,245.287,1142.007,241.885,1136.608,241.165z"/>
					<path fill="#FFFFFF" d="M1080.299,230.89c-4.356,6.284-16.063,10.274-26.192,7.111c-16.944-9.873-14.746-23.975-26.057-29.296
						c18.625-4.523,20.412-10.858,35.122-10.111c16.063,4.523,19.689,22.616,19.689,22.616s-14.102-5.321-25.297-0.798
						C1070.622,228.394,1080.299,221.129,1080.299,230.89z"/>
					<path fill="#FFFFFF" d="M1074.898,160.056c18.403,11.931,38.296,10.6,36.699,42.795c-9.579-4.318-10.005-11.471-14.9-11.441
						c0.09,5.712,11.205,14.634,9.047,17.295C1074.898,207.108,1082.861,167.729,1074.898,160.056z"/>
					<path fill="#FFFFFF" d="M1104.147,161.61c-34.856-26.208,7.54-42.572,14.9-54.279c4.789,24.479,29.534,37.516-4.789,56.673
						c-5.691-6.918,1.644-22.513-3.991-22.616C1106.807,144.847,1109.151,163.239,1104.147,161.61z"/>
					<path fill="#FFFFFF" d="M1134.597,160.056c2.773,6.579,24.893,24.324,4.799,46.401c-4.118,0-3.028-11.825-5.686-15.935
						c-4.767,3.148-2.712,10.461-11.21,14.724C1106.807,181.831,1129.542,168.7,1134.597,160.056z"/>
					<path fill="#FFFFFF" d="M1195.41,151.499c2.007,7.79,6.652,23.148-6.12,27.361c-4.394,0,0.266-6.075-1.869-7.293
						c-1.871-1.067-5.261,3.546-7.99,2.653C1176.252,161.61,1189.101,154.433,1195.41,151.499z"/>
					<path fill="#FFFFFF" d="M1216.104,186.088c-6.193,21.04,7.243,34.585-27.684,49.223c-5.439-5.234,5.264-14.711,3.841-19.394
						c-5.45,1.714-10.162,17.512-13.328,16.201C1178.043,190.079,1211.018,195.908,1216.104,186.088z"/>
					<path fill="#FFFFFF" d="M1206.002,234.525c19.93-38.789,41.58,3.248,54.364,8.52c-23.315,8.864-28.808,32.444-56.5,2.698
						c-7.121-5.921,22.196-3.53,21.344-9.101C1221.215,233.819,1205.243,239.733,1206.002,234.525z"/>
					<path fill="#FFFFFF" d="M1234.788,212.03c-31.13-34.314,7.956-45.116,13.933-57.587c3.628,26.324,27.954,33.06-3.29,59.051
						c-6.309,6.78,0.547-24.846-5.063-24.307C1237.326,193.018,1239.946,213.078,1234.788,212.03z"/>
					<path fill="#FFFFFF" d="M1307.692,186.699c-31.296-33.603,6.331-44.728,15.395-55.172c4.217,15.649,31.459,38.546-5.55,55.338
						c-7.879,4.868,3.193-22.861-5.393-24.457C1308.196,165.297,1312.388,189.075,1307.692,186.699z"/>
					<path fill="#FFFFFF" d="M1228.051,309.951c-8.163,11.846-17.385,28.597-32.641,16.624c-2.015-3.904,11.338-5.792,11.441-8.248
						c0.09-2.153-13.111,3.366-13.57,0.532C1194.345,295.178,1222.55,305.691,1228.051,309.951z"/>
					<path fill="#FFFFFF" d="M1205.517,358.685c-15.429-1.512-28.38-2.759-26.655-22.683c3.282-2.92,11.374,7.491,13.779,6.981
						c2.108-0.446-9.176-11.139-6.544-12.286C1209.301,325.857,1208.28,352.3,1205.517,358.685z"/>
					<path fill="#FFFFFF" d="M1200.512,369.574c2.208,7.649,14.691,12.763,4.055,27.318c-4.218,1.23-3.718-5.244-6.109-5.816
						c-2.095-0.501-2.59,4.496-6.928,4.783C1183.136,380.714,1195.277,374.156,1200.512,369.574z"/>
					<path fill="#FFFFFF" d="M1263.966,381.386c-5.059,6.147,7.948,22.35-15.999,27.139c-3.4-2.783,2.251-9.678,1.37-11.973
						c-0.772-2.011-11.49,8.015-14.18,4.6C1231.652,375.266,1249.398,387.105,1263.966,381.386z"/>
					<path fill="#FFFFFF" d="M1395.573,270.722c5.715,5.543,19.08,1.574,15.355,24.634c-3.051,3.162-6.317-8.036-8.676-7.345
						c-2.068,0.605,2.224,7.692-1.399,10.094C1386.716,298.105,1393.304,277.299,1395.573,270.722z"/>
					<path fill="#FFFFFF" d="M1295.472,408.525c1.577-16.21,10.092-36.202,32.24-31.683c4.205,6.268-8.179,4.876-7.781,9.754
						c5.689-0.519,14.9-2.644,16.766,1.708C1340.153,415.443,1303.42,406.1,1295.472,408.525z"/>
					<path fill="#FFFFFF" d="M1324.923,338.958c3.34,4.379,22.639,16.061,12.003,30.616c-4.218,1.23-7.952-10.317-10.343-10.888
						c-2.095-0.501,6.466,13.633,2.129,13.92C1307.223,365.687,1319.688,343.54,1324.923,338.958z"/>
					<path fill="#FFFFFF" d="M1391.613,375.057c0.713-7.93-7.732-16.372,3.884-27.585c6.316,0,1.081,9.262,3.102,10.661
						c1.772,1.226,2.613-6.93,6.76-5.626C1411.574,361.209,1398.136,369.574,1391.613,375.057z"/>
					<path fill="#FFFFFF" d="M1350.248,528.524c0.713-7.93-5.571-19.955,6.185-25.052c6.316,0-0.94,7.863,1.081,9.262
						c1.772,1.226,4.568-6.8,8.715-5.496C1372.444,515.94,1356.916,528.524,1350.248,528.524z"/>
					<path fill="#FFFFFF" d="M1269.112,178.86c19.039,10.887,40.975,12.816,42.645,39.399c-2.468,5.346-14.612-7.861-19.497-7.559
						c0.408,5.698,19.497,11.574,14.198,16.05C1270.745,234.248,1277.49,186.078,1269.112,178.86z"/>
					<path fill="#FFFFFF" d="M1359.843,210.7c8.054,7.55,19.172,3.747,18.756,20.4c-2.265,3.765-6.814-4.761-8.958-3.56
						c-1.879,1.053,0.427,9.862-1.744,11.74C1355.452,235.504,1359.105,217.618,1359.843,210.7z"/>
					<path fill="#FFFFFF" d="M1302.105,291.283c-2.927-18.721,3.191-25.277,16.496-27.235c4.329,0.754-6.483,10.141-4.589,11.708
						c1.661,1.373,9.575-5.462,12.11-4.114C1332.171,286.93,1309.555,291.283,1302.105,291.283z"/>
					<path fill="#FFFFFF" d="M1274.167,264.047c0-15.018,14.658-37.688,32.461-30.002c2.944,3.261-9.119,7.583-8.593,9.984
						c0.461,2.104,15.062-1.762,16.227,0.862C1319.269,268.059,1280.572,266.763,1274.167,264.047z"/>
					<path fill="#FFFFFF" d="M1385.918,271.485c-2.844,7.436,1.596,28.018-21.818,26.62c-4.108-1.559,4.713-11.776,3.149-13.672
						c-1.371-1.662-8.294,10.735-11.93,8.351C1348.236,271.995,1378.979,271.99,1385.918,271.485z"/>
					<path fill="#FFFFFF" d="M1400.862,200.179c0.547,7.943,13.141,13.922-5.041,28.586c-4.382,0.313,0.672-10.2-1.545-11.262
						c-1.943-0.931-3.486,7.208-7.787,6.574C1375.974,214.629,1394.779,203.556,1400.862,200.179z"/>
					<path fill="#FFFFFF" d="M1396.561,237.174c22.882-32.195,44.156,3.508,56.94,8.78c-25.277,4.257-28.715,32.785-56.407,3.039
						c-7.121-5.921,20.706-2.241,19.854-7.812C1412.952,238.358,1395.802,242.382,1396.561,237.174z"/>
					<path fill="#FFFFFF" d="M1415.036,204.804c-0.464-43.607,38.295-16.522,52.062-17.822
						c-16.489,18.716-8.784,42.665-47.154,29.271c-9.061-1.916,16.423-14.005,13.071-18.535
						C1428.163,197.083,1416.793,209.764,1415.036,204.804z"/>
					<path fill="#FFFFFF" d="M1465.74,270.722c-5.854,37.494-20.222,40.553-43.104,40.42c-4.824-5.805,13.537-18.118,12.643-22.93
						c-10.566-1.283-19.028,23.994-21.157,15.706C1411.574,260.311,1458.081,273.947,1465.74,270.722z"/>
					<path fill="#FFFFFF" d="M1468.932,303.569c0-43.258,42.565-18.533,56.141-21.162c-18.768,17.459-5.854,47.703-51.352,31.663
						c-9.204-1.028,18.216-14.184,14.44-18.368C1483.273,295.541,1471.163,308.335,1468.932,303.569z"/>
					<path fill="#FFFFFF" d="M1429.82,342.325c40.177,14.582,12.705,39.636,13.706,53.428
						c-18.813-17.295-43.911-24.947-25.413-49.49c6.582-5.737,12.563,21.878,17.166,18.625
						C1436.018,360.054,1424.821,343.975,1429.82,342.325z"/>
					<path fill="#FFFFFF" d="M1487.685,332.704c-6.564,4.507-23.276,28.561-47.805,7.175c-2.496-3.616,19.418-4.403,19.208-6.852
						c-0.185-2.146-20.179-0.031-21.818-4.057C1450.041,302.628,1481.686,329.18,1487.685,332.704z"/>
					<path fill="#FFFFFF" d="M1395.926,418.847c7.021-37.462,37.353-12.451,55.841-15.112c-18.551,17.577-5.451,38.314-49.954,28.47
						c-8.445-6.12,18.962-13.81,16.034-18.625C1413.073,412.51,1397.227,423.947,1395.926,418.847z"/>
					<path fill="#FFFFFF" d="M1389.311,412.873c-1.531,19.157,0.742,41.038-21.644,44.168c-6.055-4.506,7.467-13.893,5.465-18.359
						c-5.189,2.388-13.271,15.719-16.482,12.239C1346.151,430.085,1389.074,409.205,1389.311,412.873z"/>
					<path fill="#FFFFFF" d="M1387.193,456.162c14.187-28.399,21.813-8.884,54.651-7.484c14.85-12.826-26.513,43.932-52.086,19.569
						c-4.942-7.2,24.576-9.277,21.874-14.224C1406.915,452.733,1388.257,461.318,1387.193,456.162z"/>
					<path fill="#FFFFFF" d="M1382.129,485.056c-7.473-2.752-18.99,4.275-24.419-12.916c1.508-4.127,6.429,0.111,8.306-1.476
						c1.645-1.391-2.089-4.751,0.249-8.415C1383.445,464.457,1381.537,478.124,1382.129,485.056z"/>
					<path fill="#FFFFFF" d="M1417.775,486.862c26.995-26.906,37.84,10.883,54.586,19.156c-25.242,3.987-26.184,28.498-57.296-4.812
						c-3.497-9.825,23.448-0.649,23.761-6.276C1433.97,489.699,1414.443,495.936,1417.775,486.862z"/>
					<path fill="#FFFFFF" d="M1427.159,535.708c-39.115-5.479-44.981-10.025-46.409-27.973c4.858-5.776,13.424,8.278,18.001,6.545
						c-2.075-5.322-14.901-14.181-11.237-17.179C1408.938,487.859,1430.834,535.689,1427.159,535.708z"/>
					<path fill="#FFFFFF" d="M1351.475,191.176c-8.163,11.846-7.551,30.775-31.556,30.775c-2.015-3.904,11.304-12.943,11.407-15.399
						c0.09-2.152-14.161,9.317-14.619,6.483C1311.757,192.117,1345.975,186.916,1351.475,191.176z"/>
				</g>
			</g>
		</g>
		<g>
			<g>
				<path fill="#FFFFFF" d="M974.073,669.88c7.561,0,13.42,1.888,17.578,5.655c4.158,3.771,6.239,9.089,6.239,15.957
					c0,3.82-0.677,7.217-2.032,10.191c-1.355,2.97-3.367,5.464-6.034,7.482c-1.89,1.428-4.022,2.449-6.394,3.072
					c-2.374,0.618-5.492,0.928-9.357,0.928h-15.908v-2.644l3.653-0.317l1.103-0.911v-35.534l-1.103-0.915l-3.653-0.378v-2.583
					h15.908V669.88z M968.719,672.841v37.361h5.102c5.881,0,10.275-1.546,13.184-4.646c2.909-3.096,4.363-7.787,4.363-14.065
					s-1.444-10.956-4.331-14.036c-2.889-3.076-7.293-4.614-13.216-4.614H968.719z"/>
				<path fill="#FFFFFF" d="M1020.161,713.164v-1.867l2.579-0.224l0.779-0.643v-25.082l-0.779-0.647l-2.579-0.264v-1.827h21.815
					v6.652h-2.557l-0.645-3.869l-0.622-0.692h-10.541v11.518h7.472l0.645-0.643l0.446-3.316h2.156v10.029h-2.156l-0.446-3.291
					l-0.645-0.688h-7.472v12.763h12.207l0.645-0.732l0.779-4.601h2.358v7.425L1020.161,713.164L1020.161,713.164z"/>
				<path fill="#FFFFFF" d="M1058.854,713.164v-1.867l2.779-0.358l0.824-0.867v-24.724l-0.824-0.647l-2.913-0.264v-1.827h8.562
					v1.135l15.544,23.324v-21.412l-0.824-0.822l-2.734-0.399v-1.827h9.561v1.827l-2.734,0.399l-0.824,0.822v27.507h-3.002
					l-17.344-25.859v22.767l0.824,0.867l2.734,0.358v1.867L1058.854,713.164L1058.854,713.164z"/>
				<path fill="#FFFFFF" d="M1103.393,682.61h25.727v7.006h-2.512l-0.622-4.223l-0.645-0.692h-6.961v25.729l0.757,0.643l3.068,0.224
					v1.867h-11.896v-1.867l3.047-0.224l0.777-0.643v-25.729h-6.959l-0.645,0.692l-0.645,4.223h-2.49L1103.393,682.61
					L1103.393,682.61z"/>
				<path fill="#FFFFFF" d="M1155.449,682.231h3.003l10.918,28.508l2.734,0.557v1.867h-10.34v-1.867l2.826-0.224l0.334-0.643
					l-3.291-8.694h-10.741l-3.247,8.694l0.468,0.643l2.956,0.224v1.867h-8.916v-1.867l2.624-0.557L1155.449,682.231z
					 M1156.161,687.016l-4.492,12.629h9.182L1156.161,687.016z"/>
				<path fill="#FFFFFF" d="M1185.491,713.164v-1.867l2.868-0.224l0.779-0.643v-25.082l-0.779-0.647l-2.868-0.264v-1.827h11.119
					v1.827l-2.602,0.264l-0.779,0.647v25.725h10.295l0.645-0.732l0.779-5.472h2.358v8.296h-21.815V713.164z"/>
			</g>
			<g>
				<path fill="#FFFFFF" d="M1230.201,713.164v-3.149l3.81-0.346l1.166-1.009v-34.399l-0.976-0.915l-4.251-0.313v-3.153h17.419
					c6.154,0,10.627,1.042,13.42,3.12c2.793,2.079,4.191,5.374,4.191,9.89c0,4.536-1.481,8.06-4.443,10.57
					c-2.96,2.51-7.108,3.763-12.441,3.763c-0.504,0-1.125-0.016-1.859-0.045c-0.736-0.033-1.587-0.081-2.551-0.142v11.624
					l0.976,1.009l4.599,0.346v3.149L1230.201,713.164L1230.201,713.164z M1243.684,693.35c0.041,0,0.114,0.008,0.22,0.029
					c0.966,0.065,1.67,0.098,2.109,0.098c3.34,0,5.854-0.863,7.545-2.583s2.537-4.296,2.537-7.718c0-3.088-0.777-5.452-2.331-7.087
					c-1.554-1.64-3.792-2.457-6.709-2.457h-3.371V693.35z"/>
				<path fill="#FFFFFF" d="M1286.382,682.61h13.853c3.497,0,6.156,0.663,7.972,1.981c1.814,1.318,2.724,3.255,2.724,5.802
					c0,2.091-0.661,3.792-1.979,5.106c-1.32,1.31-3.269,2.205-5.848,2.677c1.127,0.269,2.079,0.627,2.856,1.078
					c0.779,0.452,1.42,1.033,1.924,1.745c0.637,0.919,1.276,2.433,1.912,4.536c0.311,0.993,0.555,1.729,0.734,2.201
					c0.46,1.204,1.07,2.038,1.835,2.502c0.763,0.468,1.945,0.7,3.546,0.7h0.578v2.181c-0.844,0.118-1.648,0.208-2.413,0.269
					c-0.763,0.057-1.479,0.089-2.146,0.089c-0.934,0-1.811-0.126-2.634-0.37c-0.822-0.244-1.524-0.59-2.101-1.033
					c-1.379-1.066-2.461-2.823-3.247-5.269c-0.104-0.342-0.185-0.61-0.244-0.801c-0.86-2.592-1.786-4.288-2.779-5.082
					c-0.995-0.793-2.469-1.188-4.427-1.188h-0.777v10.248l0.732,0.712l2.781,0.244v2.225h-12.852v-2.225l2.689-0.244l0.734-0.712
					v-24.281l-0.734-0.643l-2.689-0.224V682.61z M1295.722,685.214l0.022,11.872c0.191,0.016,0.403,0.029,0.633,0.037
					c0.23,0.004,0.559,0.008,0.991,0.008c2.459,0,4.276-0.496,5.448-1.489c1.17-0.993,1.756-2.527,1.756-4.601
					c0-1.9-0.578-3.344-1.733-4.337c-1.157-0.993-2.826-1.489-5.004-1.489L1295.722,685.214L1295.722,685.214z"/>
				<path fill="#FFFFFF" d="M1330.653,697.732c0-2.49,0.393-4.728,1.18-6.717c0.785-1.985,1.955-3.698,3.513-5.134
					c1.436-1.318,3.041-2.311,4.813-2.97s3.717-0.989,5.838-0.989c1.957,0,3.767,0.297,5.435,0.891
					c1.668,0.59,3.2,1.481,4.593,2.665c1.747,1.513,3.086,3.336,4.014,5.472c0.926,2.136,1.389,4.483,1.389,7.047
					c0,2.417-0.411,4.634-1.235,6.652c-0.822,2.014-2.034,3.763-3.635,5.248c-1.379,1.29-2.95,2.278-4.713,2.966
					c-1.766,0.692-3.611,1.033-5.537,1.033c-4.701,0-8.485-1.481-11.353-4.447C1332.088,706.488,1330.653,702.578,1330.653,697.732z
					 M1346.085,684.835c-2.608,0-4.703,1.176-6.282,3.523c-1.579,2.352-2.368,5.505-2.368,9.463c0,4.016,0.789,7.238,2.368,9.663
					c1.578,2.421,3.643,3.633,6.194,3.633c2.579,0,4.658-1.18,6.237-3.548c1.579-2.364,2.368-5.509,2.368-9.439
					c0-4.06-0.775-7.291-2.323-9.695C1350.729,686.035,1348.665,684.835,1346.085,684.835z"/>
				<path fill="#FFFFFF" d="M1403.656,712.074c-1.526,0.549-3.088,0.96-4.679,1.237c-1.595,0.273-3.222,0.411-4.882,0.411
					c-1.615,0-3.137-0.175-4.561-0.525c-1.42-0.346-2.697-0.863-3.824-1.546c-2.372-1.408-4.223-3.324-5.557-5.749
					c-1.334-2.421-2.002-5.086-2.002-7.99c0-2.327,0.403-4.488,1.212-6.473c0.81-1.985,1.981-3.714,3.523-5.179
					c1.44-1.396,3.116-2.445,5.037-3.149c1.92-0.704,4.064-1.054,6.436-1.054c1.53,0,3.068,0.138,4.618,0.423
					c1.546,0.281,3.108,0.704,4.679,1.265v7.604h-3.336l-0.911-4.87l-0.622-0.777c-0.623-0.224-1.233-0.391-1.835-0.513
					c-0.598-0.118-1.188-0.175-1.766-0.175c-3.173,0-5.692,1.151-7.551,3.458c-1.859,2.303-2.791,5.435-2.791,9.394
					c0,4.06,0.972,7.242,2.913,9.536c1.945,2.299,4.618,3.45,8.027,3.45c0.37,0,0.789-0.037,1.257-0.114
					c0.468-0.073,0.968-0.175,1.501-0.309l0.688-0.692l1.09-5.492h3.336V712.074z"/>
				<path fill="#FFFFFF" d="M1419.905,713.164v-2.225l2.783-0.244l0.732-0.712v-24.281l-0.732-0.643l-2.783-0.224v-2.225h22.971
					v7.14h-3.157l-0.777-4.003l-0.488-0.602h-9.117V696h5.936l0.622-0.647l0.468-3.267h2.689v10.562h-2.689l-0.468-3.291
					l-0.622-0.622h-5.936v11.831h10.627l0.537-0.736l0.732-4.825h3.137v8.161h-24.465V713.164z"/>
				<path fill="#FFFFFF" d="M1461.684,712.163v-8.251h3.446l0.736,5.472l0.598,0.688c0.667,0.207,1.33,0.366,1.994,0.468
					c0.659,0.106,1.33,0.155,2.01,0.155c1.778,0,3.202-0.391,4.272-1.176c1.066-0.785,1.599-1.831,1.599-3.137
					c0-1.155-0.374-2.181-1.123-3.08c-0.749-0.895-1.998-1.782-3.747-2.657c-0.281-0.146-0.712-0.358-1.29-0.622
					c-2.075-0.964-3.633-1.884-4.671-2.758c-1.021-0.858-1.806-1.831-2.356-2.913c-0.549-1.082-0.822-2.185-0.822-3.312
					c0-2.608,0.997-4.76,2.99-6.449c1.994-1.692,4.577-2.535,7.75-2.535c1.379,0,2.779,0.13,4.203,0.386
					c1.42,0.26,2.876,0.651,4.357,1.168v7.384h-3.291l-0.757-4.736l-0.643-0.647c-0.431-0.22-0.919-0.386-1.469-0.488
					c-0.549-0.106-1.172-0.155-1.867-0.155c-1.615,0-2.913,0.399-3.893,1.2c-0.976,0.802-1.465,1.843-1.465,3.133
					c0,0.952,0.277,1.806,0.834,2.571c0.553,0.761,1.505,1.546,2.856,2.343c0.325,0.208,1.233,0.643,2.722,1.302
					c1.493,0.659,2.746,1.314,3.771,1.969c1.318,0.842,2.335,1.859,3.047,3.047c0.712,1.184,1.066,2.453,1.066,3.8
					c0,2.787-1.103,5.041-3.312,6.762c-2.209,1.717-5.13,2.579-8.763,2.579c-1.481,0-2.97-0.13-4.467-0.391
					S1463.064,712.651,1461.684,712.163z"/>
				<path fill="#FFFFFF" d="M1500.795,712.163v-8.251h3.446l0.736,5.472l0.598,0.688c0.667,0.207,1.33,0.366,1.994,0.468
					c0.659,0.106,1.33,0.155,2.01,0.155c1.778,0,3.202-0.391,4.272-1.176c1.066-0.785,1.599-1.831,1.599-3.137
					c0-1.155-0.374-2.181-1.123-3.08c-0.749-0.895-1.998-1.782-3.747-2.657c-0.281-0.146-0.712-0.358-1.29-0.622
					c-2.075-0.964-3.633-1.884-4.671-2.758c-1.021-0.858-1.806-1.831-2.356-2.913c-0.549-1.082-0.822-2.185-0.822-3.312
					c0-2.608,0.997-4.76,2.99-6.449c1.994-1.692,4.577-2.535,7.75-2.535c1.379,0,2.779,0.13,4.203,0.386
					c1.42,0.26,2.876,0.651,4.357,1.168v7.384h-3.291l-0.757-4.736l-0.643-0.647c-0.431-0.22-0.919-0.386-1.469-0.488
					c-0.549-0.106-1.172-0.155-1.867-0.155c-1.615,0-2.913,0.399-3.894,1.2c-0.976,0.802-1.465,1.843-1.465,3.133
					c0,0.952,0.277,1.806,0.834,2.571c0.553,0.761,1.505,1.546,2.856,2.343c0.325,0.208,1.233,0.643,2.722,1.302
					c1.493,0.659,2.746,1.314,3.771,1.969c1.318,0.842,2.335,1.859,3.047,3.047c0.712,1.184,1.066,2.453,1.066,3.8
					c0,2.787-1.103,5.041-3.312,6.762c-2.209,1.717-5.13,2.579-8.763,2.579c-1.481,0-2.97-0.13-4.467-0.391
					S1502.174,712.651,1500.795,712.163z"/>
			</g>
		</g>
	</g>
	<g>
		<path fill="#3E2D4E" d="M843.478,1453.02c0.111,0.056,0.233,0.172,0.367,0.35l31.996,43.294c-0.022-0.2-0.033-0.4-0.033-0.6
			s0-0.388,0-0.566v-42.561h1.6v46.86h-0.767c-0.289,0-0.533-0.133-0.733-0.4l-32.163-43.461c0.022,0.223,0.039,0.433,0.05,0.633
			c0.011,0.2,0.017,0.389,0.017,0.566v42.661h-1.6v-46.86h0.833C843.222,1452.936,843.366,1452.965,843.478,1453.02z"/>
		<path fill="#3E2D4E" d="M894.104,1499.797h-1.833v-46.86h1.833V1499.797z"/>
		<path fill="#3E2D4E" d="M910.234,1453.02c0.111,0.056,0.233,0.172,0.367,0.35l31.996,43.294c-0.022-0.2-0.033-0.4-0.033-0.6
			s0-0.388,0-0.566v-42.561h1.6v46.86h-0.767c-0.289,0-0.533-0.133-0.733-0.4l-32.163-43.461c0.022,0.223,0.039,0.433,0.05,0.633
			c0.011,0.2,0.017,0.389,0.017,0.566v42.661h-1.6v-46.86h0.833C909.979,1452.936,910.123,1452.965,910.234,1453.02z"/>
		<path fill="#3E2D4E" d="M960.86,1499.797h-1.833v-46.86h1.833V1499.797z"/>
		<path fill="#3E2D4E" d="M1003.387,1452.936v1.566h-25.83v20.764h21.764v1.533h-21.764v21.431h25.896l-0.067,1.566h-27.663v-46.86
			H1003.387L1003.387,1452.936z"/>
		<path fill="#3E2D4E" d="M1027.484,1484.466c0,2.622-0.322,4.921-0.967,6.899s-1.561,3.633-2.75,4.966
			c-1.189,1.333-2.622,2.333-4.299,3c-1.678,0.667-3.539,1-5.583,1c-1.889,0-3.866-0.333-5.933-1l0.133-0.866
			c0.044-0.111,0.094-0.222,0.15-0.333c0.055-0.111,0.205-0.167,0.45-0.167c0.2,0,0.444,0.045,0.733,0.133
			c0.289,0.089,0.633,0.183,1.033,0.283c0.4,0.1,0.867,0.195,1.4,0.283c0.533,0.089,1.167,0.133,1.9,0.133
			c1.821,0,3.466-0.294,4.933-0.883c1.466-0.588,2.71-1.477,3.733-2.666c1.021-1.188,1.811-2.677,2.366-4.466
			c0.555-1.788,0.833-3.883,0.833-6.282v-31.562h1.867v31.528H1027.484z"/>
		<path fill="#3E2D4E" d="M1063.978,1457.803c-0.133,0.222-0.322,0.333-0.566,0.333c-0.245,0-0.583-0.217-1.017-0.65
			c-0.433-0.433-1.039-0.917-1.816-1.45c-0.778-0.533-1.778-1.017-3-1.45c-1.222-0.434-2.733-0.65-4.533-0.65
			c-1.822,0-3.438,0.272-4.85,0.816c-1.411,0.545-2.594,1.283-3.549,2.216c-0.956,0.933-1.678,2.005-2.167,3.216
			c-0.489,1.211-0.733,2.483-0.733,3.816c0,1.711,0.344,3.139,1.033,4.283c0.688,1.145,1.6,2.105,2.733,2.883
			c1.133,0.778,2.416,1.433,3.849,1.966c1.434,0.533,2.905,1.05,4.417,1.55c1.511,0.5,2.983,1.033,4.416,1.6
			c1.433,0.567,2.716,1.283,3.849,2.15s2.044,1.939,2.733,3.216c0.688,1.278,1.033,2.861,1.033,4.749c0,1.933-0.328,3.75-0.983,5.45
			c-0.656,1.7-1.611,3.178-2.866,4.433c-1.256,1.255-2.789,2.245-4.6,2.966s-3.872,1.083-6.182,1.083
			c-1.578,0-3.005-0.139-4.283-0.417c-1.278-0.278-2.455-0.678-3.533-1.2s-2.066-1.161-2.966-1.917
			c-0.9-0.756-1.761-1.611-2.583-2.566l0.434-0.667c0.111-0.111,0.205-0.194,0.283-0.25c0.078-0.055,0.194-0.083,0.35-0.083
			c0.155,0,0.372,0.139,0.65,0.417c0.277,0.278,0.638,0.623,1.083,1.033c0.444,0.412,0.978,0.856,1.6,1.333
			c0.622,0.478,1.361,0.922,2.216,1.333c0.855,0.412,1.844,0.756,2.966,1.033c1.122,0.278,2.394,0.417,3.816,0.417
			c2.021,0,3.833-0.316,5.433-0.95c1.6-0.633,2.95-1.5,4.049-2.6c1.1-1.1,1.938-2.383,2.516-3.85
			c0.578-1.467,0.867-3.033,0.867-4.699c0-1.777-0.345-3.244-1.033-4.399c-0.689-1.155-1.595-2.122-2.716-2.9
			c-1.122-0.777-2.405-1.427-3.85-1.95c-1.444-0.521-2.916-1.021-4.416-1.5c-1.5-0.478-2.972-1-4.416-1.566
			c-1.444-0.567-2.728-1.289-3.85-2.167c-1.122-0.877-2.028-1.966-2.716-3.266c-0.689-1.3-1.033-2.927-1.033-4.883
			c0-1.533,0.288-3,0.866-4.399c0.578-1.4,1.417-2.638,2.517-3.716c1.1-1.077,2.455-1.938,4.066-2.583
			c1.611-0.644,3.46-0.966,5.549-0.966c2.355,0,4.438,0.378,6.249,1.133c1.811,0.755,3.505,1.933,5.083,3.533L1063.978,1457.803z"/>
		<path fill="#3E2D4E" d="M1106.705,1452.936v0.533c0,0.289-0.111,0.611-0.333,0.967l-31.462,43.794h31.663v1.566h-34.162v-0.566
			c0-0.178,0.022-0.328,0.066-0.45c0.044-0.122,0.122-0.25,0.233-0.383l31.496-43.894h-31.096v-1.566L1106.705,1452.936
			L1106.705,1452.936z"/>
		<path fill="#3E2D4E" d="M1129.802,1480.099v19.697h-1.867v-19.697l-17.397-27.163h1.566c0.2,0,0.355,0.039,0.466,0.117
			c0.111,0.078,0.222,0.206,0.333,0.383l14.832,23.264c0.222,0.378,0.427,0.745,0.616,1.1c0.188,0.355,0.361,0.711,0.517,1.066
			c0.155-0.377,0.328-0.738,0.517-1.083c0.188-0.344,0.395-0.705,0.617-1.083l14.832-23.264c0.177-0.333,0.433-0.5,0.767-0.5h1.6
			L1129.802,1480.099z"/>
		<path fill="#3E2D4E" d="M1178.427,1489.132c0.088-0.2,0.177-0.405,0.267-0.617c0.088-0.211,0.188-0.428,0.3-0.65l19.73-34.496
			c0.111-0.177,0.228-0.294,0.35-0.35c0.122-0.055,0.272-0.083,0.45-0.083h1.1v46.86h-1.6v-42.861c0-0.155,0-0.322,0-0.5
			s0.011-0.355,0.033-0.533l-19.664,34.462c-0.222,0.378-0.489,0.567-0.8,0.567h-0.333c-0.333,0-0.611-0.189-0.833-0.567
			l-20.264-34.529c0.022,0.178,0.039,0.362,0.05,0.55c0.011,0.189,0.017,0.372,0.017,0.55v42.861h-1.6v-46.86h1.1
			c0.178,0,0.328,0.028,0.45,0.083c0.122,0.056,0.239,0.172,0.35,0.35l20.331,34.529L1178.427,1489.132z"/>
		<path fill="#3E2D4E" d="M1235.952,1480.2v19.597h-1.833v-46.86h11.199c5.287,0,9.303,1.133,12.049,3.399
			c2.742,2.267,4.115,5.666,4.115,10.199c0,1.978-0.383,3.805-1.15,5.482c-0.766,1.678-1.861,3.122-3.283,4.333
			c-1.422,1.211-3.127,2.155-5.115,2.833s-4.193,1.017-6.615,1.017H1235.952L1235.952,1480.2z M1235.952,1478.7h9.366
			c2.199,0,4.182-0.311,5.949-0.933c1.766-0.622,3.266-1.478,4.498-2.566c1.234-1.088,2.184-2.377,2.85-3.866
			c0.668-1.488,1-3.088,1-4.799c0-3.955-1.188-6.966-3.566-9.032c-2.377-2.066-5.953-3.1-10.73-3.1h-9.366L1235.952,1478.7
			L1235.952,1478.7z"/>
		<path fill="#3E2D4E" d="M1312.608,1476.367c0,3.666-0.533,6.972-1.6,9.916c-1.066,2.944-2.566,5.455-4.5,7.532
			c-1.933,2.078-4.244,3.672-6.932,4.783c-2.689,1.111-5.666,1.667-8.933,1.667c-3.222,0-6.177-0.555-8.865-1.667
			c-2.688-1.111-4.999-2.705-6.933-4.783c-1.933-2.078-3.433-4.588-4.499-7.532c-1.066-2.944-1.6-6.25-1.6-9.916
			c0-3.644,0.533-6.943,1.6-9.898c1.067-2.955,2.566-5.471,4.499-7.549c1.934-2.077,4.244-3.683,6.933-4.816s5.644-1.7,8.865-1.7
			c3.267,0,6.243,0.562,8.933,1.683c2.688,1.122,4.999,2.722,6.932,4.799c1.934,2.078,3.434,4.594,4.5,7.549
			C1312.075,1469.39,1312.608,1472.701,1312.608,1476.367z M1310.675,1476.367c0-3.488-0.483-6.616-1.45-9.382
			c-0.967-2.766-2.333-5.116-4.1-7.049c-1.767-1.933-3.878-3.411-6.332-4.433c-2.456-1.022-5.172-1.533-8.149-1.533
			c-2.933,0-5.627,0.511-8.082,1.533s-4.566,2.5-6.332,4.433c-1.767,1.933-3.145,4.283-4.133,7.049
			c-0.989,2.767-1.483,5.894-1.483,9.382c0,3.489,0.494,6.616,1.483,9.382c0.988,2.767,2.366,5.105,4.133,7.016
			c1.766,1.911,3.877,3.377,6.332,4.399c2.455,1.022,5.149,1.533,8.082,1.533c2.978,0,5.693-0.511,8.149-1.533
			c2.454-1.022,4.565-2.488,6.332-4.399c1.767-1.911,3.133-4.25,4.1-7.016C1310.192,1482.982,1310.675,1479.855,1310.675,1476.367z"
			/>
		<path fill="#3E2D4E" d="M1351.037,1452.936v1.6h-17.164v45.261h-1.834v-45.261h-17.264v-1.6H1351.037z"/>
		<path fill="#3E2D4E" d="M1353.869,1452.936h1.5c0.378,0,0.622,0.189,0.733,0.566l12.932,41.628c0.2,0.733,0.389,1.522,0.566,2.366
			c0.089-0.422,0.184-0.833,0.283-1.233c0.099-0.4,0.205-0.778,0.316-1.133l14.432-41.628c0.111-0.377,0.378-0.566,0.8-0.566h0.434
			c0.377,0,0.622,0.189,0.733,0.566l14.431,41.628c0.223,0.689,0.422,1.478,0.601,2.366c0.088-0.444,0.178-0.861,0.267-1.25
			c0.088-0.389,0.188-0.761,0.3-1.117l12.932-41.628c0.11-0.377,0.377-0.566,0.8-0.566h1.366l-14.831,46.86h-1.633l-14.865-43.261
			c-0.155-0.377-0.289-0.822-0.399-1.333c-0.045,0.245-0.095,0.479-0.15,0.7c-0.056,0.222-0.116,0.433-0.184,0.633l-14.931,43.261
			h-1.6L1353.869,1452.936z"/>
		<path fill="#3E2D4E" d="M1428.425,1499.797h-1.833v-46.86h1.833V1499.797z"/>
		<path fill="#3E2D4E" d="M1470.953,1452.936v1.566h-25.83v20.764h21.764v1.533h-21.764v21.431h25.896l-0.066,1.566h-27.663v-46.86
			H1470.953L1470.953,1452.936z"/>
		<path fill="#3E2D4E" d="M1483.883,1477.733v22.063h-1.833v-46.86h11.298c5.088,0,8.954,0.989,11.599,2.966
			c2.645,1.978,3.966,4.978,3.966,8.999c0,1.845-0.345,3.522-1.033,5.033s-1.655,2.816-2.899,3.917
			c-1.244,1.1-2.755,1.972-4.532,2.616c-1.778,0.645-3.744,1.033-5.899,1.167c0.4,0.222,0.788,0.556,1.166,1l17.432,21.164h-1.5
			c-0.245,0-0.461-0.033-0.649-0.1c-0.189-0.066-0.373-0.222-0.551-0.466l-16.53-20.231c-0.179-0.244-0.362-0.444-0.551-0.6
			c-0.188-0.155-0.399-0.284-0.633-0.383c-0.233-0.1-0.512-0.172-0.833-0.217c-0.322-0.044-0.717-0.066-1.184-0.066h-6.834V1477.733
			z M1483.883,1476.333h8.932c2.2,0,4.183-0.261,5.949-0.783s3.267-1.278,4.5-2.267c1.232-0.988,2.177-2.183,2.833-3.583
			c0.654-1.399,0.982-2.977,0.982-4.732c0-3.622-1.178-6.288-3.532-7.999c-2.355-1.71-5.755-2.566-10.199-2.566h-9.465
			L1483.883,1476.333L1483.883,1476.333z"/>
		<path fill="#3E2D4E" d="M1560.672,1476.367c0,3.666-0.533,6.949-1.6,9.849c-1.067,2.899-2.566,5.355-4.5,7.366
			c-1.933,2.011-4.244,3.549-6.933,4.616c-2.688,1.066-5.654,1.6-8.898,1.6h-16.897v-46.86h16.897c3.244,0,6.21,0.533,8.898,1.6
			c2.688,1.067,5,2.605,6.933,4.616c1.934,2.011,3.433,4.466,4.5,7.366C1560.139,1469.417,1560.672,1472.701,1560.672,1476.367z
			 M1558.739,1476.367c0-3.488-0.483-6.593-1.449-9.315c-0.967-2.722-2.333-5.016-4.1-6.882c-1.767-1.867-3.878-3.288-6.333-4.266
			s-5.16-1.466-8.115-1.466h-15.064v43.86h15.064c2.955,0,5.66-0.488,8.115-1.466s4.566-2.399,6.333-4.266
			c1.767-1.866,3.133-4.16,4.1-6.882C1558.255,1482.96,1558.739,1479.855,1558.739,1476.367z"/>
		<path fill="#3E2D4E" d="M1600.632,1452.936v0.533c0,0.289-0.111,0.611-0.333,0.967l-31.462,43.794h31.662v1.566h-34.162v-0.566
			c0-0.178,0.021-0.328,0.066-0.45c0.044-0.122,0.122-0.25,0.233-0.383l31.496-43.894h-31.096v-1.566L1600.632,1452.936
			L1600.632,1452.936z"/>
		<path fill="#3E2D4E" d="M1645.226,1499.797h-1.433c-0.334,0-0.578-0.188-0.733-0.566l-6.1-14.832h-24.063l-6.099,14.832
			c-0.111,0.378-0.367,0.566-0.767,0.566h-1.366l19.397-46.86h1.766L1645.226,1499.797z M1613.498,1482.999h22.863l-10.731-26.096
			c-0.112-0.311-0.229-0.622-0.351-0.934c-0.122-0.311-0.239-0.655-0.35-1.033c-0.111,0.378-0.229,0.723-0.35,1.033
			c-0.123,0.312-0.239,0.623-0.351,0.934L1613.498,1482.999z"/>
	</g>
	<g>
		<path fill="#3E2D4E" d="M779.783,1976.443c2.422,0,4.583-0.428,6.482-1.283c1.9-0.855,3.511-2.027,4.833-3.517
			c1.321-1.488,2.333-3.237,3.033-5.249c0.7-2.011,1.05-4.171,1.05-6.482v-29.263h1.867v29.263c0,2.533-0.4,4.905-1.2,7.116
			c-0.8,2.211-1.95,4.138-3.449,5.782c-1.5,1.645-3.311,2.938-5.433,3.883c-2.122,0.944-4.516,1.416-7.183,1.416
			c-2.666,0-5.066-0.472-7.199-1.416c-2.133-0.944-3.944-2.238-5.433-3.883s-2.633-3.571-3.433-5.782
			c-0.8-2.211-1.2-4.583-1.2-7.116v-29.263h1.833v29.196c0,2.311,0.35,4.478,1.05,6.499c0.7,2.022,1.711,3.782,3.033,5.282
			s2.938,2.678,4.85,3.533C775.194,1976.015,777.361,1976.443,779.783,1976.443z"/>
		<path fill="#3E2D4E" d="M845.607,1970.543c0.089,0,0.211,0.056,0.367,0.167l0.7,0.733c-0.978,0.978-2.033,1.872-3.167,2.683
			c-1.133,0.812-2.378,1.506-3.733,2.083c-1.355,0.578-2.838,1.028-4.449,1.35s-3.383,0.483-5.316,0.483
			c-3.178,0-6.105-0.561-8.782-1.683c-2.678-1.122-4.982-2.722-6.916-4.8c-1.933-2.077-3.444-4.594-4.533-7.549
			c-1.089-2.955-1.633-6.266-1.633-9.933c0-3.576,0.544-6.837,1.633-9.781c1.088-2.944,2.627-5.466,4.616-7.566
			c1.988-2.1,4.366-3.727,7.132-4.882c2.767-1.155,5.816-1.733,9.149-1.733c3.133,0,5.91,0.478,8.332,1.433
			c2.422,0.956,4.677,2.333,6.766,4.133l-0.5,0.733c-0.089,0.156-0.267,0.233-0.533,0.233c-0.133,0-0.361-0.122-0.684-0.366
			c-0.323-0.244-0.745-0.55-1.266-0.917c-0.522-0.366-1.156-0.767-1.9-1.199c-0.745-0.434-1.617-0.834-2.616-1.2
			c-1-0.366-2.133-0.672-3.4-0.917c-1.266-0.244-2.666-0.366-4.199-0.366c-3.022,0-5.799,0.522-8.332,1.566
			c-2.533,1.045-4.711,2.533-6.533,4.466c-1.822,1.934-3.239,4.283-4.25,7.05c-1.011,2.766-1.516,5.871-1.516,9.314
			c0,3.512,0.505,6.649,1.516,9.416c1.011,2.767,2.417,5.11,4.216,7.032c1.799,1.922,3.921,3.395,6.366,4.416
			c2.444,1.022,5.099,1.533,7.966,1.533c1.8,0,3.41-0.122,4.833-0.366c1.422-0.245,2.727-0.611,3.916-1.101
			c1.188-0.488,2.289-1.088,3.3-1.8c1.011-0.711,2.016-1.521,3.016-2.433C845.329,1970.621,845.473,1970.543,845.607,1970.543z"/>
		<path fill="#3E2D4E" d="M886.068,1930.649v0.533c0,0.289-0.111,0.611-0.333,0.967l-31.462,43.794h31.663v1.566h-34.162v-0.566
			c0-0.178,0.022-0.328,0.066-0.45c0.044-0.122,0.122-0.25,0.233-0.383l31.496-43.895h-31.096v-1.566H886.068L886.068,1930.649z"/>
		<path fill="#3E2D4E" d="M923.995,1930.649v1.566h-25.83v20.764h21.764v1.533h-21.764v21.431h25.896l-0.067,1.566h-27.663v-46.86
			L923.995,1930.649L923.995,1930.649z"/>
		<path fill="#3E2D4E" d="M957.224,1935.515c-0.133,0.222-0.322,0.333-0.566,0.333c-0.245,0-0.583-0.217-1.017-0.649
			c-0.433-0.434-1.039-0.917-1.816-1.45c-0.778-0.533-1.778-1.017-3-1.45c-1.222-0.433-2.733-0.649-4.533-0.649
			c-1.822,0-3.438,0.272-4.85,0.816c-1.411,0.545-2.594,1.283-3.549,2.217c-0.956,0.933-1.678,2.005-2.167,3.216
			s-0.733,2.483-0.733,3.816c0,1.711,0.344,3.139,1.033,4.282c0.688,1.145,1.6,2.105,2.733,2.883
			c1.133,0.778,2.416,1.434,3.849,1.967c1.434,0.533,2.905,1.05,4.417,1.55c1.511,0.5,2.983,1.033,4.416,1.6
			c1.433,0.567,2.716,1.283,3.849,2.149c1.133,0.867,2.044,1.939,2.733,3.217c0.688,1.278,1.033,2.861,1.033,4.749
			c0,1.934-0.328,3.75-0.983,5.449c-0.656,1.7-1.611,3.178-2.866,4.433c-1.256,1.256-2.789,2.245-4.6,2.967
			c-1.811,0.722-3.872,1.083-6.182,1.083c-1.578,0-3.005-0.139-4.283-0.417c-1.278-0.277-2.455-0.677-3.533-1.199
			s-2.066-1.161-2.966-1.917c-0.9-0.755-1.761-1.61-2.583-2.566l0.434-0.666c0.111-0.111,0.205-0.194,0.283-0.25
			c0.078-0.056,0.194-0.083,0.35-0.083c0.155,0,0.372,0.139,0.65,0.416c0.277,0.278,0.638,0.622,1.083,1.033
			c0.444,0.412,0.978,0.855,1.6,1.333c0.622,0.479,1.361,0.923,2.216,1.334c0.855,0.411,1.844,0.755,2.966,1.033
			c1.122,0.277,2.394,0.416,3.816,0.416c2.021,0,3.833-0.316,5.433-0.95c1.6-0.633,2.95-1.499,4.049-2.6
			c1.1-1.1,1.938-2.383,2.516-3.849c0.578-1.467,0.867-3.033,0.867-4.7c0-1.777-0.345-3.243-1.033-4.399
			c-0.689-1.154-1.595-2.121-2.716-2.899c-1.122-0.777-2.405-1.427-3.85-1.949s-2.916-1.022-4.416-1.5s-2.972-1-4.416-1.566
			c-1.444-0.566-2.728-1.288-3.85-2.167c-1.122-0.877-2.028-1.966-2.716-3.266c-0.689-1.3-1.033-2.928-1.033-4.883
			c0-1.533,0.288-3,0.866-4.399c0.578-1.399,1.417-2.639,2.517-3.716c1.1-1.078,2.455-1.938,4.066-2.583s3.46-0.967,5.549-0.967
			c2.355,0,4.438,0.378,6.249,1.133c1.811,0.756,3.505,1.934,5.083,3.533L957.224,1935.515z"/>
		<path fill="#3E2D4E" d="M1000.318,1930.649v1.6h-17.165v45.261h-1.833v-45.261h-17.265v-1.6H1000.318z"/>
		<path fill="#3E2D4E" d="M1009.983,1930.732c0.111,0.056,0.233,0.173,0.367,0.351l31.996,43.294c-0.022-0.2-0.033-0.4-0.033-0.6
			s0-0.389,0-0.567v-42.561h1.6v46.86h-0.767c-0.289,0-0.533-0.134-0.733-0.4l-32.163-43.46c0.022,0.222,0.039,0.433,0.05,0.633
			c0.011,0.2,0.017,0.389,0.017,0.566v42.661h-1.6v-46.86h0.833C1009.727,1930.649,1009.871,1930.677,1009.983,1930.732z"/>
		<path fill="#3E2D4E" d="M1060.609,1977.509h-1.833v-46.86h1.833V1977.509z"/>
		<path fill="#3E2D4E" d="M1109.768,1970.543c0.089,0,0.211,0.056,0.367,0.167l0.7,0.733c-0.978,0.978-2.033,1.872-3.167,2.683
			c-1.133,0.812-2.378,1.506-3.733,2.083c-1.355,0.578-2.838,1.028-4.449,1.35s-3.383,0.483-5.316,0.483
			c-3.178,0-6.105-0.561-8.782-1.683c-2.678-1.122-4.982-2.722-6.916-4.8c-1.933-2.077-3.444-4.594-4.533-7.549
			c-1.089-2.955-1.633-6.266-1.633-9.933c0-3.576,0.544-6.837,1.633-9.781c1.088-2.944,2.627-5.466,4.616-7.566
			c1.988-2.1,4.366-3.727,7.132-4.882c2.767-1.155,5.816-1.733,9.149-1.733c3.133,0,5.91,0.478,8.332,1.433
			c2.422,0.956,4.677,2.333,6.766,4.133l-0.5,0.733c-0.089,0.156-0.267,0.233-0.533,0.233c-0.133,0-0.361-0.122-0.684-0.366
			c-0.323-0.244-0.745-0.55-1.266-0.917c-0.522-0.366-1.156-0.767-1.9-1.199c-0.745-0.434-1.617-0.834-2.616-1.2
			c-1-0.366-2.133-0.672-3.4-0.917c-1.266-0.244-2.666-0.366-4.199-0.366c-3.022,0-5.799,0.522-8.332,1.566
			c-2.533,1.045-4.711,2.533-6.533,4.466c-1.822,1.934-3.239,4.283-4.25,7.05c-1.011,2.766-1.516,5.871-1.516,9.314
			c0,3.512,0.505,6.649,1.516,9.416c1.011,2.767,2.417,5.11,4.216,7.032c1.799,1.922,3.921,3.395,6.366,4.416
			c2.444,1.022,5.099,1.533,7.966,1.533c1.8,0,3.41-0.122,4.833-0.366c1.422-0.245,2.727-0.611,3.916-1.101
			c1.188-0.488,2.289-1.088,3.3-1.8c1.011-0.711,2.016-1.521,3.016-2.433C1109.49,1970.621,1109.635,1970.543,1109.768,1970.543z"/>
		<path fill="#3E2D4E" d="M1150.596,1930.649v1.6h-17.165v45.261h-1.833v-45.261h-17.265v-1.6H1150.596z"/>
		<path fill="#3E2D4E" d="M1153.428,1930.649h1.5c0.377,0,0.622,0.189,0.733,0.566l12.932,41.628c0.2,0.733,0.388,1.522,0.566,2.366
			c0.088-0.422,0.183-0.833,0.283-1.233c0.1-0.399,0.205-0.777,0.317-1.133l14.431-41.628c0.111-0.377,0.377-0.566,0.8-0.566h0.434
			c0.377,0,0.622,0.189,0.733,0.566l14.432,41.628c0.222,0.688,0.422,1.478,0.6,2.366c0.089-0.444,0.178-0.86,0.267-1.25
			c0.089-0.389,0.189-0.761,0.3-1.116l12.932-41.628c0.111-0.377,0.377-0.566,0.8-0.566h1.366l-14.831,46.86h-1.633l-14.865-43.261
			c-0.156-0.378-0.289-0.822-0.4-1.333c-0.044,0.244-0.095,0.478-0.15,0.699c-0.056,0.223-0.117,0.434-0.183,0.634l-14.932,43.261
			h-1.6L1153.428,1930.649z"/>
		<path fill="#3E2D4E" d="M1266.513,1954.078c0,3.667-0.533,6.972-1.6,9.916c-1.067,2.944-2.566,5.455-4.5,7.532
			c-1.934,2.078-4.244,3.672-6.932,4.782c-2.689,1.111-5.666,1.667-8.934,1.667c-3.221,0-6.177-0.556-8.865-1.667
			c-2.689-1.11-5-2.704-6.933-4.782c-1.933-2.077-3.433-4.588-4.499-7.532c-1.067-2.944-1.6-6.249-1.6-9.916
			c0-3.644,0.533-6.942,1.6-9.898c1.066-2.954,2.566-5.471,4.499-7.549c1.933-2.077,4.244-3.683,6.933-4.816
			c2.688-1.133,5.644-1.699,8.865-1.699c3.268,0,6.244,0.562,8.934,1.683c2.688,1.123,4.998,2.723,6.932,4.8
			c1.934,2.078,3.434,4.594,4.5,7.549C1265.979,1947.103,1266.513,1950.412,1266.513,1954.078z M1264.58,1954.078
			c0-3.487-0.482-6.615-1.449-9.382c-0.967-2.766-2.334-5.116-4.1-7.049c-1.768-1.933-3.879-3.41-6.332-4.433
			c-2.457-1.021-5.172-1.533-8.15-1.533c-2.932,0-5.626,0.512-8.082,1.533c-2.456,1.022-4.566,2.5-6.333,4.433
			c-1.767,1.933-3.145,4.283-4.133,7.049c-0.989,2.767-1.483,5.895-1.483,9.382c0,3.489,0.494,6.616,1.483,9.383
			c0.988,2.766,2.366,5.104,4.133,7.016c1.767,1.912,3.877,3.378,6.333,4.399c2.455,1.022,5.15,1.533,8.082,1.533
			c2.979,0,5.693-0.511,8.15-1.533c2.453-1.021,4.564-2.488,6.332-4.399c1.766-1.911,3.133-4.25,4.1-7.016
			C1264.097,1960.695,1264.58,1957.568,1264.58,1954.078z"/>
		<path fill="#3E2D4E" d="M1289.543,1930.649h1.5c0.378,0,0.622,0.189,0.733,0.566l12.932,41.628c0.2,0.733,0.389,1.522,0.566,2.366
			c0.089-0.422,0.184-0.833,0.283-1.233c0.1-0.399,0.205-0.777,0.316-1.133l14.432-41.628c0.111-0.377,0.378-0.566,0.8-0.566h0.434
			c0.377,0,0.622,0.189,0.733,0.566l14.431,41.628c0.223,0.688,0.422,1.478,0.601,2.366c0.088-0.444,0.178-0.86,0.267-1.25
			c0.088-0.389,0.188-0.761,0.3-1.116l12.932-41.628c0.11-0.377,0.377-0.566,0.8-0.566h1.366l-14.831,46.86h-1.633l-14.865-43.261
			c-0.155-0.378-0.289-0.822-0.399-1.333c-0.045,0.244-0.095,0.478-0.15,0.699c-0.056,0.223-0.116,0.434-0.184,0.634l-14.931,43.261
			h-1.6L1289.543,1930.649z"/>
		<path fill="#3E2D4E" d="M1401.26,1935.515c-0.133,0.222-0.322,0.333-0.566,0.333c-0.245,0-0.583-0.217-1.017-0.649
			c-0.434-0.434-1.039-0.917-1.816-1.45c-0.778-0.533-1.777-1.017-3-1.45c-1.222-0.433-2.732-0.649-4.532-0.649
			c-1.822,0-3.438,0.272-4.85,0.816c-1.411,0.545-2.594,1.283-3.549,2.217c-0.956,0.933-1.679,2.005-2.167,3.216
			c-0.489,1.211-0.733,2.483-0.733,3.816c0,1.711,0.345,3.139,1.033,4.282c0.688,1.145,1.6,2.105,2.733,2.883
			c1.133,0.778,2.416,1.434,3.85,1.967c1.433,0.533,2.904,1.05,4.416,1.55c1.511,0.5,2.982,1.033,4.416,1.6
			c1.433,0.566,2.716,1.283,3.85,2.149c1.133,0.867,2.044,1.939,2.732,3.217c0.688,1.278,1.033,2.861,1.033,4.749
			c0,1.934-0.328,3.75-0.983,5.449c-0.655,1.7-1.61,3.178-2.866,4.433c-1.255,1.256-2.788,2.245-4.599,2.967
			c-1.812,0.722-3.872,1.083-6.183,1.083c-1.578,0-3.006-0.139-4.283-0.417c-1.277-0.277-2.455-0.677-3.532-1.199
			c-1.078-0.522-2.066-1.161-2.967-1.917c-0.899-0.755-1.761-1.61-2.583-2.566l0.434-0.666c0.11-0.111,0.205-0.194,0.283-0.25
			c0.077-0.056,0.194-0.083,0.35-0.083s0.372,0.139,0.65,0.416c0.277,0.278,0.639,0.622,1.083,1.033
			c0.444,0.412,0.978,0.855,1.6,1.333c0.622,0.479,1.361,0.923,2.217,1.334c0.854,0.411,1.844,0.755,2.966,1.033
			c1.122,0.277,2.395,0.416,3.816,0.416c2.021,0,3.833-0.316,5.433-0.95c1.6-0.633,2.949-1.499,4.05-2.6
			c1.1-1.1,1.938-2.383,2.516-3.849c0.578-1.467,0.867-3.033,0.867-4.7c0-1.777-0.345-3.243-1.033-4.399
			c-0.689-1.154-1.595-2.121-2.717-2.899c-1.122-0.777-2.405-1.427-3.85-1.949s-2.916-1.022-4.416-1.5s-2.972-1-4.416-1.566
			c-1.444-0.566-2.728-1.288-3.85-2.167c-1.122-0.877-2.027-1.966-2.716-3.266s-1.033-2.928-1.033-4.883
			c0-1.533,0.288-3,0.866-4.399c0.577-1.399,1.417-2.639,2.517-3.716c1.1-1.078,2.455-1.938,4.066-2.583
			c1.61-0.645,3.46-0.967,5.549-0.967c2.354,0,4.438,0.378,6.249,1.133c1.811,0.756,3.505,1.934,5.083,3.533L1401.26,1935.515z"/>
		<path fill="#3E2D4E" d="M1443.988,1930.649v0.533c0,0.289-0.111,0.611-0.333,0.967l-31.462,43.794h31.662v1.566h-34.162v-0.566
			c0-0.178,0.021-0.328,0.066-0.45c0.044-0.122,0.122-0.25,0.233-0.383l31.496-43.895h-31.096v-1.566H1443.988L1443.988,1930.649z"
			/>
		<path fill="#3E2D4E" d="M1456.086,1952.879h2.999c0.422,0,0.783-0.011,1.084-0.033c0.3-0.022,0.577-0.078,0.833-0.167
			c0.255-0.089,0.488-0.211,0.699-0.366c0.211-0.155,0.438-0.355,0.684-0.601l20.664-20.363c0.267-0.267,0.517-0.45,0.75-0.55
			c0.233-0.101,0.505-0.15,0.816-0.15h1.333l-21.83,21.497c-0.4,0.378-0.739,0.667-1.017,0.866c-0.278,0.2-0.616,0.356-1.017,0.467
			c0.422,0.111,0.788,0.267,1.1,0.467c0.312,0.2,0.634,0.489,0.967,0.866l23.13,22.697h-1.333c-0.422,0-0.733-0.05-0.933-0.15
			c-0.2-0.1-0.39-0.261-0.567-0.482l-21.73-21.164c-0.244-0.244-0.466-0.45-0.666-0.617c-0.2-0.166-0.423-0.305-0.667-0.416
			c-0.244-0.111-0.539-0.194-0.883-0.25c-0.345-0.056-0.783-0.083-1.316-0.083h-3.1v23.163h-1.833v-46.86h1.833V1952.879z"/>
		<path fill="#3E2D4E" d="M1532.809,1954.078c0,3.667-0.533,6.972-1.6,9.916c-1.067,2.944-2.566,5.455-4.5,7.532
			c-1.933,2.078-4.244,3.672-6.932,4.782c-2.689,1.111-5.666,1.667-8.933,1.667c-3.222,0-6.177-0.556-8.865-1.667
			c-2.688-1.11-4.999-2.704-6.933-4.782c-1.933-2.077-3.433-4.588-4.499-7.532c-1.066-2.944-1.6-6.249-1.6-9.916
			c0-3.644,0.533-6.942,1.6-9.898c1.066-2.954,2.566-5.471,4.499-7.549c1.934-2.077,4.244-3.683,6.933-4.816
			c2.688-1.133,5.644-1.699,8.865-1.699c3.267,0,6.243,0.562,8.933,1.683c2.688,1.123,4.999,2.723,6.932,4.8
			c1.934,2.078,3.434,4.594,4.5,7.549C1532.275,1947.103,1532.809,1950.412,1532.809,1954.078z M1530.877,1954.078
			c0-3.487-0.483-6.615-1.45-9.382c-0.967-2.766-2.333-5.116-4.1-7.049c-1.767-1.933-3.878-3.41-6.332-4.433
			c-2.456-1.021-5.172-1.533-8.149-1.533c-2.933,0-5.627,0.512-8.082,1.533c-2.455,1.022-4.566,2.5-6.332,4.433
			c-1.767,1.933-3.145,4.283-4.133,7.049c-0.989,2.767-1.483,5.895-1.483,9.382c0,3.489,0.494,6.616,1.483,9.383
			c0.988,2.766,2.366,5.104,4.133,7.016c1.766,1.911,3.877,3.378,6.332,4.399c2.455,1.022,5.149,1.533,8.082,1.533
			c2.978,0,5.693-0.511,8.149-1.533c2.454-1.021,4.565-2.488,6.332-4.399c1.767-1.911,3.133-4.25,4.1-7.016
			C1530.393,1960.695,1530.877,1957.568,1530.877,1954.078z"/>
		<path fill="#3E2D4E" d="M1546.374,1975.91h23.23v1.6h-25.063v-46.86h1.833V1975.91z"/>
		<path fill="#3E2D4E" d="M1605.698,1930.649v1.566h-25.83v20.764h21.764v1.533h-21.764v21.431h25.896l-0.066,1.566h-27.663v-46.86
			L1605.698,1930.649L1605.698,1930.649z"/>
		<path fill="#3E2D4E" d="M1618.063,1930.732c0.11,0.056,0.233,0.173,0.366,0.351l31.996,43.294c-0.022-0.2-0.034-0.4-0.034-0.6
			s0-0.389,0-0.567v-42.561h1.601v46.86h-0.767c-0.289,0-0.533-0.134-0.733-0.4l-32.162-43.46c0.021,0.222,0.038,0.433,0.05,0.633
			c0.011,0.2,0.017,0.389,0.017,0.566v42.661h-1.6v-46.86h0.833C1617.807,1930.649,1617.951,1930.677,1618.063,1930.732z"/>
		<path fill="#3E2D4E" d="M1668.689,1977.509h-1.833v-46.86h1.833V1977.509z"/>
		<path fill="#3E2D4E" d="M1700.216,1976.443c2.422,0,4.583-0.428,6.482-1.283s3.511-2.027,4.833-3.517
			c1.321-1.488,2.333-3.237,3.033-5.249c0.699-2.011,1.05-4.171,1.05-6.482v-29.263h1.866v29.263c0,2.533-0.4,4.905-1.2,7.116
			s-1.949,4.138-3.449,5.782s-3.312,2.938-5.433,3.883c-2.122,0.944-4.517,1.416-7.183,1.416s-5.065-0.472-7.199-1.416
			c-2.133-0.944-3.944-2.238-5.433-3.883s-2.633-3.571-3.433-5.782s-1.2-4.583-1.2-7.116v-29.263h1.833v29.196
			c0,2.311,0.351,4.478,1.051,6.499c0.699,2.022,1.71,3.782,3.032,5.282s2.938,2.678,4.85,3.533
			S1697.795,1976.443,1700.216,1976.443z"/>
	</g>
	<g>
		<path fill="#ECEAEE" enable-background="new    " d="M703.291,1056.715c0.651,0,1.207,0.229,1.664,0.686l3.917,4.21
			c-2.873,3.068-5.989,5.825-9.35,8.273c-3.362,2.447-7.049,4.537-11.063,6.266c-4.014,1.73-8.419,3.069-13.217,4.014
			s-10.069,1.419-15.812,1.419c-9.595,0-18.391-1.68-26.385-5.042c-7.996-3.361-14.866-8.126-20.609-14.294
			c-5.744-6.168-10.199-13.624-13.364-22.371c-3.167-8.745-4.749-18.47-4.749-29.175c0-10.507,1.631-20.102,4.896-28.783
			c3.263-8.68,7.832-16.137,13.706-22.371c5.875-6.232,12.923-11.063,21.147-14.49s17.295-5.14,27.217-5.14
			c9.463,0,17.851,1.469,25.161,4.406c7.309,2.937,13.966,7.083,19.972,12.434l-3.035,4.406c-0.523,0.783-1.338,1.175-2.447,1.175
			c-0.783,0-2.056-0.717-3.818-2.154c-1.762-1.435-4.21-3.018-7.343-4.748c-3.133-1.729-7.034-3.312-11.7-4.749
			c-4.667-1.435-10.264-2.154-16.79-2.154c-8.355,0-16.007,1.437-22.958,4.308c-6.951,2.873-12.923,6.985-17.917,12.336
			c-4.993,5.353-8.894,11.88-11.699,19.581c-2.807,7.703-4.21,16.35-4.21,25.944c0,9.791,1.419,18.538,4.259,26.238
			c2.839,7.702,6.738,14.213,11.699,19.532c4.959,5.32,10.818,9.399,17.574,12.238c6.755,2.839,14.049,4.259,21.882,4.259
			c4.959,0,9.382-0.326,13.266-0.979c3.882-0.651,7.456-1.63,10.721-2.937c3.263-1.305,6.298-2.903,9.105-4.797
			c2.805-1.892,5.581-4.112,8.322-6.657c0.326-0.26,0.651-0.473,0.979-0.636C702.637,1056.798,702.963,1056.715,703.291,1056.715z"
			/>
		<path fill="#ECEAEE" enable-background="new    " d="M854.265,965.063v6.905h-60.523v46.469h50.368v6.743h-50.368v47.931h60.686
			l-0.163,6.905h-68.891V965.063H854.265z"/>
		<path fill="#ECEAEE" enable-background="new    " d="M932.09,1028.023v51.993h-8.368V965.063h29.409
			c13.214,0,23.112,2.559,29.693,7.677c6.58,5.118,9.871,12.633,9.871,22.544c0,4.387-0.772,8.396-2.315,12.023
			c-1.543,3.629-3.737,6.812-6.581,9.545c-2.843,2.736-6.283,4.984-10.317,6.743c-4.035,1.76-8.544,2.912-13.526,3.453
			c1.3,0.812,2.464,1.896,3.494,3.25l39.563,49.718h-7.149c-0.921,0-1.693-0.148-2.315-0.447c-0.624-0.297-1.206-0.853-1.747-1.666
			l-36.882-46.631c-0.434-0.595-0.881-1.109-1.34-1.543c-0.461-0.433-0.975-0.771-1.543-1.015c-0.569-0.244-1.247-0.419-2.031-0.528
			c-0.786-0.108-1.747-0.163-2.884-0.163H932.09L932.09,1028.023z M932.09,1021.849h19.903c5.09,0,9.654-0.609,13.689-1.828
			c4.034-1.219,7.446-2.965,10.236-5.24c2.789-2.275,4.915-5.009,6.377-8.205c1.462-3.195,2.193-6.796,2.193-10.805
			c0-8.177-2.668-14.243-8.002-18.197c-5.335-3.953-13.12-5.931-23.356-5.931h-21.04V1021.849z"/>
		<path fill="#ECEAEE" enable-background="new    " d="M1136.406,965.063v7.067h-40.375v107.886h-8.368V972.13h-40.62v-7.067
			H1136.406z"/>
		<path fill="#ECEAEE" enable-background="new    " d="M1224.471,1032.654v47.362h-8.287v-47.362l-42.569-67.591h7.312
			c0.758,0,1.381,0.176,1.868,0.528c0.487,0.353,0.894,0.853,1.219,1.503l32.902,52.806c0.703,1.246,1.34,2.451,1.909,3.615
			c0.568,1.166,1.069,2.315,1.503,3.453c0.433-1.137,0.934-2.287,1.503-3.453c0.568-1.164,1.205-2.369,1.909-3.615l32.902-52.806
			c0.271-0.595,0.662-1.083,1.178-1.462c0.514-0.378,1.15-0.568,1.909-0.568h7.312L1224.471,1032.654z"/>
		<path fill="#ECEAEE" enable-background="new    " d="M1392.554,965.063v6.905h-60.523v48.337h52.399v6.906h-52.399v52.805h-8.368
			V965.063H1392.554z"/>
		<path fill="#ECEAEE" enable-background="new    " d="M1464.369,1080.016h-8.368V965.063h8.368V1080.016z"/>
		<path fill="#ECEAEE" enable-background="new    " d="M1550.806,1018.112h6.824c1.028,0,1.922-0.041,2.681-0.122
			c0.758-0.082,1.448-0.23,2.071-0.447c0.622-0.216,1.191-0.528,1.706-0.935s1.069-0.906,1.666-1.503l46.387-47.687
			c0.812-0.92,1.611-1.544,2.397-1.869c0.784-0.325,1.719-0.487,2.803-0.487h6.661l-50.206,51.586
			c-1.029,1.084-1.937,1.923-2.721,2.519c-0.786,0.597-1.666,1.084-2.641,1.462c1.138,0.325,2.165,0.826,3.087,1.503
			c0.92,0.678,1.841,1.558,2.762,2.64l52.887,55.243h-6.742c-1.409,0-2.425-0.175-3.047-0.528c-0.623-0.352-1.232-0.907-1.828-1.666
			l-48.581-49.718c-0.596-0.596-1.15-1.109-1.665-1.543c-0.516-0.433-1.084-0.799-1.706-1.097c-0.623-0.297-1.354-0.514-2.193-0.65
			c-0.84-0.134-1.909-0.203-3.209-0.203h-7.393v55.405h-8.368V965.063h8.368V1018.112z"/>
		<path fill="#ECEAEE" enable-background="new    " d="M1771.777,1080.016h-6.418c-0.76,0-1.381-0.203-1.869-0.609
			c-0.487-0.406-0.866-0.934-1.137-1.584l-13.486-33.389h-56.461l-13.485,33.389c-0.217,0.597-0.597,1.11-1.138,1.543
			c-0.542,0.434-1.191,0.65-1.949,0.65h-6.337l47.037-114.953h8.205L1771.777,1080.016z M1694.843,1038.259h51.506l-23.397-58.086
			c-0.812-1.895-1.598-4.17-2.355-6.824c-0.38,1.3-0.76,2.546-1.138,3.737c-0.38,1.192-0.759,2.248-1.138,3.168L1694.843,1038.259z"
			/>
		<path fill="#ECEAEE" enable-background="new    " d="M1899.565,965.063v7.067h-40.376v107.886h-8.367V972.13h-40.62v-7.067
			H1899.565z"/>
	</g>
	<g>
		<g>
			<g>
				<line fill="none" x1="186.319" y1="3212.33" x2="727.913" y2="3212.33"/>
				<line fill="none" stroke="#3E2D4E" stroke-miterlimit="10" x1="186.319" y1="3212.33" x2="727.913" y2="3212.33"/>
			</g>
		</g>
		<g>
			<g>
				<line fill="none" x1="1752.087" y1="3212.33" x2="2293.681" y2="3212.33"/>
				<line fill="none" stroke="#3E2D4E" stroke-miterlimit="10" x1="1752.087" y1="3212.33" x2="2293.681" y2="3212.33"/>
			</g>
		</g>
	</g>
	<pattern  id="SVGID_2_" xlink:href="#DPPB" patternTransform="matrix(1 0 0 -1 976.0659 -15585.9961)">
	</pattern>
	<rect x="1239.5" y="1701.355" fill="url(#SVGID_2_)" width="1" height="1"/>
</g>
</svg>
