<?xml version="1.0" encoding="utf-8"?>
<!-- Generator: Adobe Illustrator 17.0.0, SVG Export Plug-In . SVG Version: 6.00 Build 0)  -->
<!DOCTYPE svg PUBLIC "-//W3C//DTD SVG 1.1//EN" "http://www.w3.org/Graphics/SVG/1.1/DTD/svg11.dtd">
<svg version="1.1" id="Layer_1" xmlns="http://www.w3.org/2000/svg" xmlns:xlink="http://www.w3.org/1999/xlink" x="0px" y="0px"
	 width="2480px" height="465px" viewBox="0 0 2480 465" enable-background="new 0 0 2480 465" xml:space="preserve">
<rect y="0.154" opacity="0.8" fill="#3E2D4E" width="2480" height="465"/>
<g>
	<g>
		<path fill="#FFFFFF" d="M982.172,177.586c-11.361,0-19.899-3.918-25.621-11.754c-5.721-7.835-8.582-19.629-8.582-35.383
			c0-15.919,2.86-27.797,8.582-35.632s14.26-11.753,25.621-11.753c11.358,0,19.899,3.939,25.62,11.815
			c5.721,7.878,8.582,19.734,8.582,35.57c0,15.671-2.882,27.445-8.644,35.321C1001.967,173.649,993.447,177.586,982.172,177.586z
			 M982.172,170.746c9.036,0,15.69-3.253,19.961-9.763c4.27-6.509,6.405-16.686,6.405-30.533c0-13.846-2.157-24.066-6.467-30.658
			c-4.312-6.591-10.944-9.887-19.899-9.887c-9.039,0-15.692,3.255-19.961,9.763c-4.271,6.51-6.405,16.771-6.405,30.782
			c0,13.93,2.134,24.128,6.405,30.595C966.48,167.512,973.134,170.746,982.172,170.746z"/>
		<path fill="#FFFFFF" d="M1057.913,149.229c-1.244,0.249-2.612,0.416-4.104,0.498c-1.493,0.083-2.985,0.124-4.478,0.124
			c-1.576,0-3.171-0.041-4.788-0.124c-1.617-0.082-3.338-0.206-5.162-0.373v26.988h-7.462v-71.264
			c3.066-0.579,6.051-0.995,8.955-1.244c2.901-0.249,5.721-0.373,8.457-0.373c10.778,0,18.613,1.866,23.506,5.597
			c4.891,3.731,7.338,9.62,7.338,17.661c0,5.721-1.244,10.304-3.731,13.743c-2.487,3.441-6.343,5.907-11.566,7.4l16.915,28.48
			h-8.084L1057.913,149.229z M1050.078,143.632c8.125,0,13.949-1.306,17.474-3.917c3.523-2.612,5.286-6.943,5.286-12.997
			c0-5.97-1.763-10.28-5.286-12.935c-3.525-2.652-9.184-3.979-16.977-3.979c-1.659,0-3.463,0.083-5.41,0.249
			c-1.949,0.167-3.876,0.373-5.783,0.622v32.336c1.409,0.167,3.129,0.311,5.162,0.435
			C1046.574,143.571,1048.418,143.632,1050.078,143.632z"/>
		<path fill="#FFFFFF" d="M1107.786,111.172h-22.387v-6.591h52.111v6.591h-22.263v65.17h-7.462V111.172z"/>
		<path fill="#FFFFFF" d="M1149.448,104.581h7.462v31.839h39.674v-31.839h7.462v71.762h-7.462v-33.456h-39.674v33.456h-7.462
			V104.581z"/>
		<path fill="#FFFFFF" d="M1249.813,177.337c-20.066,0-30.098-12.271-30.098-36.813c0-24.626,10.031-36.938,30.098-36.938
			c9.866,0,17.328,3.068,22.387,9.204c5.057,6.137,7.588,15.381,7.588,27.735c0,12.271-2.531,21.475-7.588,27.61
			C1267.142,174.271,1259.68,177.337,1249.813,177.337z M1249.813,170.746c7.711,0,13.391-2.425,17.039-7.275
			s5.473-12.5,5.473-22.946c0-10.447-1.846-18.137-5.535-23.071c-3.689-4.932-9.349-7.4-16.977-7.4
			c-7.711,0-13.413,2.447-17.101,7.338c-3.69,4.893-5.534,12.604-5.534,23.133c0,10.53,1.823,18.2,5.472,23.008
			C1236.298,168.341,1242.02,170.746,1249.813,170.746z"/>
		<path fill="#FFFFFF" d="M1312.994,178.208c-3.152,0-6.178-0.104-9.079-0.311c-2.903-0.208-5.556-0.519-7.96-0.933V84.93
			c3.896-0.579,7.649-1.036,11.256-1.368c3.606-0.33,6.778-0.497,9.515-0.497c13.929,0,24.168,3.836,30.719,11.504
			c6.549,7.67,9.825,19.631,9.825,35.881c0,8.292-0.87,15.443-2.611,21.454c-1.741,6.012-4.415,10.966-8.021,14.862
			c-3.607,3.897-8.189,6.777-13.743,8.644C1327.338,177.275,1320.705,178.208,1312.994,178.208z M1314.735,171.368
			c11.772,0,20.479-3.315,26.118-9.95c5.637-6.632,8.457-16.955,8.457-30.968c0-14.178-2.571-24.48-7.711-30.906
			c-5.143-6.425-13.308-9.639-24.501-9.639c-2.157,0-4.416,0.083-6.778,0.249c-2.363,0.167-4.623,0.457-6.778,0.871v79.473
			c2.238,0.333,4.229,0.56,5.97,0.685C1311.253,171.305,1312.994,171.368,1314.735,171.368z"/>
		<path fill="#FFFFFF" d="M1362.741,175.72l25.62-71.14h10.695l25.496,71.14v0.622h-7.213l-7.96-21.765h-31.342l-8.084,21.765
			h-7.213V175.72z M1407.515,148.608l-9.701-26.74l-3.855-11.069h-0.622l-3.731,11.069l-9.949,26.74H1407.515z"/>
		<path fill="#FFFFFF" d="M1447.313,152.214l-26.242-47.634h8.208l18.78,34.202l2.611,6.094h0.622l2.611-6.094l18.78-34.202h8.209
			l-26.118,47.385v24.377h-7.462V152.214z"/>
	</g>
	<g>
		<g>
			<defs>
				<polyline id="SVGID_1_" points="2354.285,276.097 126.334,276.097 126.334,387.531 2354.285,387.531 2354.285,276.097 				"/>
			</defs>
			<clipPath id="SVGID_2_">
				<use xlink:href="#SVGID_1_"  overflow="visible"/>
			</clipPath>
			<g clip-path="url(#SVGID_2_)">
				<path fill="#FFFFFF" d="M126.336,278.086c6.881-1.325,13.432-1.99,19.651-1.99c12.104,0,20.957,2.509,26.553,7.524
					c5.597,5.018,8.395,12.956,8.395,23.817c0,10.944-2.861,18.926-8.582,23.941c-5.721,5.018-14.759,7.524-27.113,7.524
					c-1.741,0-3.525-0.041-5.348-0.125c-1.825-0.081-3.774-0.206-5.846-0.373v31.093h-7.711V278.086z M146.608,332.187
					c9.285,0,16.022-1.947,20.21-5.845c4.186-3.896,6.281-10.199,6.281-18.904c0-8.539-2.052-14.758-6.156-18.656
					c-4.104-3.896-10.717-5.845-19.837-5.845c-1.99,0-4.125,0.083-6.405,0.248c-2.281,0.167-4.499,0.457-6.654,0.871v47.261
					c1.741,0.167,3.751,0.354,6.032,0.56C142.358,332.084,144.535,332.187,146.608,332.187z M220.607,342.385
					c-1.244,0.249-2.612,0.416-4.104,0.498c-1.493,0.083-2.985,0.124-4.478,0.124c-1.576,0-3.171-0.041-4.788-0.124
					c-1.617-0.082-3.338-0.206-5.162-0.373v26.988h-7.462v-71.265c3.066-0.579,6.051-0.995,8.955-1.243
					c2.901-0.249,5.721-0.373,8.457-0.373c10.778,0,18.613,1.865,23.506,5.597c4.891,3.73,7.338,9.619,7.338,17.66
					c0,5.721-1.244,10.304-3.731,13.743c-2.487,3.441-6.343,5.907-11.566,7.4l16.915,28.48h-8.084L220.607,342.385z
					 M212.772,336.789c8.125,0,13.949-1.306,17.474-3.917c3.523-2.612,5.286-6.943,5.286-12.997c0-5.97-1.763-10.28-5.286-12.935
					c-3.525-2.652-9.184-3.979-16.977-3.979c-1.659,0-3.463,0.083-5.41,0.248c-1.949,0.168-3.876,0.374-5.783,0.622v32.337
					c1.409,0.167,3.129,0.311,5.162,0.435C209.268,336.727,211.112,336.789,212.772,336.789z M284.782,370.494
					c-20.066,0-30.098-12.271-30.098-36.813c0-24.626,10.031-36.938,30.098-36.938c9.866,0,17.329,3.068,22.387,9.203
					c5.057,6.138,7.587,15.382,7.587,27.735c0,12.271-2.53,21.475-7.587,27.61C302.11,367.427,294.648,370.494,284.782,370.494z
					 M284.782,363.902c7.711,0,13.389-2.425,17.039-7.275c3.647-4.851,5.472-12.5,5.472-22.946c0-10.447-1.846-18.137-5.535-23.071
					c-3.69-4.932-9.349-7.4-16.977-7.4c-7.711,0-13.413,2.447-17.101,7.338c-3.69,4.894-5.534,12.604-5.534,23.134
					c0,10.53,1.823,18.2,5.472,23.008C271.266,361.498,276.987,363.902,284.782,363.902z M330.425,297.737h42.659v6.467h-35.197
					v26.242h32.461v6.343h-32.461v32.71h-7.462V297.737z M386.889,297.737h44.027v6.343h-36.565v25.993h33.332v6.095h-33.332v26.864
					h37.436v6.467h-44.898V297.737z M463.997,370.743c-3.317,0-7.027-0.312-11.131-0.934c-4.104-0.621-7.773-1.387-11.007-2.301
					l0.498-6.467c2.901,0.913,6.321,1.679,10.26,2.301c3.937,0.622,7.482,0.933,10.634,0.933c5.721,0,10.093-1.119,13.121-3.358
					c3.026-2.238,4.54-5.429,4.54-9.576c0-1.99-0.395-3.731-1.182-5.224c-0.789-1.492-1.928-2.817-3.42-3.979
					c-1.493-1.16-3.339-2.218-5.535-3.172c-2.198-0.952-4.664-1.885-7.4-2.798c-3.649-1.077-6.759-2.259-9.328-3.545
					c-2.571-1.284-4.664-2.693-6.28-4.229c-1.617-1.533-2.779-3.296-3.482-5.286c-0.706-1.989-1.057-4.229-1.057-6.716
					c0-6.135,2.176-10.985,6.529-14.551c4.353-3.564,10.218-5.349,17.599-5.349c2.736,0,5.554,0.167,8.457,0.498
					c2.901,0.332,6.094,0.87,9.577,1.616l-0.498,6.468c-3.317-0.746-6.427-1.306-9.328-1.679c-2.903-0.374-5.472-0.561-7.711-0.561
					c-5.224,0-9.39,1.203-12.499,3.607c-3.109,2.405-4.664,5.64-4.664,9.7c0,3.482,1.306,6.24,3.918,8.271
					c2.612,2.032,6.943,4.001,12.997,5.907c3.399,1.078,6.405,2.238,9.017,3.482c2.611,1.244,4.788,2.674,6.529,4.291
					c1.741,1.616,3.066,3.482,3.98,5.597c0.911,2.114,1.368,4.582,1.368,7.399c0,6.219-2.157,11.05-6.467,14.489
					C477.718,369.022,471.708,370.743,463.997,370.743z M494.219,384.92c1.741-3.317,3.171-6.323,4.291-9.017
					c1.119-2.695,2.009-5.308,2.674-7.836c0.663-2.527,1.119-5.099,1.368-7.711c0.249-2.611,0.373-5.534,0.373-8.768v-53.853h7.462
					v54.35c0,3.152-0.208,6.137-0.622,8.955c-0.416,2.819-1.057,5.64-1.928,8.457s-2.033,5.699-3.482,8.644
					c-1.452,2.942-3.171,6.073-5.161,9.391L494.219,384.92z M555.782,370.494c-20.066,0-30.098-12.271-30.098-36.813
					c0-24.626,10.031-36.938,30.098-36.938c9.866,0,17.329,3.068,22.387,9.203c5.057,6.138,7.587,15.382,7.587,27.735
					c0,12.271-2.53,21.475-7.587,27.61C573.11,367.427,565.648,370.494,555.782,370.494z M555.782,363.902
					c7.711,0,13.389-2.425,17.039-7.275c3.647-4.851,5.472-12.5,5.472-22.946c0-10.447-1.846-18.137-5.535-23.071
					c-3.69-4.932-9.349-7.4-16.977-7.4c-7.711,0-13.413,2.447-17.101,7.338c-3.69,4.894-5.534,12.604-5.534,23.134
					c0,10.53,1.823,18.2,5.472,23.008C542.266,361.498,547.987,363.902,555.782,363.902z M601.425,297.737h6.841l37.187,51.489
					l5.597,8.333l0.498-0.124v-59.698h6.965v71.762h-6.84l-37.187-51.365l-5.597-8.457h-0.622v59.822h-6.841V297.737z
					 M669.828,368.876l25.621-71.14h10.696l25.496,71.14v0.622h-7.214l-7.959-21.765h-31.341l-8.084,21.765h-7.213V368.876z
					 M714.601,341.764l-9.701-26.74l-3.855-11.068h-0.622l-3.731,11.068l-9.95,26.74H714.601z M742.957,297.737h7.462v65.295h30.595
					v6.467h-38.058V297.737z M792.579,297.737h6.841l37.187,51.489l5.597,8.333l0.498-0.124v-59.698h6.965v71.762h-6.84
					l-37.187-51.365l-5.597-8.457h-0.622v59.822h-6.841V297.737z M869.066,297.737h44.027v6.343h-36.565v25.993h33.332v6.095
					h-33.332v26.864h37.436v6.467h-44.898V297.737z M944.308,368.876l25.621-71.14h10.696l25.496,71.14v0.622h-7.214l-7.959-21.765
					h-31.341l-8.084,21.765h-7.213V368.876z M989.082,341.764l-9.701-26.74l-3.855-11.068h-0.622l-3.731,11.068l-9.95,26.74H989.082
					z M1034.725,370.743c-3.317,0-7.027-0.312-11.131-0.934c-4.104-0.621-7.773-1.387-11.007-2.301l0.498-6.467
					c2.901,0.913,6.321,1.679,10.26,2.301c3.937,0.622,7.482,0.933,10.634,0.933c5.721,0,10.093-1.119,13.121-3.358
					c3.026-2.238,4.54-5.429,4.54-9.576c0-1.99-0.395-3.731-1.182-5.224c-0.789-1.492-1.928-2.817-3.42-3.979
					c-1.493-1.16-3.339-2.218-5.535-3.172c-2.198-0.952-4.664-1.885-7.4-2.798c-3.649-1.077-6.759-2.259-9.328-3.545
					c-2.571-1.284-4.664-2.693-6.28-4.229c-1.617-1.533-2.779-3.296-3.482-5.286c-0.706-1.989-1.057-4.229-1.057-6.716
					c0-6.135,2.176-10.985,6.529-14.551c4.353-3.564,10.218-5.349,17.599-5.349c2.736,0,5.554,0.167,8.457,0.498
					c2.901,0.332,6.094,0.87,9.577,1.616l-0.498,6.468c-3.317-0.746-6.427-1.306-9.328-1.679c-2.903-0.374-5.472-0.561-7.711-0.561
					c-5.224,0-9.39,1.203-12.499,3.607c-3.109,2.405-4.664,5.64-4.664,9.7c0,3.482,1.306,6.24,3.918,8.271
					c2.612,2.032,6.943,4.001,12.997,5.907c3.399,1.078,6.405,2.238,9.017,3.482c2.611,1.244,4.788,2.674,6.529,4.291
					c1.741,1.616,3.066,3.482,3.98,5.597c0.911,2.114,1.368,4.582,1.368,7.399c0,6.219-2.157,11.05-6.467,14.489
					C1048.447,369.022,1042.436,370.743,1034.725,370.743z M1090.32,345.371l-26.242-47.634h8.208l18.78,34.202l2.612,6.094h0.622
					l2.612-6.094l18.78-34.202h8.208l-26.118,47.385v24.377h-7.462V345.371z M1150.639,370.743c-3.317,0-7.027-0.312-11.131-0.934
					c-4.104-0.621-7.773-1.387-11.007-2.301l0.498-6.467c2.901,0.913,6.321,1.679,10.26,2.301c3.937,0.622,7.482,0.933,10.634,0.933
					c5.721,0,10.093-1.119,13.121-3.358c3.026-2.238,4.54-5.429,4.54-9.576c0-1.99-0.395-3.731-1.182-5.224
					c-0.789-1.492-1.928-2.817-3.42-3.979c-1.493-1.16-3.339-2.218-5.535-3.172c-2.198-0.952-4.664-1.885-7.4-2.798
					c-3.649-1.077-6.759-2.259-9.328-3.545c-2.571-1.284-4.664-2.693-6.28-4.229c-1.617-1.533-2.779-3.296-3.482-5.286
					c-0.706-1.989-1.057-4.229-1.057-6.716c0-6.135,2.176-10.985,6.529-14.551c4.353-3.564,10.218-5.349,17.599-5.349
					c2.736,0,5.554,0.167,8.457,0.498c2.901,0.332,6.094,0.87,9.577,1.616l-0.498,6.468c-3.317-0.746-6.427-1.306-9.328-1.679
					c-2.903-0.374-5.472-0.561-7.711-0.561c-5.224,0-9.39,1.203-12.499,3.607c-3.109,2.405-4.664,5.64-4.664,9.7
					c0,3.482,1.306,6.24,3.918,8.271c2.612,2.032,6.943,4.001,12.997,5.907c3.399,1.078,6.405,2.238,9.017,3.482
					c2.611,1.244,4.788,2.674,6.529,4.291c1.741,1.616,3.066,3.482,3.98,5.597c0.911,2.114,1.368,4.582,1.368,7.399
					c0,6.219-2.157,11.05-6.467,14.489C1164.361,369.022,1158.35,370.743,1150.639,370.743z M1204.243,304.329h-22.387v-6.592
					h52.111v6.592h-22.263v65.17h-7.462V304.329z M1268.915,370.494c-20.066,0-30.098-12.271-30.098-36.813
					c0-24.626,10.031-36.938,30.098-36.938c9.866,0,17.328,3.068,22.387,9.203c5.057,6.138,7.587,15.382,7.587,27.735
					c0,12.271-2.53,21.475-7.587,27.61C1286.243,367.427,1278.781,370.494,1268.915,370.494z M1268.915,363.902
					c7.711,0,13.39-2.425,17.039-7.275c3.647-4.851,5.472-12.5,5.472-22.946c0-10.447-1.846-18.137-5.534-23.071
					c-3.69-4.932-9.349-7.4-16.977-7.4c-7.711,0-13.413,2.447-17.101,7.338c-3.69,4.894-5.534,12.604-5.534,23.134
					c0,10.53,1.823,18.2,5.472,23.008C1255.399,361.498,1261.12,363.902,1268.915,363.902z M1306.724,297.737h8.208l13.184,50.121
					l3.358,12.935h0.621l3.482-12.935l14.801-50.121h7.835l13.93,50.121l3.357,12.935h0.747l3.482-12.935l14.054-50.121h7.959
					l-20.894,71.762h-9.577l-14.054-49.624l-2.736-11.566h-0.621L1351,319.875l-14.8,49.624h-9.452L1306.724,297.737z
					 M1402.366,368.876l25.62-71.14h10.695l25.496,71.14v0.622h-7.213l-7.96-21.765h-31.342l-8.084,21.765h-7.213V368.876z
					 M1447.139,341.764l-9.701-26.74l-3.855-11.068h-0.622l-3.731,11.068l-9.949,26.74H1447.139z M1475.495,297.737h6.84
					l37.188,51.489l5.597,8.333l0.497-0.124v-59.698h6.965v71.762h-6.841l-37.187-51.365l-5.597-8.457h-0.622v59.822h-6.84V297.737z
					 M1551.982,297.737h7.462v71.762h-7.462V297.737z M1578.721,297.737h44.027v6.343h-36.565v25.993h33.331v6.095h-33.331v26.864
					h37.436v6.467h-44.897V297.737z M1655.331,297.737h8.208l13.184,50.121l3.358,12.935h0.621l3.482-12.935l14.801-50.121h7.835
					l13.93,50.121l3.357,12.935h0.747l3.482-12.935l14.054-50.121h7.959l-20.894,71.762h-9.577l-14.054-49.624l-2.736-11.566h-0.621
					l-2.861,11.566l-14.8,49.624h-9.452L1655.331,297.737z M1812.285,370.494c-20.066,0-30.098-12.271-30.098-36.813
					c0-24.626,10.031-36.938,30.098-36.938c9.866,0,17.328,3.068,22.387,9.203c5.057,6.138,7.587,15.382,7.587,27.735
					c0,12.271-2.53,21.475-7.587,27.61C1829.613,367.427,1822.151,370.494,1812.285,370.494z M1812.285,363.902
					c7.711,0,13.39-2.425,17.039-7.275c3.647-4.851,5.472-12.5,5.472-22.946c0-10.447-1.846-18.137-5.534-23.071
					c-3.69-4.932-9.349-7.4-16.977-7.4c-7.711,0-13.412,2.447-17.101,7.338c-3.69,4.894-5.535,12.604-5.535,23.134
					c0,10.53,1.823,18.2,5.473,23.008C1798.769,361.498,1804.491,363.902,1812.285,363.902z M1883.797,342.385
					c-1.244,0.249-2.612,0.416-4.104,0.498c-1.492,0.083-2.985,0.124-4.478,0.124c-1.576,0-3.171-0.041-4.788-0.124
					c-1.617-0.082-3.339-0.206-5.161-0.373v26.988h-7.463v-71.265c3.066-0.579,6.052-0.995,8.955-1.243
					c2.901-0.249,5.721-0.373,8.457-0.373c10.777,0,18.613,1.865,23.506,5.597c4.892,3.73,7.338,9.619,7.338,17.66
					c0,5.721-1.243,10.304-3.73,13.743c-2.487,3.441-6.343,5.907-11.566,7.4l16.914,28.48h-8.084L1883.797,342.385z
					 M1875.961,336.789c8.125,0,13.949-1.306,17.475-3.917c3.522-2.612,5.285-6.943,5.285-12.997c0-5.97-1.763-10.28-5.285-12.935
					c-3.525-2.652-9.185-3.979-16.977-3.979c-1.66,0-3.463,0.083-5.41,0.248c-1.949,0.168-3.877,0.374-5.783,0.622v32.337
					c1.408,0.167,3.129,0.311,5.161,0.435C1872.458,336.727,1874.302,336.789,1875.961,336.789z M1933.669,304.329h-22.387v-6.592
					h52.111v6.592h-22.262v65.17h-7.463V304.329z M1998.342,370.494c-20.066,0-30.098-12.271-30.098-36.813
					c0-24.626,10.031-36.938,30.098-36.938c9.866,0,17.328,3.068,22.387,9.203c5.057,6.138,7.587,15.382,7.587,27.735
					c0,12.271-2.53,21.475-7.587,27.61C2015.67,367.427,2008.208,370.494,1998.342,370.494z M1998.342,363.902
					c7.711,0,13.39-2.425,17.039-7.275c3.647-4.851,5.472-12.5,5.472-22.946c0-10.447-1.846-18.137-5.534-23.071
					c-3.69-4.932-9.349-7.4-16.977-7.4c-7.711,0-13.412,2.447-17.101,7.338c-3.69,4.894-5.535,12.604-5.535,23.134
					c0,10.53,1.823,18.2,5.473,23.008C1984.827,361.498,1990.548,363.902,1998.342,363.902z M2059.657,370.867
					c-2.903,0-5.722-0.084-8.458-0.249c-2.735-0.167-5.183-0.456-7.338-0.87V298.11c3.399-0.414,6.717-0.746,9.95-0.995
					s6.051-0.373,8.457-0.373c12.354,0,21.411,2.966,27.175,8.893c5.762,5.929,8.644,15.278,8.644,28.046
					c0,12.935-3.09,22.367-9.266,28.294C2082.643,367.903,2072.921,370.867,2059.657,370.867z M2061.273,364.399
					c10.031,0,17.391-2.444,22.076-7.338c4.684-4.891,7.026-12.686,7.026-23.381c0-10.778-2.197-18.551-6.591-23.32
					c-4.396-4.767-11.401-7.151-21.02-7.151c-1.741,0-3.628,0.084-5.658,0.249c-2.033,0.167-4.002,0.373-5.908,0.622v59.698
					c2.072,0.248,3.855,0.415,5.349,0.497C2058.04,364.359,2059.614,364.399,2061.273,364.399z M2140,370.494
					c-20.066,0-30.098-12.271-30.098-36.813c0-24.626,10.031-36.938,30.098-36.938c9.866,0,17.328,3.068,22.387,9.203
					c5.057,6.138,7.587,15.382,7.587,27.735c0,12.271-2.53,21.475-7.587,27.61C2157.328,367.427,2149.866,370.494,2140,370.494z
					 M2140,363.902c7.711,0,13.39-2.425,17.039-7.275c3.647-4.851,5.472-12.5,5.472-22.946c0-10.447-1.846-18.137-5.534-23.071
					c-3.69-4.932-9.349-7.4-16.977-7.4c-7.711,0-13.412,2.447-17.101,7.338c-3.69,4.894-5.535,12.604-5.535,23.134
					c0,10.53,1.823,18.2,5.473,23.008C2126.484,361.498,2132.206,363.902,2140,363.902z M2185.643,297.737h6.84l37.188,51.489
					l5.597,8.333l0.497-0.124v-59.698h6.965v71.762h-6.841l-37.187-51.365l-5.597-8.457h-0.622v59.822h-6.84V297.737z
					 M2291.854,370.494c-11.442-0.084-19.88-3.088-25.31-9.017c-5.432-5.928-8.146-15.193-8.146-27.797
					c0-12.768,2.674-22.096,8.022-27.983c5.348-5.887,13.783-8.831,25.309-8.831c2.072,0,4.311,0.105,6.717,0.312
					c2.403,0.208,4.808,0.519,7.213,0.933v6.343c-1.99-0.33-4.125-0.601-6.405-0.809c-2.281-0.206-4.458-0.311-6.529-0.311
					c-4.726,0-8.768,0.56-12.126,1.679s-6.115,2.882-8.271,5.286c-2.157,2.405-3.731,5.534-4.727,9.39
					c-0.994,3.855-1.492,8.52-1.492,13.992c0,10.614,2.071,18.304,6.219,23.07c4.145,4.769,10.736,7.151,19.774,7.151
					c0.828,0,1.804-0.041,2.923-0.124c1.119-0.082,2.301-0.187,3.545-0.312c1.243-0.124,2.487-0.248,3.731-0.373
					c1.243-0.124,2.362-0.268,3.357-0.436v6.219c-1.908,0.416-4.042,0.787-6.405,1.119
					C2296.891,370.327,2294.422,370.494,2291.854,370.494z M2311.628,384.92c1.741-3.317,3.171-6.323,4.29-9.017
					c1.12-2.695,2.01-5.308,2.674-7.836c0.663-2.527,1.12-5.099,1.368-7.711c0.249-2.611,0.373-5.534,0.373-8.768v-53.853h7.463
					v54.35c0,3.152-0.208,6.137-0.622,8.955c-0.416,2.819-1.058,5.64-1.928,8.457s-2.032,5.699-3.482,8.644
					c-1.451,2.942-3.172,6.073-5.161,9.391L2311.628,384.92z M2346.825,297.737h7.462v71.762h-7.462V297.737z"/>
			</g>
		</g>
	</g>
</g>
</svg>
