<?xml version="1.0" encoding="utf-8"?>
<!-- Generator: Adobe Illustrator 17.0.0, SVG Export Plug-In . SVG Version: 6.00 Build 0)  -->
<!DOCTYPE svg PUBLIC "-//W3C//DTD SVG 1.1//EN" "http://www.w3.org/Graphics/SVG/1.1/DTD/svg11.dtd">
<svg version="1.1" id="Layer_1" xmlns="http://www.w3.org/2000/svg" xmlns:xlink="http://www.w3.org/1999/xlink" x="0px" y="0px"
	 width="44.96px" height="44.96px" viewBox="0 0 44.96 44.96" enable-background="new 0 0 44.96 44.96" xml:space="preserve">
<pattern width="944.963" height="944.964" patternUnits="userSpaceOnUse" id="DP-Pattern" viewBox="0 -44.964 44.963 44.964" overflow="visible">
	<g opacity="0.9">
		<polygon fill="none" points="0,-44.964 44.963,-44.964 44.963,0 0,0 		"/>
		<g>
			<polyline fill="#3D2C4E" points="44.963,-44.964 0,-44.964 0,0 44.963,0 44.963,-44.964 			"/>
			<g>
				<g>
					<defs>
						<polyline id="SVGID_1_" points="44.963,-44.964 0,-44.964 0,0 44.963,0 44.963,-44.964 						"/>
					</defs>
					<clipPath id="SVGID_2_">
						<use xlink:href="#SVGID_1_"  overflow="visible"/>
					</clipPath>
					<polyline clip-path="url(#SVGID_2_)" fill="#8B8095" points="0,-5.54 0,-27.861 0,-27.861 14.88,-16.701 0,-5.54 					"/>
				</g>
				<g>
					<defs>
						<polyline id="SVGID_3_" points="44.963,-44.964 0,-44.964 0,0 44.963,0 44.963,-44.964 						"/>
					</defs>
					<clipPath id="SVGID_4_">
						<use xlink:href="#SVGID_3_"  overflow="visible"/>
					</clipPath>
					<polyline clip-path="url(#SVGID_4_)" fill="#B1ABB8" points="0,-27.861 0,-27.861 0,-44.964 6.957,-44.964 7.44,-44.602 
						14.88,-39.022 7.44,-33.441 0,-27.861 					"/>
				</g>
				<g>
					<defs>
						<polyline id="SVGID_5_" points="44.963,-44.964 0,-44.964 0,0 44.963,0 44.963,-44.964 						"/>
					</defs>
					<clipPath id="SVGID_6_">
						<use xlink:href="#SVGID_5_"  overflow="visible"/>
					</clipPath>
					<path clip-path="url(#SVGID_6_)" fill="#9E96A7" d="M29.761-27.861L29.761-27.861L29.761-27.861 M29.761-5.54L14.881-16.7
						l14.88-11.16V-5.54"/>
				</g>
				<g>
					<defs>
						<polyline id="SVGID_7_" points="44.963,-44.964 0,-44.964 0,0 44.963,0 44.963,-44.964 						"/>
					</defs>
					<clipPath id="SVGID_8_">
						<use xlink:href="#SVGID_7_"  overflow="visible"/>
					</clipPath>
					<polyline clip-path="url(#SVGID_8_)" fill="#8B8095" points="29.761,-27.861 29.761,-27.861 22.321,-33.441 14.88,-39.022 
						22.321,-44.602 22.803,-44.964 29.761,-44.964 29.761,-27.861 					"/>
				</g>
				<g>
					<defs>
						<polyline id="SVGID_9_" points="44.963,-44.964 0,-44.964 0,0 44.963,0 44.963,-44.964 						"/>
					</defs>
					<clipPath id="SVGID_10_">
						<use xlink:href="#SVGID_9_"  overflow="visible"/>
					</clipPath>
					<polyline clip-path="url(#SVGID_10_)" fill="#514260" points="14.88,0 7.386,0 0,-5.54 14.88,-16.701 14.88,0 					"/>
				</g>
				<g>
					<defs>
						<polyline id="SVGID_11_" points="44.963,-44.964 0,-44.964 0,0 44.963,0 44.963,-44.964 						"/>
					</defs>
					<clipPath id="SVGID_12_">
						<use xlink:href="#SVGID_11_"  overflow="visible"/>
					</clipPath>
					<polyline clip-path="url(#SVGID_12_)" fill="#645671" points="14.88,-16.701 14.88,-16.701 0,-27.861 7.44,-33.441 
						14.88,-39.022 14.88,-39.022 14.88,-39.022 14.88,-16.701 					"/>
				</g>
				<g>
					<defs>
						<polyline id="SVGID_13_" points="44.963,-44.964 0,-44.964 0,0 44.963,0 44.963,-44.964 						"/>
					</defs>
					<clipPath id="SVGID_14_">
						<use xlink:href="#SVGID_13_"  overflow="visible"/>
					</clipPath>
					<polyline clip-path="url(#SVGID_14_)" fill="#C1BCC6" points="7.44,-33.441 14.88,-39.022 14.88,-39.022 7.44,-33.441 					"/>
				</g>
				<g>
					<defs>
						<polyline id="SVGID_15_" points="44.963,-44.964 0,-44.964 0,0 44.963,0 44.963,-44.964 						"/>
					</defs>
					<clipPath id="SVGID_16_">
						<use xlink:href="#SVGID_15_"  overflow="visible"/>
					</clipPath>
					<polyline clip-path="url(#SVGID_16_)" fill="#9E96A7" points="14.88,-39.022 14.88,-39.022 7.44,-44.602 6.957,-44.964 
						14.88,-44.964 14.88,-39.022 					"/>
				</g>
				<g>
					<defs>
						<polyline id="SVGID_17_" points="44.963,-44.964 0,-44.964 0,0 44.963,0 44.963,-44.964 						"/>
					</defs>
					<clipPath id="SVGID_18_">
						<use xlink:href="#SVGID_17_"  overflow="visible"/>
					</clipPath>
					<polyline clip-path="url(#SVGID_18_)" fill="#D8D5DC" points="7.44,-44.602 6.957,-44.964 6.957,-44.964 7.44,-44.602 					"/>
				</g>
				<g>
					<defs>
						<polyline id="SVGID_19_" points="44.963,-44.964 0,-44.964 0,0 44.963,0 44.963,-44.964 						"/>
					</defs>
					<clipPath id="SVGID_20_">
						<use xlink:href="#SVGID_19_"  overflow="visible"/>
					</clipPath>
					<polyline clip-path="url(#SVGID_20_)" fill="#8B8095" points="22.374,0 14.88,0 14.88,-16.701 29.761,-5.54 22.374,0 					"/>
				</g>
				<g>
					<defs>
						<polyline id="SVGID_21_" points="44.963,-44.964 0,-44.964 0,0 44.963,0 44.963,-44.964 						"/>
					</defs>
					<clipPath id="SVGID_22_">
						<use xlink:href="#SVGID_21_"  overflow="visible"/>
					</clipPath>
					<path clip-path="url(#SVGID_22_)" fill="#8B8095" d="M14.88-39.022L14.88-39.022L14.88-39.022 M14.88-16.701v-22.321l7.44,5.58
						l7.44,5.58L14.88-16.701"/>
				</g>
				<g>
					<defs>
						<polyline id="SVGID_23_" points="44.963,-44.964 0,-44.964 0,0 44.963,0 44.963,-44.964 						"/>
					</defs>
					<clipPath id="SVGID_24_">
						<use xlink:href="#SVGID_23_"  overflow="visible"/>
					</clipPath>
					<polyline clip-path="url(#SVGID_24_)" fill="#8B8095" points="14.88,-39.022 14.88,-39.022 14.88,-44.964 22.803,-44.964 
						22.321,-44.602 14.88,-39.022 					"/>
				</g>
				<g>
					<defs>
						<polyline id="SVGID_25_" points="44.963,-44.964 0,-44.964 0,0 44.963,0 44.963,-44.964 						"/>
					</defs>
					<clipPath id="SVGID_26_">
						<use xlink:href="#SVGID_25_"  overflow="visible"/>
					</clipPath>
					<polyline clip-path="url(#SVGID_26_)" fill="#B9B3BF" points="22.321,-44.602 22.803,-44.964 22.803,-44.964 22.321,-44.602 
											"/>
				</g>
				<g>
					<defs>
						<polyline id="SVGID_27_" points="44.963,-44.964 0,-44.964 0,0 44.963,0 44.963,-44.964 						"/>
					</defs>
					<clipPath id="SVGID_28_">
						<use xlink:href="#SVGID_27_"  overflow="visible"/>
					</clipPath>
					<polyline clip-path="url(#SVGID_28_)" fill="#8B8095" points="29.761,-5.54 29.761,-27.861 29.761,-27.861 44.641,-16.701 
						29.761,-5.54 					"/>
				</g>
				<g>
					<defs>
						<polyline id="SVGID_29_" points="44.963,-44.964 0,-44.964 0,0 44.963,0 44.963,-44.964 						"/>
					</defs>
					<clipPath id="SVGID_30_">
						<use xlink:href="#SVGID_29_"  overflow="visible"/>
					</clipPath>
					<polyline clip-path="url(#SVGID_30_)" fill="#B1ABB8" points="29.761,-27.861 29.761,-27.861 29.761,-44.964 36.718,-44.964 
						37.201,-44.602 44.641,-39.022 37.201,-33.441 29.761,-27.861 					"/>
				</g>
				<g>
					<defs>
						<polyline id="SVGID_31_" points="44.963,-44.964 0,-44.964 0,0 44.963,0 44.963,-44.964 						"/>
					</defs>
					<clipPath id="SVGID_32_">
						<use xlink:href="#SVGID_31_"  overflow="visible"/>
					</clipPath>
					<polyline clip-path="url(#SVGID_32_)" fill="#9E96A7" points="44.963,-16.46 44.641,-16.701 44.963,-16.942 44.963,-16.46 
											"/>
				</g>
				<g>
					<defs>
						<polyline id="SVGID_33_" points="44.963,-44.964 0,-44.964 0,0 44.963,0 44.963,-44.964 						"/>
					</defs>
					<clipPath id="SVGID_34_">
						<use xlink:href="#SVGID_33_"  overflow="visible"/>
					</clipPath>
					<polyline clip-path="url(#SVGID_34_)" fill="#8B8095" points="44.963,-38.78 44.641,-39.022 44.963,-39.263 44.963,-38.78 
											"/>
				</g>
				<g>
					<defs>
						<polyline id="SVGID_35_" points="44.963,-44.964 0,-44.964 0,0 44.963,0 44.963,-44.964 						"/>
					</defs>
					<clipPath id="SVGID_36_">
						<use xlink:href="#SVGID_35_"  overflow="visible"/>
					</clipPath>
					<polyline clip-path="url(#SVGID_36_)" fill="#514260" points="44.641,0 37.147,0 29.761,-5.54 44.641,-16.701 44.641,0 					
						"/>
				</g>
				<g>
					<defs>
						<polyline id="SVGID_37_" points="44.963,-44.964 0,-44.964 0,0 44.963,0 44.963,-44.964 						"/>
					</defs>
					<clipPath id="SVGID_38_">
						<use xlink:href="#SVGID_37_"  overflow="visible"/>
					</clipPath>
					<polyline clip-path="url(#SVGID_38_)" fill="#645671" points="44.641,-16.701 44.641,-16.701 29.761,-27.861 37.201,-33.441 
						44.641,-39.022 44.641,-39.022 44.641,-39.022 44.641,-16.701 					"/>
				</g>
				<g>
					<defs>
						<polyline id="SVGID_39_" points="44.963,-44.964 0,-44.964 0,0 44.963,0 44.963,-44.964 						"/>
					</defs>
					<clipPath id="SVGID_40_">
						<use xlink:href="#SVGID_39_"  overflow="visible"/>
					</clipPath>
					<polyline clip-path="url(#SVGID_40_)" fill="#C1BCC6" points="37.201,-33.441 44.641,-39.022 44.641,-39.022 37.201,-33.441 
											"/>
				</g>
				<g>
					<defs>
						<polyline id="SVGID_41_" points="44.963,-44.964 0,-44.964 0,0 44.963,0 44.963,-44.964 						"/>
					</defs>
					<clipPath id="SVGID_42_">
						<use xlink:href="#SVGID_41_"  overflow="visible"/>
					</clipPath>
					<polyline clip-path="url(#SVGID_42_)" fill="#9E96A7" points="44.641,-39.022 44.641,-39.022 37.201,-44.602 36.718,-44.964 
						44.641,-44.964 44.641,-39.022 					"/>
				</g>
				<g>
					<defs>
						<polyline id="SVGID_43_" points="44.963,-44.964 0,-44.964 0,0 44.963,0 44.963,-44.964 						"/>
					</defs>
					<clipPath id="SVGID_44_">
						<use xlink:href="#SVGID_43_"  overflow="visible"/>
					</clipPath>
					<polyline clip-path="url(#SVGID_44_)" fill="#D8D5DC" points="37.201,-44.602 36.718,-44.964 36.718,-44.964 37.201,-44.602 
											"/>
				</g>
				<g>
					<defs>
						<polyline id="SVGID_45_" points="44.963,-44.964 0,-44.964 0,0 44.963,0 44.963,-44.964 						"/>
					</defs>
					<clipPath id="SVGID_46_">
						<use xlink:href="#SVGID_45_"  overflow="visible"/>
					</clipPath>
					<polyline clip-path="url(#SVGID_46_)" fill="#8B8095" points="44.963,0 44.641,0 44.641,-16.701 44.963,-16.46 44.963,0 					
						"/>
				</g>
				<g>
					<defs>
						<polyline id="SVGID_47_" points="44.963,-44.964 0,-44.964 0,0 44.963,0 44.963,-44.964 						"/>
					</defs>
					<clipPath id="SVGID_48_">
						<use xlink:href="#SVGID_47_"  overflow="visible"/>
					</clipPath>
					<polyline clip-path="url(#SVGID_48_)" fill="#8B8095" points="44.641,-16.701 44.641,-39.022 44.963,-38.78 44.963,-16.942 
						44.641,-16.701 					"/>
				</g>
				<g>
					<defs>
						<polyline id="SVGID_49_" points="44.963,-44.964 0,-44.964 0,0 44.963,0 44.963,-44.964 						"/>
					</defs>
					<clipPath id="SVGID_50_">
						<use xlink:href="#SVGID_49_"  overflow="visible"/>
					</clipPath>
					<polyline clip-path="url(#SVGID_50_)" fill="#C5C0CA" points="44.641,-16.701 44.641,-16.701 44.963,-16.942 44.963,-16.942 
						44.641,-16.701 					"/>
				</g>
				<g>
					<defs>
						<polyline id="SVGID_51_" points="44.963,-44.964 0,-44.964 0,0 44.963,0 44.963,-44.964 						"/>
					</defs>
					<clipPath id="SVGID_52_">
						<use xlink:href="#SVGID_51_"  overflow="visible"/>
					</clipPath>
					<polyline clip-path="url(#SVGID_52_)" fill="#B9B3BF" points="44.963,-38.78 44.641,-39.022 44.641,-39.022 44.641,-39.022 
						44.963,-38.78 44.963,-38.78 					"/>
				</g>
				<g>
					<defs>
						<polyline id="SVGID_53_" points="44.963,-44.964 0,-44.964 0,0 44.963,0 44.963,-44.964 						"/>
					</defs>
					<clipPath id="SVGID_54_">
						<use xlink:href="#SVGID_53_"  overflow="visible"/>
					</clipPath>
					<polyline clip-path="url(#SVGID_54_)" fill="#8B8095" points="44.641,-39.022 44.641,-39.022 44.641,-44.964 44.963,-44.964 
						44.963,-39.263 44.641,-39.022 					"/>
				</g>
			</g>
		</g>
	</g>
</pattern>
<rect x="0" y="0" fill="url(#DP-Pattern)" stroke="#000000" stroke-miterlimit="10" width="44.96" height="44.96"/>
</svg>
