<?xml version="1.0" encoding="utf-8"?>
<!-- Generator: Adobe Illustrator 17.0.0, SVG Export Plug-In . SVG Version: 6.00 Build 0)  -->
<!DOCTYPE svg PUBLIC "-//W3C//DTD SVG 1.1//EN" "http://www.w3.org/Graphics/SVG/1.1/DTD/svg11.dtd">
<svg version="1.1" id="dppattern" xmlns="http://www.w3.org/2000/svg" xmlns:xlink="http://www.w3.org/1999/xlink" x="0px" y="0px"
	 width="2480px" height="3508px" viewBox="0 0 2480 3508" enable-background="new 0 0 2480 3508" xml:space="preserve">
<pattern  x="820.5" y="2254.5" width="160" height="160" patternUnits="userSpaceOnUse" id="DP-Pattern" viewBox="159.532 -319.528 160 160" overflow="visible">
	<g>
		<polygon fill="none" points="159.532,-319.528 319.532,-319.528 319.532,-159.528 159.532,-159.528 		"/>
		<g>
			<defs>
				<rect id="SVGID_1_" x="159.532" y="-319.528" width="160" height="160"/>
			</defs>
			<clipPath id="SVGID_2_">
				<use xlink:href="#SVGID_1_"  overflow="visible"/>
			</clipPath>
			<g clip-path="url(#SVGID_2_)">
				<polygon fill="#3E2D4E" points="320,-320 160,-320 160,-160 320,-160 				"/>
				<g>
					<defs>
						<rect id="SVGID_3_" x="160" y="-320" width="160" height="160"/>
					</defs>
					<clipPath id="SVGID_4_">
						<use xlink:href="#SVGID_3_"  overflow="visible"/>
					</clipPath>
					<g clip-path="url(#SVGID_4_)">
						<polygon opacity="0.6" fill="#FFFFFF" enable-background="new    " points="160,-200 160,-240 186.667,-220 						"/>
						<polygon opacity="0.1" fill="#FFFFFF" enable-background="new    " points="160,-240 160,-280 186.667,-260 						"/>
						<polygon opacity="0.2" fill="#FFFFFF" enable-background="new    " points="160,-280 160,-320 186.667,-300 						"/>
						<polygon opacity="0.5" fill="#FFFFFF" enable-background="new    " points="213.333,-160 213.333,-200 186.667,-180 						"/>
						<polygon opacity="0.1" fill="#FFFFFF" enable-background="new    " points="186.667,-140 186.667,-180 160,-160 						"/>
						<polygon opacity="0.2" fill="#FFFFFF" enable-background="new    " points="186.667,-180 186.667,-220 160,-200 						"/>
						<polygon opacity="0.5" fill="#FFFFFF" enable-background="new    " points="186.667,-220 186.667,-260 160,-240 						"/>
						<polygon opacity="0.1" fill="#FFFFFF" enable-background="new    " points="186.667,-300 186.667,-340 160,-320 						"/>
						<polygon opacity="0.2" fill="#FFFFFF" enable-background="new    " points="186.667,-260 186.667,-300 213.333,-280 						"/>
						<polygon opacity="0.6" fill="#FFFFFF" enable-background="new    " points="213.333,-240 213.333,-280 186.667,-260 						"/>
						<polygon opacity="0.6" fill="#FFFFFF" enable-background="new    " points="213.333,-200 213.333,-240 240,-220 						"/>
						<polygon opacity="0.1" fill="#FFFFFF" enable-background="new    " points="213.333,-240 213.333,-280 240,-260 						"/>
						<polygon opacity="0.2" fill="#FFFFFF" enable-background="new    " points="213.333,-280 213.333,-320 240,-300 						"/>
						<polygon opacity="0.5" fill="#FFFFFF" enable-background="new    " points="266.667,-160 266.667,-200 240,-180 						"/>
						<polygon opacity="0.1" fill="#FFFFFF" enable-background="new    " points="240,-140 240,-180 213.333,-160 						"/>
						<polygon opacity="0.2" fill="#FFFFFF" enable-background="new    " points="240,-180 240,-220 213.333,-200 						"/>
						<polygon opacity="0.5" fill="#FFFFFF" enable-background="new    " points="240,-220 240,-260 213.333,-240 						"/>
						<polygon opacity="0.2" fill="#FFFFFF" enable-background="new    " points="240,-260 240,-300 213.333,-280 						"/>
						<polygon opacity="0.1" fill="#FFFFFF" enable-background="new    " points="240,-300 240,-340 213.333,-320 						"/>
						<polygon opacity="0.2" fill="#FFFFFF" enable-background="new    " points="240,-260 240,-300 266.667,-280 						"/>
						<polygon opacity="0.6" fill="#FFFFFF" enable-background="new    " points="266.667,-240 266.667,-280 240,-260 						"/>
						<polygon opacity="0.6" fill="#FFFFFF" enable-background="new    " points="266.667,-200 266.667,-240 293.333,-220 						"/>
						<polygon opacity="0.1" fill="#FFFFFF" enable-background="new    " points="266.667,-240 266.667,-280 293.333,-260 						"/>
						<polygon opacity="0.2" fill="#FFFFFF" enable-background="new    " points="266.667,-280 266.667,-320 293.333,-300 						"/>
						<polygon opacity="0.5" fill="#FFFFFF" enable-background="new    " points="320,-160 320,-200 293.333,-180 						"/>
						<polygon opacity="0.1" fill="#FFFFFF" enable-background="new    " points="293.333,-140 293.333,-180 266.667,-160 						"/>
						<polygon opacity="0.2" fill="#FFFFFF" enable-background="new    " points="293.333,-180 293.333,-220 266.667,-200 						"/>
						<polygon opacity="0.5" fill="#FFFFFF" enable-background="new    " points="293.333,-220 293.333,-260 266.667,-240 						"/>
						<polygon opacity="0.1" fill="#FFFFFF" enable-background="new    " points="293.333,-300 293.333,-340 266.667,-320 						"/>
						<polygon opacity="0.2" fill="#FFFFFF" enable-background="new    " points="293.333,-260 293.333,-300 320,-280 						"/>
						<polygon opacity="0.6" fill="#FFFFFF" enable-background="new    " points="320,-240 320,-280 293.333,-260 						"/>
					</g>
				</g>
			</g>
			<g clip-path="url(#SVGID_2_)">
				<polygon fill="#3E2D4E" points="160,-320 0,-320 0,-160 160,-160 				"/>
				<g>
					<defs>
						<rect id="SVGID_5_" y="-320" width="160" height="160"/>
					</defs>
					<clipPath id="SVGID_6_">
						<use xlink:href="#SVGID_5_"  overflow="visible"/>
					</clipPath>
					<g clip-path="url(#SVGID_6_)">
						<polygon opacity="0.5" fill="#FFFFFF" enable-background="new    " points="160,-160 160,-200 133.333,-180 						"/>
						<polygon opacity="0.2" fill="#FFFFFF" enable-background="new    " points="133.333,-260 133.333,-300 160,-280 						"/>
						<polygon opacity="0.6" fill="#FFFFFF" enable-background="new    " points="160,-240 160,-280 133.333,-260 						"/>
					</g>
				</g>
			</g>
			<g clip-path="url(#SVGID_2_)">
				<polygon fill="#3E2D4E" points="320,-160 160,-160 160,0 320,0 				"/>
				<g>
					<defs>
						<rect id="SVGID_7_" x="160" y="-160" width="160" height="160"/>
					</defs>
					<clipPath id="SVGID_8_">
						<use xlink:href="#SVGID_7_"  overflow="visible"/>
					</clipPath>
					<g clip-path="url(#SVGID_8_)">
						<polygon opacity="0.2" fill="#FFFFFF" enable-background="new    " points="160,-120 160,-160 186.667,-140 						"/>
						<polygon opacity="0.1" fill="#FFFFFF" enable-background="new    " points="186.667,-140 186.667,-180 160,-160 						"/>
						<polygon opacity="0.2" fill="#FFFFFF" enable-background="new    " points="213.333,-120 213.333,-160 240,-140 						"/>
						<polygon opacity="0.1" fill="#FFFFFF" enable-background="new    " points="240,-140 240,-180 213.333,-160 						"/>
						<polygon opacity="0.2" fill="#FFFFFF" enable-background="new    " points="266.667,-120 266.667,-160 293.333,-140 						"/>
						<polygon opacity="0.1" fill="#FFFFFF" enable-background="new    " points="293.333,-140 293.333,-180 266.667,-160 						"/>
					</g>
				</g>
			</g>
			<g clip-path="url(#SVGID_2_)">
				<polygon fill="#3E2D4E" points="160,-160 0,-160 0,0 160,0 				"/>
				<g>
					<defs>
						<rect id="SVGID_9_" y="-160" width="160" height="160"/>
					</defs>
					<clipPath id="SVGID_10_">
						<use xlink:href="#SVGID_9_"  overflow="visible"/>
					</clipPath>
					<g clip-path="url(#SVGID_10_)">
						<polyline fill="#FFFFFF" points="160,-200 160,-160 186.667,-180 160,-200 						"/>
						<polyline fill="#FFFFFF" points="213.333,-240 186.667,-220 213.333,-200 213.333,-240 						"/>
						<polyline fill="#FFFFFF" points="186.667,-300 160,-280 186.667,-260 186.667,-300 						"/>
						<polyline fill="#FFFFFF" points="186.667,-220 186.667,-180 213.333,-200 186.667,-220 						"/>
						<polyline fill="#FFFFFF" points="186.667,-260 186.667,-220 213.333,-240 186.667,-260 						"/>
						<polyline fill="#FFFFFF" points="186.667,-340 186.667,-300 213.333,-320 186.667,-340 						"/>
						<polyline fill="#FFFFFF" points="213.333,-320 213.333,-320 186.667,-300 213.333,-280 213.333,-320 						"/>
						<polyline fill="#FFFFFF" points="213.333,-200 213.333,-160 240,-180 213.333,-200 						"/>
						<polyline fill="#FFFFFF" points="266.667,-240 240,-220 266.667,-200 266.667,-240 						"/>
						<polyline fill="#FFFFFF" points="240,-220 240,-180 266.667,-200 240,-220 						"/>
						<polyline fill="#FFFFFF" points="240,-260 240,-220 266.667,-240 240,-260 						"/>
						<polyline fill="#FFFFFF" points="240,-340 240,-300 266.667,-320 240,-340 						"/>
						<polyline fill="#FFFFFF" points="266.667,-320 266.667,-320 240,-300 266.667,-280 266.667,-320 						"/>
						<polyline fill="#FFFFFF" points="266.667,-200 266.667,-160 293.333,-180 266.667,-200 						"/>
						<polyline fill="#FFFFFF" points="320,-240 293.333,-220 320,-200 320,-240 						"/>
						<polyline fill="#FFFFFF" points="293.333,-300 266.667,-280 293.333,-260 293.333,-300 						"/>
						<polyline fill="#FFFFFF" points="293.333,-220 293.333,-180 320,-200 293.333,-220 						"/>
						<polyline fill="#FFFFFF" points="293.333,-260 293.333,-220 320,-240 293.333,-260 						"/>
						<polyline fill="#FFFFFF" points="293.333,-340 293.333,-300 320,-320 293.333,-340 						"/>
						<polyline fill="#FFFFFF" points="320,-320 320,-320 293.333,-300 320,-280 320,-320 						"/>
						<polyline fill="#FFFFFF" points="160,-240 133.333,-220 160,-200 160,-240 						"/>
						<polyline fill="#FFFFFF" points="133.333,-220 133.333,-180 160,-200 133.333,-220 						"/>
						<polyline fill="#FFFFFF" points="133.333,-260 133.333,-220 160,-240 133.333,-260 						"/>
						<polyline fill="#FFFFFF" points="133.333,-340 133.333,-300 160,-320 133.333,-340 						"/>
						<polyline fill="#FFFFFF" points="160,-320 160,-320 133.333,-300 160,-280 160,-320 						"/>
						<polyline fill="#FFFFFF" points="186.667,-180 186.667,-140 213.333,-160 186.667,-180 						"/>
						<polyline fill="#FFFFFF" points="213.333,-160 213.333,-160 186.667,-140 213.333,-120 213.333,-160 						"/>
						<polyline fill="#FFFFFF" points="240,-180 240,-140 266.667,-160 240,-180 						"/>
						<polyline fill="#FFFFFF" points="266.667,-160 266.667,-160 240,-140 266.667,-120 266.667,-160 						"/>
						<polyline fill="#FFFFFF" points="293.333,-180 293.333,-140 320,-160 293.333,-180 						"/>
						<polyline fill="#FFFFFF" points="320,-160 320,-160 293.333,-140 320,-120 320,-160 						"/>
						<polyline fill="#FFFFFF" points="133.333,-180 133.333,-140 160,-160 133.333,-180 						"/>
						<polyline fill="#FFFFFF" points="160,-160 133.333,-140 160,-120 160,-160 						"/>
					</g>
				</g>
			</g>
		</g>
	</g>
</pattern>
<rect x="1490.5" y="86.5" fill="url(#DP-Pattern)" stroke="#000000" stroke-miterlimit="10" width="244" height="193"/>
</svg>
