<?xml version="1.0" encoding="utf-8"?>
<!-- Generator: Adobe Illustrator 17.0.0, SVG Export Plug-In . SVG Version: 6.00 Build 0)  -->
<!DOCTYPE svg PUBLIC "-//W3C//DTD SVG 1.1//EN" "http://www.w3.org/Graphics/SVG/1.1/DTD/svg11.dtd">
<svg version="1.1" id="Layer_1" xmlns="http://www.w3.org/2000/svg" xmlns:xlink="http://www.w3.org/1999/xlink" x="0px" y="0px"
	 width="2480px" height="465px" viewBox="0 0 2480 465" enable-background="new 0 0 2480 465" xml:space="preserve">
<rect y="0.154" opacity="0.8" fill="#3E2D4E" width="2480" height="465"/>
<g>
	<g>
		<path fill="#FFFFFF" d="M887.761,100.741c6.144-1.183,11.993-1.777,17.545-1.777c10.808,0,18.711,2.24,23.708,6.718
			c4.997,4.48,7.496,11.568,7.496,21.266c0,9.772-2.554,16.898-7.662,21.376c-5.108,4.48-13.178,6.718-24.208,6.718
			c-1.555,0-3.147-0.036-4.775-0.111c-1.629-0.073-3.37-0.184-5.219-0.333v27.761h-6.885V100.741z M905.861,149.046
			c8.291,0,14.306-1.739,18.045-5.219c3.737-3.479,5.608-9.106,5.608-16.879c0-7.624-1.832-13.176-5.497-16.657
			c-3.665-3.479-9.569-5.219-17.712-5.219c-1.777,0-3.684,0.074-5.719,0.222c-2.037,0.149-4.017,0.408-5.941,0.777v42.198
			c1.555,0.149,3.349,0.315,5.386,0.5C902.066,148.954,904.01,149.046,905.861,149.046z"/>
		<path fill="#FFFFFF" d="M948.834,118.287h39.31v5.663h-32.647v23.208h29.76v5.441h-29.76v23.986h33.425v5.774h-40.087V118.287z"/>
		<path fill="#FFFFFF" d="M1025.343,158.152c-1.111,0.222-2.332,0.372-3.665,0.444c-1.333,0.075-2.665,0.111-3.998,0.111
			c-1.407,0-2.832-0.036-4.275-0.111c-1.444-0.073-2.981-0.184-4.608-0.333v24.097h-6.663V118.73
			c2.738-0.517,5.403-0.888,7.996-1.11c2.59-0.222,5.108-0.333,7.551-0.333c9.623,0,16.619,1.666,20.988,4.997
			c4.367,3.332,6.552,8.589,6.552,15.769c0,5.108-1.11,9.199-3.332,12.271c-2.221,3.073-5.663,5.274-10.327,6.607l15.103,25.43
			h-7.218L1025.343,158.152z M1018.347,153.155c7.254,0,12.455-1.166,15.602-3.498c3.146-2.332,4.719-6.199,4.719-11.604
			c0-5.33-1.574-9.179-4.719-11.549c-3.147-2.369-8.2-3.554-15.158-3.554c-1.482,0-3.092,0.075-4.831,0.222
			c-1.74,0.149-3.461,0.333-5.164,0.555V152.6c1.258,0.149,2.793,0.278,4.608,0.389
			C1015.219,153.099,1016.865,153.155,1018.347,153.155z"/>
		<path fill="#FFFFFF" d="M1059.1,118.287h38.09v5.774h-31.426v23.431h28.982v5.663h-28.982v29.205h-6.664V118.287z"/>
		<path fill="#FFFFFF" d="M1109.514,118.287h39.311v5.663h-32.647v23.208h29.761v5.441h-29.761v23.986h33.425v5.774h-40.088V118.287
			z"/>
		<path fill="#FFFFFF" d="M1188.468,183.248c-10.216-0.074-17.75-2.757-22.598-8.051c-4.85-5.292-7.273-13.565-7.273-24.818
			c0-11.4,2.388-19.728,7.162-24.985c4.775-5.256,12.308-7.884,22.599-7.884c1.85,0,3.848,0.094,5.996,0.277
			c2.146,0.186,4.293,0.463,6.44,0.833v5.663c-1.776-0.295-3.684-0.536-5.719-0.722c-2.037-0.184-3.98-0.277-5.83-0.277
			c-4.22,0-7.828,0.5-10.826,1.499c-2.999,1-5.461,2.573-7.385,4.719c-1.926,2.148-3.332,4.942-4.22,8.384
			c-0.889,3.442-1.333,7.606-1.333,12.493c0,9.477,1.85,16.343,5.553,20.599c3.701,4.258,9.586,6.385,17.656,6.385
			c0.739,0,1.61-0.037,2.609-0.111c0.999-0.073,2.055-0.167,3.165-0.278s2.221-0.222,3.331-0.333c1.11-0.111,2.11-0.24,2.998-0.389
			v5.552c-1.704,0.371-3.608,0.703-5.719,1C1192.966,183.099,1190.762,183.248,1188.468,183.248z"/>
		<path fill="#FFFFFF" d="M1227,124.172h-19.988v-5.885h46.528v5.885h-19.878v58.188H1227V124.172z"/>
		<path fill="#FFFFFF" d="M1257.536,100.186h7.329l14.214,58.632l3.331,15.102h0.666l3.775-15.102l15.436-58.632h7.662
			l14.547,58.632l3.554,15.102h0.666l3.554-15.102l15.103-58.632h7.218l-21.765,82.174h-8.884l-14.991-59.41l-2.665-12.77h-0.556
			l-2.887,12.77l-15.88,59.41h-8.772L1257.536,100.186z"/>
		<path fill="#FFFFFF" d="M1363.251,118.287h6.663v28.428h35.424v-28.428H1412v64.073h-6.662v-29.871h-35.424v29.871h-6.663V118.287
			z"/>
		<path fill="#FFFFFF" d="M1429.321,118.287h6.663v64.073h-6.663V118.287z"/>
		<path fill="#FFFFFF" d="M1466.521,124.172h-19.988v-5.885h46.528v5.885h-19.878v58.188h-6.662V124.172z"/>
		<path fill="#FFFFFF" d="M1503.72,118.287h39.311v5.663h-32.647v23.208h29.761v5.441h-29.761v23.986h33.425v5.774h-40.088V118.287z
			"/>
	</g>
	<g>
		<path fill="#E6E4E8" d="M499.225,272.646h9.217l22.431,57.744l4.664,12.992h0.667l4.664-12.992l22.542-57.744h9.217v82.174h-6.663
			v-70.736l-0.555-0.111l-5.664,15.325l-20.432,52.08h-6.996l-20.321-52.08l-5.774-15.325l-0.555,0.111v70.736h-6.44V272.646z"/>
		<path fill="#E6E4E8" d="M590.393,290.746h39.31v5.663h-32.647v23.209h29.76v5.44h-29.76v23.986h33.425v5.774h-40.087V290.746z"/>
		<path fill="#E6E4E8" d="M657.129,296.632h-19.988v-5.886h46.528v5.886h-19.877v58.188h-6.663V296.632z"/>
		<path fill="#E6E4E8" d="M714.873,355.708c-17.917,0-26.873-10.956-26.873-32.87c0-21.986,8.957-32.98,26.873-32.98
			c8.809,0,15.472,2.74,19.988,8.218c4.515,5.479,6.774,13.733,6.774,24.763c0,10.957-2.259,19.175-6.774,24.652
			C730.345,352.97,723.682,355.708,714.873,355.708z M714.873,349.822c6.885,0,11.955-2.165,15.213-6.496
			c3.257-4.331,4.886-11.16,4.886-20.488c0-9.327-1.648-16.193-4.942-20.599c-3.295-4.403-8.347-6.607-15.158-6.607
			c-6.885,0-11.976,2.185-15.269,6.552c-3.295,4.369-4.941,11.254-4.941,20.654c0,9.402,1.627,16.251,4.886,20.544
			C702.805,347.676,707.913,349.822,714.873,349.822z"/>
		<path fill="#E6E4E8" d="M769.618,356.041c-2.592,0-5.108-0.075-7.551-0.223c-2.443-0.148-4.627-0.407-6.552-0.777v-63.962
			c3.035-0.369,5.997-0.666,8.884-0.889c2.887-0.222,5.403-0.333,7.551-0.333c11.03,0,19.117,2.647,24.264,7.939
			c5.145,5.294,7.717,13.642,7.717,25.041c0,11.549-2.759,19.971-8.273,25.263C790.142,353.395,781.461,356.041,769.618,356.041z
			 M771.061,350.267c8.957,0,15.527-2.183,19.711-6.552c4.182-4.367,6.274-11.327,6.274-20.877c0-9.622-1.962-16.562-5.885-20.821
			c-3.925-4.256-10.18-6.385-18.767-6.385c-1.555,0-3.24,0.075-5.053,0.223c-1.815,0.148-3.573,0.333-5.275,0.555v53.302
			c1.85,0.223,3.442,0.372,4.775,0.444C768.174,350.23,769.58,350.267,771.061,350.267z"/>
		<path fill="#E6E4E8" d="M830.916,333.276l-23.431-42.53h7.329l16.768,30.537l2.332,5.441h0.555l2.332-5.441l16.768-30.537h7.329
			l-23.32,42.309v21.765h-6.663V333.276z"/>
		<path fill="#E6E4E8" d="M882.662,290.746h7.329l11.771,44.751l2.998,11.549h0.555l3.109-11.549l13.214-44.751h6.996l12.437,44.751
			l2.998,11.549h0.667l3.109-11.549l12.548-44.751h7.107l-18.655,64.073h-8.551l-12.548-44.308l-2.443-10.327h-0.555l-2.554,10.327
			l-13.214,44.308h-8.439L882.662,290.746z"/>
		<path fill="#E6E4E8" d="M994.039,333.276l-23.431-42.53h7.329l16.768,30.537l2.332,5.441h0.555l2.332-5.441l16.768-30.537h7.329
			l-23.32,42.309v21.765h-6.663V333.276z"/>
		<path fill="#E6E4E8" d="M1053.338,355.708c-3.11,0-6.46-0.131-10.051-0.389c-3.591-0.261-6.792-0.573-9.605-0.944v-63.296
			c4.293-0.444,7.81-0.758,10.55-0.944c2.738-0.184,5.403-0.277,7.995-0.277c8.291,0,14.324,1.389,18.1,4.164
			c3.775,2.776,5.664,7.163,5.664,13.159c0,3.998-1,7.273-2.998,9.827c-1.998,2.555-4.887,4.203-8.662,4.942v0.333
			c4.441,0.666,7.865,2.351,10.271,5.053c2.406,2.703,3.609,6.237,3.609,10.604C1078.211,349.786,1069.92,355.708,1053.338,355.708z
			 M1053.004,319.84c5.922,0,10.123-0.925,12.604-2.776c2.48-1.85,3.721-5.033,3.721-9.55c0-4.292-1.316-7.401-3.943-9.328
			c-2.629-1.924-6.867-2.887-12.715-2.887c-2.369,0-4.552,0.038-6.551,0.111c-1.999,0.074-3.998,0.26-5.997,0.555v23.875H1053.004z
			 M1053.67,350.488c11.918,0,17.879-4.292,17.879-12.881c0-4.442-1.443-7.662-4.332-9.661c-2.887-1.999-7.588-2.998-14.102-2.998
			h-12.993v24.652c0.517,0.148,1.277,0.26,2.276,0.333c1,0.074,2.11,0.166,3.332,0.277c1.221,0.111,2.516,0.186,3.886,0.222
			C1050.986,350.472,1052.338,350.488,1053.67,350.488z"/>
		<path fill="#E6E4E8" d="M1091.868,290.746h6.663v64.073h-6.663V290.746z"/>
		<path fill="#E6E4E8" d="M1115.743,290.746h39.311v5.663h-32.647v23.209h29.761v5.44h-29.761v23.986h33.425v5.774h-40.088V290.746z
			"/>
		<path fill="#E6E4E8" d="M1169.154,290.746h6.663v58.299h27.317v5.774h-33.98V290.746z"/>
		<path fill="#E6E4E8" d="M1206.242,354.264l22.876-63.518h9.55l22.765,63.518v0.556h-6.441l-7.106-19.433h-27.983l-7.219,19.433
			h-6.44V354.264z M1246.219,330.056l-8.661-23.874l-3.442-9.884h-0.556l-3.331,9.884l-8.884,23.874H1246.219z"/>
		<path fill="#E6E4E8" d="M1271.537,290.746h6.108l33.202,45.973l4.997,7.44l0.444-0.111v-53.302h6.219v64.073h-6.107
			l-33.203-45.862l-4.997-7.551h-0.555v53.413h-6.108V290.746z"/>
		<path fill="#E6E4E8" d="M1339.829,290.746h6.663v64.073h-6.663V290.746z"/>
		<path fill="#E6E4E8" d="M1356.485,354.264l22.876-63.518h9.55l22.765,63.518v0.556h-6.441l-7.106-19.433h-27.983l-7.219,19.433
			h-6.44V354.264z M1396.462,330.056l-8.661-23.874l-3.442-9.884h-0.556l-3.331,9.884l-8.884,23.874H1396.462z"/>
		<path fill="#E6E4E8" d="M1434.218,290.746h7.329l11.771,44.751l2.998,11.549h0.556l3.109-11.549l13.214-44.751h6.996
			l12.438,44.751l2.998,11.549h0.666l3.109-11.549l12.548-44.751h7.107l-18.656,64.073h-8.55l-12.549-44.308l-2.442-10.327h-0.556
			l-2.554,10.327l-13.215,44.308h-8.439L1434.218,290.746z"/>
		<path fill="#E6E4E8" d="M1577.687,355.708c-10.438-0.149-18.083-2.85-22.931-8.106c-4.85-5.256-7.273-13.51-7.273-24.764
			c0-11.326,2.479-19.636,7.44-24.93c4.959-5.292,12.843-7.939,23.652-7.939c1.999,0,4.349,0.13,7.052,0.389
			c2.701,0.26,5.348,0.686,7.939,1.277v5.774c-2.962-0.592-5.571-1.018-7.828-1.277c-2.26-0.259-4.461-0.389-6.607-0.389
			c-4.442,0-8.218,0.519-11.327,1.555c-3.109,1.037-5.663,2.647-7.662,4.83c-1.999,2.185-3.461,4.979-4.386,8.384
			c-0.927,3.406-1.389,7.515-1.389,12.326c0,9.402,1.869,16.251,5.608,20.544c3.737,4.294,9.716,6.44,17.934,6.44
			c1.036,0,2.498-0.073,4.386-0.222c1.889-0.147,3.609-0.37,5.164-0.667v-26.65h6.219v31.537c-3.036,0.593-5.868,1.055-8.495,1.388
			C1582.554,355.541,1580.056,355.708,1577.687,355.708z"/>
		<path fill="#E6E4E8" d="M1601.561,354.264l22.876-63.518h9.55l22.765,63.518v0.556h-6.441l-7.106-19.433h-27.983l-7.219,19.433
			h-6.44V354.264z M1641.537,330.056l-8.661-23.874l-3.442-9.884h-0.556l-3.331,9.884l-8.884,23.874H1641.537z"/>
		<path fill="#E6E4E8" d="M1686.399,355.708c-3.109,0-6.46-0.131-10.05-0.389c-3.592-0.261-6.793-0.573-9.605-0.944v-63.296
			c4.292-0.444,7.81-0.758,10.549-0.944c2.738-0.184,5.403-0.277,7.995-0.277c8.291,0,14.325,1.389,18.101,4.164
			c3.775,2.776,5.664,7.163,5.664,13.159c0,3.998-1,7.273-2.999,9.827c-1.998,2.555-4.886,4.203-8.661,4.942v0.333
			c4.441,0.666,7.865,2.351,10.271,5.053c2.405,2.703,3.609,6.237,3.609,10.604C1711.273,349.786,1702.981,355.708,1686.399,355.708
			z M1686.065,319.84c5.922,0,10.123-0.925,12.604-2.776c2.479-1.85,3.72-5.033,3.72-9.55c0-4.292-1.315-7.401-3.942-9.328
			c-2.629-1.924-6.867-2.887-12.715-2.887c-2.37,0-4.553,0.038-6.552,0.111c-1.998,0.074-3.997,0.26-5.996,0.555v23.875H1686.065z
			 M1686.732,350.488c11.918,0,17.878-4.292,17.878-12.881c0-4.442-1.443-7.662-4.331-9.661c-2.887-1.999-7.589-2.998-14.103-2.998
			h-12.992v24.652c0.517,0.148,1.277,0.26,2.276,0.333c0.999,0.074,2.11,0.166,3.331,0.277c1.222,0.111,2.517,0.186,3.887,0.222
			C1684.048,350.472,1685.399,350.488,1686.732,350.488z"/>
		<path fill="#E6E4E8" d="M1724.931,290.746h6.663v64.073h-6.663V290.746z"/>
		<path fill="#E6E4E8" d="M1748.805,290.746h6.108l33.202,45.973l4.997,7.44l0.444-0.111v-53.302h6.219v64.073h-6.107
			l-33.203-45.862l-4.997-7.551h-0.555v53.413h-6.108V290.746z"/>
		<path fill="#E6E4E8" d="M1817.097,290.746h39.311v5.663h-32.647v23.209h29.761v5.44h-29.761v23.986h33.425v5.774h-40.088V290.746z
			"/>
		<path fill="#E6E4E8" d="M1896.051,355.708c-10.216-0.075-17.75-2.758-22.598-8.051c-4.85-5.292-7.273-13.565-7.273-24.819
			c0-11.399,2.388-19.728,7.162-24.985c4.775-5.255,12.308-7.884,22.599-7.884c1.85,0,3.848,0.094,5.996,0.277
			c2.146,0.186,4.293,0.464,6.44,0.833v5.663c-1.776-0.295-3.684-0.536-5.719-0.722c-2.037-0.184-3.98-0.277-5.83-0.277
			c-4.22,0-7.828,0.5-10.826,1.499c-2.999,0.999-5.461,2.573-7.385,4.72c-1.926,2.147-3.332,4.941-4.22,8.384
			c-0.889,3.442-1.333,7.606-1.333,12.492c0,9.478,1.85,16.343,5.553,20.6c3.701,4.258,9.586,6.385,17.656,6.385
			c0.739,0,1.61-0.036,2.609-0.111c0.999-0.072,2.055-0.166,3.165-0.277s2.221-0.222,3.331-0.333s2.11-0.239,2.998-0.389v5.552
			c-1.704,0.372-3.608,0.703-5.719,1C1900.549,355.559,1898.345,355.708,1896.051,355.708z"/>
		<path fill="#E6E4E8" d="M1921.257,290.746h6.663v64.073h-6.663V290.746z"/>
		<path fill="#E6E4E8" d="M1945.131,290.746h39.311v5.663h-32.647v23.209h29.761v5.44h-29.761v23.986h33.425v5.774h-40.088V290.746z
			"/>
	</g>
</g>
</svg>
