<?xml version="1.0" encoding="utf-8"?>
<!-- Generator: Adobe Illustrator 17.0.0, SVG Export Plug-In . SVG Version: 6.00 Build 0)  -->
<!DOCTYPE svg PUBLIC "-//W3C//DTD SVG 1.1//EN" "http://www.w3.org/Graphics/SVG/1.1/DTD/svg11.dtd">
<svg version="1.1" id="Layer_1" xmlns="http://www.w3.org/2000/svg" xmlns:xlink="http://www.w3.org/1999/xlink" x="0px" y="0px"
	 width="2480px" height="465px" viewBox="0 0 2480 465" enable-background="new 0 0 2480 465" xml:space="preserve">
<rect y="0.154" opacity="0.8" fill="#3E2D4E" width="2480" height="465"/>
<g>
	<g>
		<path fill="#FFFFFF" d="M967.284,105.88c5.904-1.137,11.525-1.708,16.861-1.708c10.387,0,17.981,2.152,22.784,6.456
			c4.802,4.305,7.203,11.117,7.203,20.436c0,9.391-2.454,16.239-7.363,20.542c-4.909,4.305-12.664,6.456-23.264,6.456
			c-1.494,0-3.024-0.035-4.589-0.106c-1.565-0.07-3.238-0.177-5.016-0.32v26.679h-6.616V105.88z M984.679,152.301
			c7.967,0,13.748-1.67,17.341-5.015c3.591-3.343,5.389-8.751,5.389-16.221c0-7.327-1.761-12.663-5.283-16.007
			c-3.521-3.343-9.196-5.016-17.021-5.016c-1.707,0-3.54,0.072-5.496,0.213c-1.958,0.144-3.86,0.392-5.709,0.747v40.552
			c1.494,0.143,3.218,0.303,5.176,0.48C981.032,152.213,982.899,152.301,984.679,152.301z"/>
		<path fill="#FFFFFF" d="M1025.976,122.741h37.777v5.442h-31.374v22.303h28.6v5.229h-28.6v23.05h32.121v5.549h-38.524V122.741z"/>
		<path fill="#FFFFFF" d="M1099.501,161.052c-1.067,0.213-2.241,0.357-3.521,0.427c-1.281,0.072-2.562,0.106-3.842,0.106
			c-1.353,0-2.721-0.035-4.109-0.106c-1.387-0.07-2.864-0.177-4.428-0.32v23.157h-6.403v-61.147
			c2.631-0.497,5.192-0.854,7.684-1.067c2.49-0.213,4.909-0.32,7.257-0.32c9.248,0,15.97,1.601,20.169,4.802
			c4.197,3.201,6.296,8.253,6.296,15.153c0,4.909-1.067,8.841-3.202,11.792c-2.134,2.953-5.442,5.069-9.924,6.35l14.513,24.438
			h-6.937L1099.501,161.052z M1092.778,156.25c6.972,0,11.969-1.121,14.994-3.361c3.023-2.241,4.535-5.958,4.535-11.152
			c0-5.123-1.512-8.821-4.535-11.098c-3.025-2.276-7.88-3.415-14.567-3.415c-1.424,0-2.971,0.072-4.642,0.213
			c-1.672,0.144-3.326,0.32-4.962,0.534v27.746c1.208,0.144,2.685,0.267,4.428,0.374
			C1089.771,156.196,1091.354,156.25,1092.778,156.25z"/>
		<path fill="#FFFFFF" d="M1131.941,122.741h6.403v61.574h-6.403V122.741z"/>
		<path fill="#FFFFFF" d="M1177.508,185.169c-17.218,0-25.825-10.528-25.825-31.587c0-21.129,8.607-31.694,25.825-31.694
			c8.465,0,14.868,2.633,19.208,7.897c4.339,5.266,6.51,13.198,6.51,23.797c0,10.53-2.171,18.427-6.51,23.691
			C1192.376,182.538,1185.974,185.169,1177.508,185.169z M1177.508,179.513c6.616,0,11.488-2.081,14.62-6.243
			c3.129-4.162,4.695-10.725,4.695-19.689s-1.584-15.562-4.749-19.795c-3.167-4.232-8.022-6.35-14.566-6.35
			c-6.616,0-11.508,2.099-14.673,6.296c-3.167,4.198-4.749,10.814-4.749,19.849c0,9.036,1.564,15.617,4.695,19.742
			C1165.912,177.451,1170.82,179.513,1177.508,179.513z"/>
		<path fill="#FFFFFF" d="M1231.932,144.191l-24.971-38.844h7.577l20.596,32.228l1.067,2.134h0.427l0.96-2.134l20.49-32.228h7.469
			l-25.184,39.058l26.038,39.911h-7.576l-21.556-33.295l-1.067-2.028h-0.32l-1.067,2.028l-21.129,33.295h-7.577L1231.932,144.191z"
			/>
		<path fill="#FFFFFF" d="M1275.578,123.168c2.703-0.497,5.281-0.854,7.736-1.067s4.855-0.32,7.203-0.32
			c9.178,0,15.883,1.708,20.115,5.122c4.232,3.415,6.35,8.788,6.35,16.114c0,7.328-2.133,12.682-6.402,16.061
			c-4.268,3.379-11.098,5.069-20.488,5.069c-1.139,0-2.402-0.035-3.789-0.107c-1.387-0.07-2.828-0.177-4.322-0.32v20.596h-6.402
			V123.168z M1291.266,158.811c6.828,0,11.773-1.227,14.832-3.682s4.59-6.491,4.59-12.112c0-5.549-1.514-9.568-4.535-12.059
			c-3.025-2.489-7.881-3.735-14.566-3.735c-1.494,0-3.078,0.072-4.75,0.213c-1.672,0.144-3.291,0.32-4.855,0.534v30.2
			c1.209,0.144,2.668,0.285,4.375,0.427C1288.064,158.741,1289.699,158.811,1291.266,158.811z"/>
		<path fill="#FFFFFF" d="M1329.148,122.741h37.775v5.442h-31.373v22.303h28.6v5.229h-28.6v23.05h32.121v5.549h-38.523V122.741z"/>
		<path fill="#FFFFFF" d="M1402.674,161.052c-1.068,0.213-2.242,0.357-3.521,0.427c-1.281,0.072-2.562,0.106-3.842,0.106
			c-1.354,0-2.723-0.035-4.109-0.106c-1.387-0.07-2.865-0.177-4.428-0.32v23.157h-6.404v-61.147
			c2.633-0.497,5.193-0.854,7.684-1.067s4.91-0.32,7.258-0.32c9.246,0,15.971,1.601,20.168,4.802
			c4.197,3.201,6.297,8.253,6.297,15.153c0,4.909-1.066,8.841-3.201,11.792c-2.135,2.953-5.443,5.069-9.926,6.35l14.514,24.438
			h-6.936L1402.674,161.052z M1395.951,156.25c6.971,0,11.967-1.121,14.992-3.361c3.023-2.241,4.535-5.958,4.535-11.152
			c0-5.123-1.512-8.821-4.535-11.098c-3.025-2.276-7.881-3.415-14.566-3.415c-1.424,0-2.971,0.072-4.643,0.213
			c-1.672,0.144-3.326,0.32-4.961,0.534v27.746c1.209,0.144,2.684,0.267,4.428,0.374
			C1392.943,156.196,1394.525,156.25,1395.951,156.25z"/>
		<path fill="#FFFFFF" d="M1445.465,128.397h-19.209v-5.656h44.715v5.656h-19.104v55.918h-6.402V128.397z"/>
	</g>
	<g>
		<path fill="#FFFFFF" d="M499.145,318.033c-1.779,0-3.647-0.088-5.603-0.266c-1.957-0.177-3.682-0.337-5.176-0.481v-40.551
			c1.85-0.355,3.752-0.604,5.71-0.747c1.956-0.142,3.788-0.214,5.496-0.214c7.825,0,13.5,1.673,17.021,5.016
			c3.522,3.344,5.283,8.68,5.283,16.006c0,7.471-1.798,12.878-5.389,16.221C512.892,316.362,507.112,318.033,499.145,318.033
			 M498.611,269.906c-5.335,0-10.956,0.57-16.861,1.707v78.436h6.616v-26.679c1.778,0.144,3.451,0.25,5.016,0.32
			c1.565,0.072,3.095,0.107,4.589,0.107c10.599,0,18.355-2.15,23.264-6.456c4.909-4.304,7.363-11.151,7.363-20.543
			c0-9.318-2.401-16.13-7.203-20.435C516.592,272.058,508.997,269.906,498.611,269.906"/>
		<polyline fill="#FFFFFF" points="578.218,288.473 540.442,288.473 540.442,350.048 578.965,350.048 578.965,344.499 
			546.844,344.499 546.844,321.448 575.444,321.448 575.444,316.22 546.844,316.22 546.844,293.916 578.218,293.916 
			578.218,288.473 		"/>
		<path fill="#FFFFFF" d="M607.244,321.982c-1.424,0-3.006-0.053-4.749-0.159c-1.743-0.108-3.219-0.231-4.428-0.374v-27.746
			c1.636-0.213,3.289-0.39,4.962-0.533c1.671-0.142,3.218-0.214,4.642-0.214c6.687,0,11.542,1.139,14.567,3.415
			c3.023,2.278,4.535,5.977,4.535,11.098c0,5.194-1.512,8.91-4.535,11.151C619.213,320.861,614.215,321.982,607.244,321.982
			 M606.604,287.513c-2.348,0-4.767,0.108-7.257,0.32c-2.491,0.214-5.052,0.57-7.683,1.067v61.148h6.403v-23.157
			c1.564,0.144,3.041,0.25,4.428,0.32c1.388,0.072,2.757,0.107,4.109,0.107c1.28,0,2.561-0.035,3.842-0.107
			c1.28-0.07,2.454-0.214,3.522-0.427l13.553,23.264h6.936l-14.513-24.438c4.482-1.28,7.79-3.397,9.924-6.349
			c2.134-2.951,3.201-6.883,3.201-11.792c0-6.899-2.1-11.952-6.296-15.153C622.574,289.114,615.851,287.513,606.604,287.513"/>
		<polyline fill="#FFFFFF" points="652.81,288.473 646.407,288.473 646.407,350.048 652.81,350.048 652.81,288.473 		"/>
		<path fill="#FFFFFF" d="M691.974,345.246c-6.688,0-11.597-2.063-14.727-6.189c-3.131-4.126-4.695-10.707-4.695-19.742
			c0-9.034,1.582-15.65,4.749-19.85c3.165-4.196,8.057-6.296,14.673-6.296c6.545,0,11.4,2.117,14.566,6.35
			c3.165,4.233,4.749,10.831,4.749,19.796c0,8.964-1.566,15.526-4.695,19.688C703.463,343.165,698.59,345.246,691.974,345.246
			 M691.974,287.62c-17.217,0-25.825,10.564-25.825,31.694c0,21.059,8.607,31.587,25.825,31.587c8.465,0,14.869-2.63,19.209-7.896
			c4.339-5.264,6.51-13.161,6.51-23.69c0-10.6-2.171-18.532-6.51-23.798C706.843,290.253,700.439,287.62,691.974,287.62"/>
		<path fill="#FFFFFF" d="M745.971,345.673c-1.425,0-2.775-0.035-4.055-0.107c-1.281-0.07-2.812-0.213-4.589-0.427v-51.223
			c1.636-0.214,3.325-0.391,5.069-0.533c1.742-0.142,3.362-0.214,4.855-0.214c8.253,0,14.263,2.046,18.036,6.136
			c3.77,4.092,5.656,10.762,5.656,20.01c0,9.177-2.011,15.865-6.029,20.062C760.893,343.575,754.578,345.673,745.971,345.673
			 M746.825,287.62c-2.064,0-4.482,0.106-7.256,0.319c-2.775,0.214-5.621,0.499-8.538,0.855v61.468
			c1.85,0.355,3.949,0.603,6.297,0.746c2.347,0.143,4.766,0.214,7.256,0.214c11.382,0,19.724-2.543,25.025-7.63
			c5.299-5.086,7.95-13.179,7.95-24.277c0-10.955-2.472-18.978-7.417-24.065C765.196,290.164,757.424,287.62,746.825,287.62"/>
		<path fill="#FFFFFF" d="M813.521,345.246c-6.688,0-11.597-2.063-14.727-6.189c-3.131-4.126-4.695-10.707-4.695-19.742
			c0-9.034,1.582-15.65,4.749-19.85c3.165-4.196,8.057-6.296,14.673-6.296c6.544,0,11.4,2.117,14.566,6.35
			c3.165,4.233,4.749,10.831,4.749,19.796c0,8.964-1.566,15.526-4.695,19.688C825.01,343.165,820.138,345.246,813.521,345.246
			 M813.521,287.62c-17.218,0-25.825,10.564-25.825,31.694c0,21.059,8.607,31.587,25.825,31.587c8.465,0,14.868-2.63,19.209-7.896
			c4.339-5.264,6.509-13.161,6.509-23.69c0-10.6-2.171-18.532-6.509-23.798C828.39,290.253,821.987,287.62,813.521,287.62"/>
		<polyline fill="#FFFFFF" points="901.667,288.473 895.691,288.473 895.691,339.696 895.264,339.804 890.462,332.654 
			858.554,288.473 852.685,288.473 852.685,350.048 858.554,350.048 858.554,298.718 859.088,298.718 863.89,305.975 
			895.798,350.048 901.667,350.048 901.667,288.473 		"/>
		<polyline fill="#FFFFFF" points="956.624,288.473 911.911,288.473 911.911,294.129 931.119,294.129 931.119,350.048 
			937.522,350.048 937.522,294.129 956.624,294.129 956.624,288.473 		"/>
		<path fill="#FFFFFF" d="M986.611,345.246c-6.688,0-11.597-2.063-14.727-6.189c-3.131-4.126-4.695-10.707-4.695-19.742
			c0-9.034,1.582-15.65,4.749-19.85c3.165-4.196,8.057-6.296,14.674-6.296c6.544,0,11.4,2.117,14.566,6.35
			c3.165,4.233,4.749,10.831,4.749,19.796c0,8.964-1.566,15.526-4.695,19.688C998.099,343.165,993.226,345.246,986.611,345.246
			 M986.611,287.62c-17.218,0-25.825,10.564-25.825,31.694c0,21.059,8.607,31.587,25.825,31.587c8.465,0,14.868-2.63,19.208-7.896
			c4.339-5.264,6.51-13.161,6.51-23.69c0-10.6-2.171-18.532-6.51-23.798C1001.479,290.253,995.076,287.62,986.611,287.62"/>
		<polyline fill="#FFFFFF" points="1032.177,288.473 1025.774,288.473 1025.774,350.048 1058.429,350.048 1058.429,344.499 
			1032.177,344.499 1032.177,288.473 		"/>
		<path fill="#FFFFFF" d="M1087.561,345.246c-6.688,0-11.597-2.063-14.726-6.189c-3.131-4.126-4.695-10.707-4.695-19.742
			c0-9.034,1.582-15.65,4.748-19.85c3.165-4.196,8.057-6.296,14.673-6.296c6.544,0,11.4,2.117,14.566,6.35
			c3.165,4.233,4.749,10.831,4.749,19.796c0,8.964-1.566,15.526-4.695,19.688C1099.049,343.165,1094.177,345.246,1087.561,345.246
			 M1087.561,287.62c-17.218,0-25.825,10.564-25.825,31.694c0,21.059,8.607,31.587,25.825,31.587c8.465,0,14.868-2.63,19.208-7.896
			c4.339-5.264,6.51-13.161,6.51-23.69c0-10.6-2.171-18.532-6.51-23.798C1102.429,290.253,1096.026,287.62,1087.561,287.62"/>
		<path fill="#FFFFFF" d="M1153.403,287.726c-10.388,0-17.965,2.544-22.73,7.63c-4.767,5.088-7.15,13.072-7.15,23.958
			c0,10.815,2.33,18.746,6.99,23.797c4.659,5.053,12.005,7.647,22.036,7.79c2.276,0,4.677-0.16,7.203-0.48
			c2.524-0.319,5.245-0.764,8.164-1.333V318.78h-5.976v25.612c-1.494,0.285-3.148,0.499-4.963,0.64
			c-1.814,0.144-3.219,0.214-4.215,0.214c-7.897,0-13.643-2.063-17.234-6.189c-3.594-4.126-5.389-10.707-5.389-19.742
			c0-4.624,0.443-8.572,1.334-11.846c0.889-3.271,2.294-5.958,4.215-8.057c1.921-2.098,4.375-3.646,7.364-4.642
			c2.988-0.995,6.616-1.494,10.885-1.494c2.062,0,4.178,0.125,6.349,0.374c2.169,0.25,4.677,0.659,7.523,1.227v-5.549
			c-2.491-0.568-5.034-0.977-7.63-1.227C1157.582,287.851,1155.324,287.726,1153.403,287.726"/>
		<polyline fill="#FFFFFF" points="1188.831,288.473 1182.429,288.473 1182.429,350.048 1188.831,350.048 1188.831,288.473 		"/>
		<path fill="#FFFFFF" d="M1212.948,326.25l8.537-22.944l3.202-9.497h0.533l3.308,9.497l8.324,22.944H1212.948 M1229.595,288.473
			h-9.177l-21.983,61.041v0.533h6.19l6.937-18.675h26.892l6.829,18.675h6.19v-0.533L1229.595,288.473"/>
		<polyline fill="#FFFFFF" points="1354.664,288.473 1347.834,288.473 1335.775,331.48 1332.787,342.578 1332.148,342.578 
			1329.266,331.48 1317.314,288.473 1310.591,288.473 1297.891,331.48 1294.903,342.578 1294.37,342.578 1291.489,331.48 
			1280.177,288.473 1273.134,288.473 1290.315,350.048 1298.425,350.048 1311.124,307.469 1313.579,297.544 1314.113,297.544 
			1316.46,307.469 1328.519,350.048 1336.736,350.048 1354.664,288.473 		"/>
		<polyline fill="#FFFFFF" points="1392.227,271.079 1385.611,271.079 1385.611,350.048 1392.227,350.048 1392.227,271.079 		"/>
		<polyline fill="#FFFFFF" points="1471.196,288.473 1462.765,288.473 1444.409,330.092 1440.567,340.017 1439.928,340.017 
			1436.086,330.092 1417.838,288.473 1409.301,288.473 1409.301,350.048 1415.383,350.048 1415.383,297.864 1415.81,297.758 
			1420.933,310.243 1437.046,347.38 1443.449,347.38 1459.562,310.243 1464.686,297.758 1465.219,297.864 1465.219,350.048 
			1471.196,350.048 1471.196,288.473 		"/>
		<path fill="#FFFFFF" d="M1503.422,324.543c-1.565,0-3.201-0.07-4.909-0.213c-1.707-0.143-3.166-0.284-4.375-0.428v-30.2
			c1.564-0.213,3.182-0.39,4.856-0.533c1.671-0.142,3.254-0.214,4.749-0.214c6.686,0,11.541,1.246,14.566,3.735
			c3.022,2.491,4.535,6.51,4.535,12.059c0,5.621-1.53,9.658-4.589,12.112C1515.196,323.316,1510.251,324.543,1503.422,324.543
			 M1502.675,287.513c-2.347,0-4.749,0.108-7.203,0.32c-2.455,0.214-5.034,0.57-7.737,1.067v61.148h6.403v-20.596
			c1.494,0.144,2.935,0.25,4.321,0.32c1.388,0.072,2.651,0.107,3.789,0.107c9.391,0,16.221-1.689,20.489-5.069
			c4.269-3.378,6.402-8.733,6.402-16.061c0-7.326-2.117-12.7-6.349-16.114C1518.557,289.22,1511.853,287.513,1502.675,287.513"/>
		<polyline fill="#FFFFFF" points="1547.708,288.473 1541.306,288.473 1541.306,350.048 1573.96,350.048 1573.96,344.499 
			1547.708,344.499 1547.708,288.473 		"/>
		<path fill="#FFFFFF" d="M1591.459,326.25l8.537-22.944l3.201-9.497h0.534l3.308,9.497l8.324,22.944H1591.459 M1608.107,288.473
			h-9.178l-21.982,61.041v0.533h6.19l6.936-18.675h26.892l6.83,18.675h6.19v-0.533L1608.107,288.473"/>
		<polyline fill="#FFFFFF" points="1688.676,288.473 1682.701,288.473 1682.701,339.696 1682.274,339.804 1677.471,332.654 
			1645.564,288.473 1639.694,288.473 1639.694,350.048 1645.564,350.048 1645.564,298.718 1646.097,298.718 1650.899,305.975 
			1682.807,350.048 1688.676,350.048 1688.676,288.473 		"/>
		<polyline fill="#FFFFFF" points="1743.634,288.473 1698.92,288.473 1698.92,294.129 1718.129,294.129 1718.129,350.048 
			1724.531,350.048 1724.531,294.129 1743.634,294.129 1743.634,288.473 		"/>
		<path fill="#FFFFFF" d="M1773.619,345.246c-6.688,0-11.597-2.063-14.727-6.189c-3.132-4.126-4.694-10.707-4.694-19.742
			c0-9.034,1.582-15.65,4.749-19.85c3.163-4.196,8.057-6.296,14.672-6.296c6.545,0,11.401,2.117,14.566,6.35
			c3.165,4.233,4.749,10.831,4.749,19.796c0,8.964-1.566,15.526-4.695,19.688C1785.108,343.165,1780.236,345.246,1773.619,345.246
			 M1773.619,287.62c-17.217,0-25.825,10.564-25.825,31.694c0,21.059,8.607,31.587,25.825,31.587c8.466,0,14.869-2.63,19.209-7.896
			c4.338-5.264,6.509-13.161,6.509-23.69c0-10.6-2.171-18.532-6.509-23.798C1788.488,290.253,1782.085,287.62,1773.619,287.62"/>
		<polyline fill="#FFFFFF" points="1819.186,288.473 1812.783,288.473 1812.783,350.048 1845.437,350.048 1845.437,344.499 
			1819.186,344.499 1819.186,288.473 		"/>
		<path fill="#FFFFFF" d="M1874.57,345.246c-6.688,0-11.597-2.063-14.727-6.189c-3.132-4.126-4.695-10.707-4.695-19.742
			c0-9.034,1.582-15.65,4.749-19.85c3.163-4.196,8.057-6.296,14.673-6.296c6.545,0,11.4,2.117,14.566,6.35
			c3.165,4.233,4.749,10.831,4.749,19.796c0,8.964-1.566,15.526-4.695,19.688C1886.057,343.165,1881.186,345.246,1874.57,345.246
			 M1874.57,287.62c-17.218,0-25.825,10.564-25.825,31.694c0,21.059,8.607,31.587,25.825,31.587c8.466,0,14.868-2.63,19.209-7.896
			c4.338-5.264,6.509-13.161,6.509-23.69c0-10.6-2.171-18.532-6.509-23.798C1889.438,290.253,1883.036,287.62,1874.57,287.62"/>
		<path fill="#FFFFFF" d="M1940.411,287.726c-10.388,0-17.964,2.544-22.729,7.63c-4.768,5.088-7.15,13.072-7.15,23.958
			c0,10.815,2.329,18.746,6.99,23.797c4.657,5.053,12.005,7.647,22.036,7.79c2.276,0,4.678-0.16,7.203-0.48
			c2.524-0.319,5.246-0.764,8.163-1.333V318.78h-5.975v25.612c-1.494,0.285-3.148,0.499-4.962,0.64
			c-1.813,0.144-3.22,0.214-4.215,0.214c-7.898,0-13.642-2.063-17.234-6.189c-3.595-4.126-5.39-10.707-5.39-19.742
			c0-4.624,0.444-8.572,1.334-11.846c0.889-3.271,2.295-5.958,4.216-8.057c1.921-2.098,4.375-3.646,7.362-4.642
			c2.988-0.995,6.616-1.494,10.885-1.494c2.063,0,4.18,0.125,6.35,0.374c2.169,0.25,4.677,0.659,7.523,1.227v-5.549
			c-2.491-0.568-5.034-0.977-7.631-1.227C1944.59,287.851,1942.332,287.726,1940.411,287.726"/>
		<polyline fill="#FFFFFF" points="1975.839,288.473 1969.438,288.473 1969.438,350.048 1975.839,350.048 1975.839,288.473 		"/>
		<polyline fill="#FFFFFF" points="1998.784,288.473 1992.38,288.473 1992.38,350.048 1998.784,350.048 1998.784,288.473 		"/>
	</g>
</g>
</svg>
