<?xml version="1.0" encoding="utf-8"?>
<!-- Generator: Adobe Illustrator 17.0.0, SVG Export Plug-In . SVG Version: 6.00 Build 0)  -->
<!DOCTYPE svg PUBLIC "-//W3C//DTD SVG 1.1//EN" "http://www.w3.org/Graphics/SVG/1.1/DTD/svg11.dtd">
<svg version="1.1" id="Layer_1" xmlns="http://www.w3.org/2000/svg" xmlns:xlink="http://www.w3.org/1999/xlink" x="0px" y="0px"
	 width="2480px" height="465px" viewBox="0 0 2480 465" enable-background="new 0 0 2480 465" xml:space="preserve">
<rect y="0.154" opacity="0.8" fill="#3E2D4E" width="2480" height="465"/>
<g>
	<g>
		<path fill="#FFFFFF" d="M1080.232,147.184l-24.958-38.822h7.573l20.584,32.209l1.067,2.133h0.426l0.96-2.133l20.478-32.209h7.466
			l-25.171,39.036l26.024,39.889h-7.572l-21.544-33.276l-1.066-2.026h-0.32l-1.066,2.026l-21.118,33.276h-7.572L1080.232,147.184z"
			/>
		<path fill="#FFFFFF" d="M1119.588,154.542h25.491v5.76h-25.491V154.542z"/>
		<path fill="#FFFFFF" d="M1151.905,186.646l25.384-78.284h9.386l25.384,78.284v0.64h-6.292l-8.212-24.957h-31.143l-8.106,24.957
			h-6.399V186.646z M1195.847,156.462l-9.812-29.863l-3.733-12.265h-0.64l-3.733,12.265l-9.812,29.863H1195.847z"/>
		<path fill="#FFFFFF" d="M1236.162,188.352c-2.845,0-6.026-0.267-9.545-0.8s-6.666-1.19-9.439-1.973l0.426-5.546
			c2.488,0.783,5.421,1.44,8.799,1.973c3.376,0.533,6.416,0.8,9.119,0.8c4.906,0,8.656-0.96,11.253-2.88
			c2.595-1.919,3.893-4.656,3.893-8.212c0-1.706-0.339-3.199-1.014-4.479c-0.676-1.28-1.652-2.416-2.933-3.413
			c-1.28-0.995-2.863-1.901-4.746-2.72c-1.885-0.817-4-1.617-6.346-2.4c-3.13-0.923-5.796-1.937-7.999-3.04
			c-2.205-1.102-4-2.31-5.386-3.626c-1.386-1.314-2.383-2.826-2.986-4.533c-0.605-1.707-0.907-3.626-0.907-5.759
			c0-5.261,1.867-9.42,5.6-12.479c3.733-3.057,8.762-4.586,15.092-4.586c2.346,0,4.763,0.144,7.252,0.427
			c2.488,0.285,5.227,0.747,8.213,1.387l-0.427,5.546c-2.845-0.64-5.512-1.12-7.999-1.44c-2.49-0.32-4.693-0.48-6.613-0.48
			c-4.479,0-8.052,1.032-10.719,3.093c-2.666,2.063-4,4.836-4,8.319c0,2.986,1.12,5.351,3.36,7.093
			c2.24,1.743,5.954,3.431,11.145,5.066c2.916,0.925,5.494,1.92,7.733,2.986c2.24,1.066,4.106,2.293,5.6,3.68
			c1.493,1.386,2.63,2.986,3.413,4.799c0.781,1.813,1.173,3.93,1.173,6.346c0,5.333-1.85,9.476-5.546,12.425
			C1247.929,186.877,1242.774,188.352,1236.162,188.352z"/>
		<path fill="#FFFFFF" d="M1284.157,188.352c-2.846,0-6.027-0.267-9.547-0.8s-6.666-1.19-9.439-1.973l0.428-5.546
			c2.488,0.783,5.42,1.44,8.799,1.973c3.377,0.533,6.416,0.8,9.119,0.8c4.906,0,8.656-0.96,11.252-2.88
			c2.594-1.919,3.893-4.656,3.893-8.212c0-1.706-0.338-3.199-1.014-4.479c-0.676-1.28-1.652-2.416-2.932-3.413
			c-1.281-0.995-2.863-1.901-4.746-2.72c-1.885-0.817-4-1.617-6.348-2.4c-3.129-0.923-5.795-1.937-7.998-3.04
			c-2.205-1.102-4-2.31-5.387-3.626c-1.387-1.314-2.383-2.826-2.986-4.533s-0.906-3.626-0.906-5.759c0-5.261,1.867-9.42,5.6-12.479
			c3.732-3.057,8.762-4.586,15.092-4.586c2.346,0,4.762,0.144,7.252,0.427c2.488,0.285,5.227,0.747,8.213,1.387l-0.426,5.546
			c-2.846-0.64-5.512-1.12-8-1.44c-2.49-0.32-4.693-0.48-6.613-0.48c-4.479,0-8.053,1.032-10.719,3.093
			c-2.666,2.063-3.998,4.836-3.998,8.319c0,2.986,1.119,5.351,3.359,7.093c2.238,1.743,5.953,3.431,11.145,5.066
			c2.914,0.925,5.492,1.92,7.732,2.986s4.107,2.293,5.6,3.68c1.494,1.386,2.629,2.986,3.412,4.799s1.174,3.93,1.174,6.346
			c0,5.333-1.85,9.476-5.545,12.425C1295.923,186.877,1290.769,188.352,1284.157,188.352z"/>
		<path fill="#FFFFFF" d="M1317.326,125.746h6.399v61.54h-6.399V125.746z"/>
		<path fill="#FFFFFF" d="M1355.081,188.352c-2.845,0-6.026-0.267-9.546-0.8s-6.666-1.19-9.439-1.973l0.427-5.546
			c2.488,0.783,5.421,1.44,8.799,1.973c3.377,0.533,6.416,0.8,9.119,0.8c4.906,0,8.656-0.96,11.252-2.88
			c2.595-1.919,3.894-4.656,3.894-8.212c0-1.706-0.339-3.199-1.014-4.479c-0.677-1.28-1.653-2.416-2.933-3.413
			c-1.28-0.995-2.863-1.901-4.746-2.72c-1.885-0.817-4-1.617-6.347-2.4c-3.129-0.923-5.796-1.937-7.999-3.04
			c-2.204-1.102-3.999-2.31-5.386-3.626c-1.387-1.314-2.383-2.826-2.986-4.533c-0.604-1.707-0.906-3.626-0.906-5.759
			c0-5.261,1.866-9.42,5.599-12.479c3.733-3.057,8.763-4.586,15.092-4.586c2.347,0,4.763,0.144,7.253,0.427
			c2.488,0.285,5.226,0.747,8.212,1.387l-0.426,5.546c-2.845-0.64-5.512-1.12-8-1.44c-2.489-0.32-4.692-0.48-6.612-0.48
			c-4.479,0-8.053,1.032-10.719,3.093c-2.666,2.063-3.999,4.836-3.999,8.319c0,2.986,1.119,5.351,3.359,7.093
			c2.239,1.743,5.954,3.431,11.146,5.066c2.914,0.925,5.492,1.92,7.732,2.986c2.239,1.066,4.106,2.293,5.6,3.68
			c1.493,1.386,2.629,2.986,3.412,4.799c0.782,1.813,1.174,3.93,1.174,6.346c0,5.333-1.85,9.476-5.546,12.425
			C1366.848,186.877,1361.693,188.352,1355.081,188.352z"/>
		<path fill="#FFFFFF" d="M1401.048,131.398h-19.197v-5.652h44.688v5.652h-19.092v55.887h-6.399V131.398z"/>
	</g>
	<g>
		<path fill="#ECEAED" d="M826.291,274.536c5.901-1.136,11.519-1.706,16.852-1.706c10.38,0,17.971,2.151,22.771,6.453
			c4.8,4.303,7.199,11.11,7.199,20.424c0,9.386-2.453,16.229-7.359,20.531c-4.906,4.303-12.657,6.452-23.251,6.452
			c-1.493,0-3.023-0.035-4.586-0.106c-1.565-0.07-3.236-0.177-5.013-0.32v26.664h-6.613V274.536z M843.675,320.932
			c7.962,0,13.74-1.67,17.332-5.013c3.589-3.342,5.386-8.746,5.386-16.212c0-7.322-1.76-12.655-5.279-15.998
			c-3.52-3.342-9.19-5.013-17.011-5.013c-1.707,0-3.538,0.071-5.493,0.213c-1.957,0.144-3.858,0.392-5.706,0.747v40.528
			c1.493,0.144,3.216,0.304,5.173,0.48C840.031,320.843,841.897,320.932,843.675,320.932z"/>
		<path fill="#ECEAED" d="M907.133,329.677c-1.067,0.214-2.24,0.356-3.52,0.427c-1.28,0.072-2.56,0.106-3.839,0.106
			c-1.352,0-2.72-0.034-4.106-0.106c-1.387-0.07-2.863-0.177-4.426-0.32v23.145h-6.399v-61.113c2.63-0.496,5.189-0.854,7.679-1.066
			c2.488-0.213,4.906-0.32,7.252-0.32c9.242,0,15.961,1.601,20.158,4.8c4.194,3.199,6.292,8.249,6.292,15.145
			c0,4.906-1.066,8.836-3.2,11.786c-2.133,2.951-5.439,5.065-9.918,6.346l14.505,24.424h-6.933L907.133,329.677z M900.414,324.878
			c6.967,0,11.962-1.12,14.985-3.36c3.021-2.239,4.533-5.954,4.533-11.146c0-5.119-1.512-8.815-4.533-11.092
			c-3.023-2.274-7.876-3.413-14.559-3.413c-1.423,0-2.97,0.072-4.639,0.214c-1.672,0.144-3.325,0.319-4.959,0.533v27.73
			c1.208,0.143,2.683,0.267,4.426,0.373C897.409,324.824,898.991,324.878,900.414,324.878z"/>
		<path fill="#ECEAED" d="M932.623,352.395l21.971-61.007h9.172l21.864,61.007v0.533h-6.186l-6.826-18.665h-26.877l-6.933,18.665
			h-6.186V352.395z M971.019,329.144l-8.319-22.931l-3.306-9.492h-0.533l-3.2,9.492l-8.532,22.931H971.019z"/>
		<path fill="#ECEAED" d="M986.591,291.388h7.04l11.305,42.982l2.88,11.092h0.533l2.986-11.092l12.692-42.982h6.719l11.945,42.982
			l2.879,11.092h0.64l2.986-11.092l12.052-42.982h6.826l-17.918,61.54h-8.212l-12.052-42.556l-2.346-9.918h-0.533l-2.453,9.918
			l-12.692,42.556h-8.106L986.591,291.388z"/>
		<path fill="#ECEAED" d="M1068.609,352.395l21.971-61.007h9.172l21.864,61.007v0.533h-6.186l-6.826-18.665h-26.877l-6.933,18.665
			h-6.186V352.395z M1107.004,329.144l-8.319-22.931l-3.306-9.492h-0.533l-3.2,9.492l-8.532,22.931H1107.004z"/>
		<path fill="#ECEAED" d="M1177.182,322.852c-1.352,0.213-2.738,0.356-4.16,0.426c-1.423,0.072-2.951,0.107-4.586,0.107
			c-1.493,0-3.111-0.054-4.853-0.16c-1.743-0.106-3.431-0.23-5.066-0.373v30.076h-6.613v-78.392
			c2.986-0.567,5.866-0.994,8.639-1.279c2.773-0.283,5.509-0.427,8.212-0.427c10.38,0,17.971,2.01,22.771,6.026
			c4.8,4.018,7.199,10.436,7.199,19.251c0,6.399-1.245,11.502-3.733,15.305c-2.49,3.805-6.399,6.524-11.732,8.159l16.852,31.356
			h-7.146L1177.182,322.852z M1169.29,317.625c8.034,0,13.829-1.528,17.385-4.586c3.555-3.057,5.333-8.034,5.333-14.932
			c0-6.826-1.743-11.768-5.226-14.825c-3.484-3.057-9.172-4.586-17.064-4.586c-1.565,0-3.307,0.071-5.226,0.213
			c-1.92,0.144-3.911,0.392-5.973,0.747v37.223c1.563,0.213,3.306,0.392,5.226,0.533
			C1165.663,317.555,1167.511,317.625,1169.29,317.625z"/>
		<path fill="#ECEAED" d="M1245.121,371.272c-5.69,0-8.533-2.383-8.533-7.146c0-2.134,0.675-4.071,2.026-5.813
			c1.35-1.743,3.59-3.538,6.72-5.386h-33.063v-61.54h37.757v5.439h-31.357v22.291h28.584v5.227h-28.584v23.037h32.104v6.933
			c-3.058,1.137-5.369,2.522-6.933,4.159c-1.564,1.635-2.347,3.342-2.347,5.119c0,2.275,1.387,3.413,4.16,3.413
			c0.854,0,1.723-0.09,2.613-0.267c0.888-0.178,1.688-0.41,2.399-0.693v4.16c-0.854,0.354-1.743,0.621-2.666,0.8
			C1247.075,371.183,1246.115,371.272,1245.121,371.272z"/>
		<path fill="#ECEAED" d="M1263.571,291.388h6.399v27.41h10.025l21.117-27.41h7.466l-21.224,27.73l-2.986,2.133v0.427l3.199,2.026
			l22.718,29.224h-7.359l-22.504-28.583h-10.452v28.583h-6.399V291.388z"/>
		<path fill="#ECEAED" d="M1312.737,352.395l21.971-61.007h9.172l21.864,61.007v0.533h-6.186l-6.826-18.665h-26.877l-6.933,18.665
			h-6.186V352.395z M1351.133,329.144l-8.319-22.931l-3.306-9.492h-0.533l-3.2,9.492l-8.532,22.931H1351.133z"/>
		<path fill="#ECEAED" d="M1387.395,291.388h7.039l11.306,42.982l2.879,11.092h0.533l2.986-11.092l12.692-42.982h6.719
			l11.945,42.982l2.88,11.092h0.641l2.986-11.092l12.052-42.982h6.825l-17.918,61.54h-8.212l-12.052-42.556l-2.347-9.918h-0.533
			l-2.453,9.918l-12.691,42.556h-8.106L1387.395,291.388z"/>
		<path fill="#ECEAED" d="M1525.084,322.852c-1.352,0.213-2.737,0.356-4.159,0.426c-1.423,0.072-2.951,0.107-4.586,0.107
			c-1.493,0-3.111-0.054-4.853-0.16c-1.743-0.106-3.432-0.23-5.066-0.373v30.076h-6.612v-78.392
			c2.986-0.567,5.865-0.994,8.639-1.279c2.773-0.283,5.51-0.427,8.212-0.427c10.381,0,17.972,2.01,22.771,6.026
			c4.799,4.018,7.199,10.436,7.199,19.251c0,6.399-1.245,11.502-3.733,15.305c-2.489,3.805-6.399,6.524-11.731,8.159l16.851,31.356
			h-7.146L1525.084,322.852z M1517.192,317.625c8.033,0,13.828-1.528,17.384-4.586c3.555-3.057,5.333-8.034,5.333-14.932
			c0-6.826-1.743-11.768-5.226-14.825c-3.485-3.057-9.173-4.586-17.065-4.586c-1.564,0-3.306,0.071-5.226,0.213
			c-1.92,0.144-3.911,0.392-5.973,0.747v37.223c1.563,0.213,3.307,0.392,5.226,0.533
			C1513.565,317.555,1515.414,317.625,1517.192,317.625z"/>
		<path fill="#ECEAED" d="M1573.506,279.976h-22.077v-5.973h50.874v5.973h-22.077v72.952h-6.72V279.976z"/>
		<path fill="#ECEAED" d="M1638.992,353.994c-11.591-0.071-20.088-3.376-25.49-9.919c-5.405-6.541-8.106-16.708-8.106-30.503
			c0-7.039,0.675-13.118,2.026-18.238c1.351-5.119,3.413-9.332,6.187-12.639c2.772-3.306,6.327-5.74,10.665-7.306
			c4.336-1.562,9.492-2.347,15.465-2.347c2.134,0,4.675,0.179,7.626,0.534c2.95,0.356,5.812,0.853,8.586,1.493v5.865
			c-3.13-0.71-5.956-1.208-8.479-1.493c-2.524-0.283-4.924-0.427-7.199-0.427c-4.978,0-9.243,0.641-12.798,1.92
			c-3.557,1.28-6.453,3.307-8.692,6.08c-2.24,2.772-3.894,6.346-4.96,10.719c-1.066,4.372-1.6,9.651-1.6,15.838
			c0,11.945,2.149,20.674,6.452,26.184c4.302,5.511,11.109,8.266,20.425,8.266c1.28,0,2.88-0.07,4.8-0.213
			c1.92-0.142,3.909-0.355,5.973-0.641v-34.343h6.292v39.143c-3.343,0.64-6.399,1.137-9.172,1.493
			C1644.218,353.816,1641.552,353.994,1638.992,353.994z"/>
	</g>
</g>
</svg>
